  0
SECTION
  2
HEADER
  9
$ACADVER
  1
AC1014
  9
$ACADMAINTVER
 70
     9
  9
$DWGCODEPAGE
  3
ANSI_1252
  9
$INSBASE
 10
0.0
 20
0.0
 30
0.0
  9
$EXTMIN
 10
1.000000000000000E+20
 20
1.000000000000000E+20
 30
1.000000000000000E+20
  9
$EXTMAX
 10
-1.000000000000000E+20
 20
-1.000000000000000E+20
 30
-1.000000000000000E+20
  9
$LIMMIN
 10
0.0
 20
0.0
  9
$LIMMAX
 10
12.0
 20
9.0
  9
$ORTHOMODE
 70
     0
  9
$REGENMODE
 70
     1
  9
$FILLMODE
 70
     1
  9
$QTEXTMODE
 70
     0
  9
$MIRRTEXT
 70
     1
  9
$DRAGMODE
 70
     2
  9
$LTSCALE
 40
1.0
  9
$OSMODE
 70
    37
  9
$ATTMODE
 70
     1
  9
$TEXTSIZE
 40
0.2
  9
$TRACEWID
 40
0.05
  9
$TEXTSTYLE
  7
STANDARD
  9
$CLAYER
  8
0
  9
$CELTYPE
  6
BYLAYER
  9
$CECOLOR
 62
   256
  9
$CELTSCALE
 40
1.0
  9
$DELOBJ
 70
     1
  9
$DISPSILH
 70
     0
  9
$DIMSCALE
 40
1.0
  9
$DIMASZ
 40
0.18
  9
$DIMEXO
 40
0.0625
  9
$DIMDLI
 40
0.38
  9
$DIMRND
 40
0.0
  9
$DIMDLE
 40
0.0
  9
$DIMEXE
 40
0.18
  9
$DIMTP
 40
0.0
  9
$DIMTM
 40
0.0
  9
$DIMTXT
 40
0.18
  9
$DIMCEN
 40
0.09
  9
$DIMTSZ
 40
0.0
  9
$DIMTOL
 70
     0
  9
$DIMLIM
 70
     0
  9
$DIMTIH
 70
     1
  9
$DIMTOH
 70
     1
  9
$DIMSE1
 70
     0
  9
$DIMSE2
 70
     0
  9
$DIMTAD
 70
     0
  9
$DIMZIN
 70
     0
  9
$DIMBLK
  1

  9
$DIMASO
 70
     1
  9
$DIMSHO
 70
     1
  9
$DIMPOST
  1

  9
$DIMAPOST
  1

  9
$DIMALT
 70
     0
  9
$DIMALTD
 70
     2
  9
$DIMALTF
 40
25.4
  9
$DIMLFAC
 40
1.0
  9
$DIMTOFL
 70
     0
  9
$DIMTVP
 40
0.0
  9
$DIMTIX
 70
     0
  9
$DIMSOXD
 70
     0
  9
$DIMSAH
 70
     0
  9
$DIMBLK1
  1

  9
$DIMBLK2
  1

  9
$DIMSTYLE
  2
STANDARD
  9
$DIMCLRD
 70
     0
  9
$DIMCLRE
 70
     0
  9
$DIMCLRT
 70
     0
  9
$DIMTFAC
 40
1.0
  9
$DIMGAP
 40
0.09
  9
$DIMJUST
 70
     0
  9
$DIMSD1
 70
     0
  9
$DIMSD2
 70
     0
  9
$DIMTOLJ
 70
     1
  9
$DIMTZIN
 70
     0
  9
$DIMALTZ
 70
     0
  9
$DIMALTTZ
 70
     0
  9
$DIMFIT
 70
     3
  9
$DIMUPT
 70
     0
  9
$DIMUNIT
 70
     2
  9
$DIMDEC
 70
     4
  9
$DIMTDEC
 70
     4
  9
$DIMALTU
 70
     2
  9
$DIMALTTD
 70
     2
  9
$DIMTXSTY
  7
STANDARD
  9
$DIMAUNIT
 70
     0
  9
$LUNITS
 70
     2
  9
$LUPREC
 70
     4
  9
$SKETCHINC
 40
0.1
  9
$FILLETRAD
 40
0.5
  9
$AUNITS
 70
     0
  9
$AUPREC
 70
     0
  9
$MENU
  1
.
  9
$ELEVATION
 40
0.0
  9
$PELEVATION
 40
0.0
  9
$THICKNESS
 40
0.0
  9
$LIMCHECK
 70
     0
  9
$CHAMFERA
 40
0.0
  9
$CHAMFERB
 40
0.0
  9
$CHAMFERC
 40
0.0
  9
$CHAMFERD
 40
0.0
  9
$SKPOLY
 70
     0
  9
$TDCREATE
 40
2457123.559564803
  9
$TDUPDATE
 40
2457123.559565081
  9
$TDINDWG
 40
0.0000000116
  9
$TDUSRTIMER
 40
0.0000000116
  9
$USRTIMER
 70
     1
  9
$ANGBASE
 50
0.0
  9
$ANGDIR
 70
     0
  9
$PDMODE
 70
     0
  9
$PDSIZE
 40
0.0
  9
$PLINEWID
 40
0.0
  9
$COORDS
 70
     1
  9
$SPLFRAME
 70
     0
  9
$SPLINETYPE
 70
     6
  9
$SPLINESEGS
 70
     8
  9
$ATTDIA
 70
     0
  9
$ATTREQ
 70
     1
  9
$HANDLING
 70
     1
  9
$HANDSEED
  5
45D
  9
$SURFTAB1
 70
     6
  9
$SURFTAB2
 70
     6
  9
$SURFTYPE
 70
     6
  9
$SURFU
 70
     6
  9
$SURFV
 70
     6
  9
$UCSNAME
  2

  9
$UCSORG
 10
0.0
 20
0.0
 30
0.0
  9
$UCSXDIR
 10
1.0
 20
0.0
 30
0.0
  9
$UCSYDIR
 10
0.0
 20
1.0
 30
0.0
  9
$PUCSNAME
  2

  9
$PUCSORG
 10
0.0
 20
0.0
 30
0.0
  9
$PUCSXDIR
 10
1.0
 20
0.0
 30
0.0
  9
$PUCSYDIR
 10
0.0
 20
1.0
 30
0.0
  9
$USERI1
 70
     0
  9
$USERI2
 70
     0
  9
$USERI3
 70
     0
  9
$USERI4
 70
     0
  9
$USERI5
 70
     0
  9
$USERR1
 40
0.0
  9
$USERR2
 40
0.0
  9
$USERR3
 40
0.0
  9
$USERR4
 40
0.0
  9
$USERR5
 40
0.0
  9
$WORLDVIEW
 70
     1
  9
$SHADEDGE
 70
     3
  9
$SHADEDIF
 70
    70
  9
$TILEMODE
 70
     1
  9
$MAXACTVP
 70
    64
  9
$PINSBASE
 10
0.0
 20
0.0
 30
0.0
  9
$PLIMCHECK
 70
     0
  9
$PEXTMIN
 10
1.000000000000000E+20
 20
1.000000000000000E+20
 30
1.000000000000000E+20
  9
$PEXTMAX
 10
-1.000000000000000E+20
 20
-1.000000000000000E+20
 30
-1.000000000000000E+20
  9
$PLIMMIN
 10
0.0
 20
0.0
  9
$PLIMMAX
 10
12.0
 20
9.0
  9
$UNITMODE
 70
     0
  9
$VISRETAIN
 70
     1
  9
$PLINEGEN
 70
     0
  9
$PSLTSCALE
 70
     1
  9
$TREEDEPTH
 70
  3020
  9
$PICKSTYLE
 70
     1
  9
$CMLSTYLE
  2
STANDARD
  9
$CMLJUST
 70
     0
  9
$CMLSCALE
 40
1.0
  9
$PROXYGRAPHICS
 70
     1
  9
$MEASUREMENT
 70
     0
  0
ENDSEC
  0
SECTION
  2
CLASSES
  0
CLASS
  1
ACDBDICTIONARYWDFLT
  2
AcDbDictionaryWithDefault
  3
ObjectDBX Classes
 90
        0
280
     0
281
     0
  0
CLASS
  1
VISUALSTYLE
  2
AcDbVisualStyle
  3
ObjectDBX Classes
 90
     4095
280
     0
281
     0
  0
CLASS
  1
MATERIAL
  2
AcDbMaterial
  3
ObjectDBX Classes
 90
     1153
280
     0
281
     0
  0
CLASS
  1
SCALE
  2
AcDbScale
  3
ObjectDBX Classes
 90
     1153
280
     0
281
     0
  0
CLASS
  1
SUN
  2
AcDbSun
  3
SCENEOE
 90
     1153
280
     0
281
     0
  0
CLASS
  1
DICTIONARYVAR
  2
AcDbDictionaryVar
  3
ObjectDBX Classes
 90
        0
280
     0
281
     0
  0
CLASS
  1
XRECORD
  2
AcDbXrecord
  3
ObjectDBX Classes
 90
        0
280
     0
281
     0
  0
CLASS
  1
LWPOLYLINE
  2
AcDbPolyline
  3
ObjectDBX Classes
 90
        0
280
     0
281
     1
  0
CLASS
  1
HATCH
  2
AcDbHatch
  3
ObjectDBX Classes
 90
        0
280
     0
281
     1
  0
CLASS
  1
ACDBPLACEHOLDER
  2
AcDbPlaceHolder
  3
ObjectDBX Classes
 90
        0
280
     0
281
     0
  0
CLASS
  1
LAYOUT
  2
AcDbLayout
  3
ObjectDBX Classes
 90
        0
280
     0
281
     0
  0
ENDSEC
  0
SECTION
  2
TABLES
  0
TABLE
  2
VPORT
  5
8
102
{ACAD_XDICTIONARY
360
453
102
}
330
0
100
AcDbSymbolTable
 70
     1
  0
VPORT
  5
29
330
8
100
AcDbSymbolTableRecord
100
AcDbViewportTableRecord
  2
*ACTIVE
 70
     0
 10
0.0
 20
0.0
 11
1.0
 21
1.0
 12
0.0
 22
0.0
 13
0.0
 23
0.0
 14
0.5
 24
0.5
 15
0.5
 25
0.5
 16
0.0
 26
0.0
 36
1.0
 17
0.0
 27
0.0
 37
-1000.0
 40
14.24156550987214
 41
2.117106773823192
 42
50.0
 43
22.58423757431283
 44
29.04598075012573
 50
0.0
 51
0.0
 71
     0
 72
   100
 73
     1
 74
     3
 75
     0
 76
     0
 77
     0
 78
     0
  0
ENDTAB
  0
TABLE
  2
LTYPE
  5
5
330
0
100
AcDbSymbolTable
 70
     1
  0
LTYPE
  5
14
330
5
100
AcDbSymbolTableRecord
100
AcDbLinetypeTableRecord
  2
BYBLOCK
 70
     0
  3

 72
    65
 73
     0
 40
0.0
  0
LTYPE
  5
15
330
5
100
AcDbSymbolTableRecord
100
AcDbLinetypeTableRecord
  2
BYLAYER
 70
     0
  3

 72
    65
 73
     0
 40
0.0
  0
LTYPE
  5
16
330
5
100
AcDbSymbolTableRecord
100
AcDbLinetypeTableRecord
  2
CONTINUOUS
 70
     0
  3
Solid line
 72
    65
 73
     0
 40
0.0
  0
ENDTAB
  0
TABLE
  2
LAYER
  5
2
330
0
100
AcDbSymbolTable
 70
     3
  0
LAYER
  5
10
330
2
100
AcDbSymbolTableRecord
100
AcDbLayerTableRecord
  2
0
 70
     0
 62
     7
  6
CONTINUOUS
  0
LAYER
  5
6A
330
2
100
AcDbSymbolTableRecord
100
AcDbLayerTableRecord
  2
PROFILEEDGES
 70
     0
 62
     7
  6
CONTINUOUS
  0
LAYER
  5
6B
330
2
100
AcDbSymbolTableRecord
100
AcDbLayerTableRecord
  2
SECTIONCUTEDGES
 70
     0
 62
     7
  6
CONTINUOUS
  0
ENDTAB
  0
TABLE
  2
STYLE
  5
3
330
0
100
AcDbSymbolTable
 70
     1
  0
STYLE
  5
11
330
3
100
AcDbSymbolTableRecord
100
AcDbTextStyleTableRecord
  2
STANDARD
 70
     0
 40
0.0
 41
1.0
 50
0.0
 71
     0
 42
0.2
  3
txt
  4

  0
ENDTAB
  0
TABLE
  2
VIEW
  5
6
330
0
100
AcDbSymbolTable
 70
     0
  0
ENDTAB
  0
TABLE
  2
UCS
  5
7
330
0
100
AcDbSymbolTable
 70
     0
  0
ENDTAB
  0
TABLE
  2
APPID
  5
9
330
0
100
AcDbSymbolTable
 70
     1
  0
APPID
  5
12
330
9
100
AcDbSymbolTableRecord
100
AcDbRegAppTableRecord
  2
ACAD
 70
     0
  0
ENDTAB
  0
TABLE
  2
DIMSTYLE
  5
A
330
0
100
AcDbSymbolTable
 70
     1
  0
DIMSTYLE
105
27
330
A
100
AcDbSymbolTableRecord
100
AcDbDimStyleTableRecord
  2
STANDARD
 70
     0
  3

  4

  5

  6

  7

 40
1.0
 41
0.18
 42
0.0625
 43
0.38
 44
0.18
 45
0.0
 46
0.0
 47
0.0
 48
0.0
140
0.18
141
0.09
142
0.0
143
25.4
144
1.0
145
0.0
146
1.0
147
0.09
 71
     0
 72
     0
 73
     1
 74
     1
 75
     0
 76
     0
 77
     0
 78
     0
170
     0
171
     2
172
     0
173
     0
174
     0
175
     0
176
     0
177
     0
178
     0
270
     2
271
     4
272
     4
273
     2
274
     2
340
11
275
     0
280
     0
281
     0
282
     0
283
     1
284
     0
285
     0
286
     0
287
     3
288
     0
  0
ENDTAB
  0
TABLE
  2
BLOCK_RECORD
  5
1
330
0
100
AcDbSymbolTable
 70
     1
  0
BLOCK_RECORD
  5
1F
330
1
100
AcDbSymbolTableRecord
100
AcDbBlockTableRecord
  2
*MODEL_SPACE
  0
BLOCK_RECORD
  5
1B
330
1
100
AcDbSymbolTableRecord
100
AcDbBlockTableRecord
  2
*PAPER_SPACE
  0
ENDTAB
  0
ENDSEC
  0
SECTION
  2
BLOCKS
  0
BLOCK
  5
20
330
1F
100
AcDbEntity
  8
0
100
AcDbBlockBegin
  2
*MODEL_SPACE
 70
     0
 10
0.0
 20
0.0
 30
0.0
  3
*MODEL_SPACE
  1

  0
ENDBLK
  5
21
330
1F
100
AcDbEntity
  8
0
100
AcDbBlockEnd
  0
BLOCK
  5
1C
330
1B
100
AcDbEntity
 67
     1
  8
0
100
AcDbBlockBegin
  2
*PAPER_SPACE
 70
     0
 10
0.0
 20
0.0
 30
0.0
  3
*PAPER_SPACE
  1

  0
ENDBLK
  5
1D
330
1B
100
AcDbEntity
 67
     1
  8
0
100
AcDbBlockEnd
  0
ENDSEC
  0
SECTION
  2
ENTITIES
  0
LINE
  5
6C
330
1F
100
AcDbEntity
  8
0
100
AcDbLine
 10
-8.332652850537814
 20
3.741320233278224
 30
0.0
 11
-7.929262329599458
 21
3.741320233278224
 31
0.0
  0
LINE
  5
6D
330
1F
100
AcDbEntity
  8
0
100
AcDbLine
 10
-7.929262329599458
 20
3.741320233278224
 30
0.0
 11
-7.937164288512569
 21
3.865680091910203
 31
0.0
  0
LINE
  5
6E
330
1F
100
AcDbEntity
  8
0
100
AcDbLine
 10
-7.937164288512569
 20
3.865680091910203
 30
0.0
 11
-7.960870165251898
 21
3.971910039488773
 31
0.0
  0
LINE
  5
6F
330
1F
100
AcDbEntity
  8
0
100
AcDbLine
 10
-7.960870165251898
 20
3.971910039488773
 30
0.0
 11
-8.00037995981745
 21
4.060010076013934
 31
0.0
  0
LINE
  5
70
330
1F
100
AcDbEntity
  8
0
100
AcDbLine
 10
-8.00037995981745
 20
4.060010076013934
 30
0.0
 11
-8.055693672209218
 21
4.129980201485685
 31
0.0
  0
LINE
  5
71
330
1F
100
AcDbEntity
  8
0
100
AcDbLine
 10
-8.055693672209218
 20
4.129980201485685
 30
0.0
 11
-8.128695777434775
 21
4.183272225187602
 31
0.0
  0
LINE
  5
72
330
1F
100
AcDbEntity
  8
0
100
AcDbLine
 10
-8.128695777434775
 20
4.183272225187602
 30
0.0
 11
-8.221270750501684
 21
4.221337956403255
 31
0.0
  0
LINE
  5
73
330
1F
100
AcDbEntity
  8
0
100
AcDbLine
 10
-8.221270750501684
 20
4.221337956403255
 30
0.0
 11
-8.333418591409943
 21
4.244177395132648
 31
0.0
  0
LINE
  5
74
330
1F
100
AcDbEntity
  8
0
100
AcDbLine
 10
-8.333418591409943
 20
4.244177395132648
 30
0.0
 11
-8.465139300159555
 21
4.251790541375779
 31
0.0
  0
LINE
  5
75
330
1F
100
AcDbEntity
  8
0
100
AcDbLine
 10
-8.465139300159555
 20
4.251790541375779
 30
0.0
 11
-8.59331624425166
 21
4.243520650612982
 31
0.0
  0
LINE
  5
76
330
1F
100
AcDbEntity
  8
0
100
AcDbLine
 10
-8.59331624425166
 20
4.243520650612982
 30
0.0
 11
-8.704092501618007
 21
4.218710978324594
 31
0.0
  0
LINE
  5
77
330
1F
100
AcDbEntity
  8
0
100
AcDbLine
 10
-8.704092501618007
 20
4.218710978324594
 30
0.0
 11
-8.797468072258594
 21
4.177361524510612
 31
0.0
  0
LINE
  5
78
330
1F
100
AcDbEntity
  8
0
100
AcDbLine
 10
-8.797468072258594
 20
4.177361524510612
 30
0.0
 11
-8.873442956173418
 21
4.119472289171038
 31
0.0
  0
LINE
  5
79
330
1F
100
AcDbEntity
  8
0
100
AcDbLine
 10
-8.873442956173418
 20
4.119472289171038
 30
0.0
 11
-8.93230817915637
 21
4.045768070385705
 31
0.0
  0
LINE
  5
7A
330
1F
100
AcDbEntity
  8
0
100
AcDbLine
 10
-8.93230817915637
 20
4.045768070385705
 30
0.0
 11
-8.974354767001337
 21
3.956973666234445
 31
0.0
  0
LINE
  5
7B
330
1F
100
AcDbEntity
  8
0
100
AcDbLine
 10
-8.974354767001337
 20
3.956973666234445
 30
0.0
 11
-8.999582719708316
 21
3.853089076717258
 31
0.0
  0
LINE
  5
7C
330
1F
100
AcDbEntity
  8
0
100
AcDbLine
 10
-8.999582719708316
 20
3.853089076717258
 30
0.0
 11
-9.00799203727731
 21
3.734114301834144
 31
0.0
  0
LINE
  5
7D
330
1F
100
AcDbEntity
  8
0
100
AcDbLine
 10
-9.00799203727731
 20
3.734114301834144
 30
0.0
 11
-8.99551887093246
 21
3.601796049629404
 31
0.0
  0
LINE
  5
7E
330
1F
100
AcDbEntity
  8
0
100
AcDbLine
 10
-8.99551887093246
 20
3.601796049629404
 30
0.0
 11
-8.958099371897909
 21
3.497327748681512
 31
0.0
  0
LINE
  5
7F
330
1F
100
AcDbEntity
  8
0
100
AcDbLine
 10
-8.958099371897909
 20
3.497327748681512
 30
0.0
 11
-8.90182627029207
 21
3.415493065939579
 31
0.0
  0
LINE
  5
80
330
1F
100
AcDbEntity
  8
0
100
AcDbLine
 10
-8.90182627029207
 20
3.415493065939579
 30
0.0
 11
-8.832792296233352
 21
3.351075668352715
 31
0.0
  0
LINE
  5
81
330
1F
100
AcDbEntity
  8
0
100
AcDbLine
 10
-8.832792296233352
 20
3.351075668352715
 30
0.0
 11
-8.669189324466725
 21
3.260541195528879
 31
0.0
  0
LINE
  5
82
330
1F
100
AcDbEntity
  8
0
100
AcDbLine
 10
-8.669189324466725
 20
3.260541195528879
 30
0.0
 11
-8.505586352700094
 21
3.192058289323228
 31
0.0
  0
LINE
  5
83
330
1F
100
AcDbEntity
  8
0
100
AcDbLine
 10
-8.505586352700094
 20
3.192058289323228
 30
0.0
 11
-8.38027927703554
 21
3.110810084416885
 31
0.0
  0
LINE
  5
84
330
1F
100
AcDbEntity
  8
0
100
AcDbLine
 10
-8.38027927703554
 20
3.110810084416885
 30
0.0
 11
-8.342859778000989
 21
3.0548047708039
 31
0.0
  0
LINE
  5
85
330
1F
100
AcDbEntity
  8
0
100
AcDbLine
 10
-8.342859778000989
 20
3.0548047708039
 30
0.0
 11
-8.330386611656138
 21
2.981970862995343
 31
0.0
  0
LINE
  5
86
330
1F
100
AcDbEntity
  8
0
100
AcDbLine
 10
-8.330386611656138
 20
2.981970862995343
 30
0.0
 11
-8.339385173465606
 21
2.919877245511761
 31
0.0
  0
LINE
  5
87
330
1F
100
AcDbEntity
  8
0
100
AcDbLine
 10
-8.339385173465606
 20
2.919877245511761
 30
0.0
 11
-8.36638085889401
 21
2.868225146625589
 31
0.0
  0
LINE
  5
88
330
1F
100
AcDbEntity
  8
0
100
AcDbLine
 10
-8.36638085889401
 20
2.868225146625589
 30
0.0
 11
-8.410213991013617
 21
2.833401641934989
 31
0.0
  0
LINE
  5
89
330
1F
100
AcDbEntity
  8
0
100
AcDbLine
 10
-8.410213991013617
 20
2.833401641934989
 30
0.0
 11
-8.469724892896696
 21
2.821793807038122
 31
0.0
  0
LINE
  5
8A
330
1F
100
AcDbEntity
  8
0
100
AcDbLine
 10
-8.469724892896696
 20
2.821793807038122
 30
0.0
 11
-8.526628734816283
 21
2.832527457991374
 31
0.0
  0
LINE
  5
8B
330
1F
100
AcDbEntity
  8
0
100
AcDbLine
 10
-8.526628734816283
 20
2.832527457991374
 30
0.0
 11
-8.57191810246728
 21
2.864728410851128
 31
0.0
  0
LINE
  5
8C
330
1F
100
AcDbEntity
  8
0
100
AcDbLine
 10
-8.57191810246728
 20
2.864728410851128
 30
0.0
 11
-8.601529700354806
 21
2.923615211792181
 31
0.0
  0
LINE
  5
8D
330
1F
100
AcDbEntity
  8
0
100
AcDbLine
 10
-8.601529700354806
 20
2.923615211792181
 30
0.0
 11
-8.611400232983982
 21
3.014406406989333
 31
0.0
  0
LINE
  5
8E
330
1F
100
AcDbEntity
  8
0
100
AcDbLine
 10
-8.611400232983982
 20
3.014406406989333
 30
0.0
 11
-8.611400232983982
 21
3.053853127523508
 31
0.0
  0
LINE
  5
8F
330
1F
100
AcDbEntity
  8
0
100
AcDbLine
 10
-8.611400232983982
 20
3.053853127523508
 30
0.0
 11
-9.029521306653232
 21
3.053853127523508
 31
0.0
  0
LINE
  5
90
330
1F
100
AcDbEntity
  8
0
100
AcDbLine
 10
-9.029521306653232
 20
3.053853127523508
 30
0.0
 11
-9.029521306653232
 21
2.995833871154346
 31
0.0
  0
LINE
  5
91
330
1F
100
AcDbEntity
  8
0
100
AcDbLine
 10
-9.029521306653232
 20
2.995833871154346
 30
0.0
 11
-9.02023503873574
 21
2.876316327632824
 31
0.0
  0
LINE
  5
92
330
1F
100
AcDbEntity
  8
0
100
AcDbLine
 10
-9.02023503873574
 20
2.876316327632824
 30
0.0
 11
-8.99237623498326
 21
2.77767296881049
 31
0.0
  0
LINE
  5
93
330
1F
100
AcDbEntity
  8
0
100
AcDbLine
 10
-8.99237623498326
 20
2.77767296881049
 30
0.0
 11
-8.946816866215501
 21
2.697878786311628
 31
0.0
  0
LINE
  5
94
330
1F
100
AcDbEntity
  8
0
100
AcDbLine
 10
-8.946816866215501
 20
2.697878786311628
 30
0.0
 11
-8.88442890325217
 21
2.634908771760523
 31
0.0
  0
LINE
  5
95
330
1F
100
AcDbEntity
  8
0
100
AcDbLine
 10
-8.88442890325217
 20
2.634908771760523
 30
0.0
 11
-8.8055022653252
 21
2.588477432173057
 31
0.0
  0
LINE
  5
96
330
1F
100
AcDbEntity
  8
0
100
AcDbLine
 10
-8.8055022653252
 20
2.588477432173057
 30
0.0
 11
-8.710326871666526
 21
2.558299274565111
 31
0.0
  0
LINE
  5
97
330
1F
100
AcDbEntity
  8
0
100
AcDbLine
 10
-8.710326871666526
 20
2.558299274565111
 30
0.0
 11
-8.47238064158616
 21
2.536247707946926
 31
0.0
  0
LINE
  5
98
330
1F
100
AcDbEntity
  8
0
100
AcDbLine
 10
-8.47238064158616
 20
2.536247707946926
 30
0.0
 11
-8.22051164900128
 21
2.566140372570754
 31
0.0
  0
LINE
  5
99
330
1F
100
AcDbEntity
  8
0
100
AcDbLine
 10
-8.22051164900128
 20
2.566140372570754
 30
0.0
 11
-8.119821703845126
 21
2.603506203350539
 31
0.0
  0
LINE
  5
9A
330
1F
100
AcDbEntity
  8
0
100
AcDbLine
 10
-8.119821703845126
 20
2.603506203350539
 30
0.0
 11
-8.035961459446499
 21
2.655818366442238
 31
0.0
  0
LINE
  5
9B
330
1F
100
AcDbEntity
  8
0
100
AcDbLine
 10
-8.035961459446499
 20
2.655818366442238
 30
0.0
 11
-7.969946739679119
 21
2.724672524183438
 31
0.0
  0
LINE
  5
9C
330
1F
100
AcDbEntity
  8
0
100
AcDbLine
 10
-7.969946739679119
 20
2.724672524183438
 30
0.0
 11
-7.922793368416705
 21
2.811664338911724
 31
0.0
  0
LINE
  5
9D
330
1F
100
AcDbEntity
  8
0
100
AcDbLine
 10
-7.922793368416705
 20
2.811664338911724
 30
0.0
 11
-7.894501345659256
 21
2.916793810627097
 31
0.0
  0
LINE
  5
9E
330
1F
100
AcDbEntity
  8
0
100
AcDbLine
 10
-7.894501345659256
 20
2.916793810627097
 30
0.0
 11
-7.885070671406773
 21
3.040060939329558
 31
0.0
  0
LINE
  5
9F
330
1F
100
AcDbEntity
  8
0
100
AcDbLine
 10
-7.885070671406773
 20
3.040060939329558
 30
0.0
 11
-7.89811261059595
 21
3.176743471880651
 31
0.0
  0
LINE
  5
A0
330
1F
100
AcDbEntity
  8
0
100
AcDbLine
 10
-7.89811261059595
 20
3.176743471880651
 30
0.0
 11
-7.937238428163482
 21
3.284991788463214
 31
0.0
  0
LINE
  5
A1
330
1F
100
AcDbEntity
  8
0
100
AcDbLine
 10
-7.937238428163482
 20
3.284991788463214
 30
0.0
 11
-7.996069901006838
 21
3.370026648375951
 31
0.0
  0
LINE
  5
A2
330
1F
100
AcDbEntity
  8
0
100
AcDbLine
 10
-7.996069901006838
 20
3.370026648375951
 30
0.0
 11
-8.068228806023491
 21
3.437068810917568
 31
0.0
  0
LINE
  5
A3
330
1F
100
AcDbEntity
  8
0
100
AcDbLine
 10
-8.068228806023491
 20
3.437068810917568
 30
0.0
 11
-8.237470817507415
 21
3.531100019515865
 31
0.0
  0
LINE
  5
A4
330
1F
100
AcDbEntity
  8
0
100
AcDbLine
 10
-8.237470817507415
 20
3.531100019515865
 30
0.0
 11
-8.40671282899134
 21
3.601911132072614
 31
0.0
  0
LINE
  5
A5
330
1F
100
AcDbEntity
  8
0
100
AcDbLine
 10
-8.40671282899134
 20
3.601911132072614
 30
0.0
 11
-8.537703206851349
 21
3.684327866402321
 31
0.0
  0
LINE
  5
A6
330
1F
100
AcDbEntity
  8
0
100
AcDbLine
 10
-8.537703206851349
 20
3.684327866402321
 30
0.0
 11
-8.576829024418881
 21
3.740337606263122
 31
0.0
  0
LINE
  5
A7
330
1F
100
AcDbEntity
  8
0
100
AcDbLine
 10
-8.576829024418881
 20
3.740337606263122
 30
0.0
 11
-8.589870963608059
 21
3.813184792815127
 31
0.0
  0
LINE
  5
A8
330
1F
100
AcDbEntity
  8
0
100
AcDbLine
 10
-8.589870963608059
 20
3.813184792815127
 30
0.0
 11
-8.581759864485653
 21
3.86629091410878
 31
0.0
  0
LINE
  5
A9
330
1F
100
AcDbEntity
  8
0
100
AcDbLine
 10
-8.581759864485653
 20
3.86629091410878
 30
0.0
 11
-8.557426567118435
 21
3.914174062979821
 31
0.0
  0
LINE
  5
AA
330
1F
100
AcDbEntity
  8
0
100
AcDbLine
 10
-8.557426567118435
 20
3.914174062979821
 30
0.0
 11
-8.515715820826493
 21
3.948127809974621
 31
0.0
  0
LINE
  5
AB
330
1F
100
AcDbEntity
  8
0
100
AcDbLine
 10
-8.515715820826493
 20
3.948127809974621
 30
0.0
 11
-8.455472374929904
 21
3.959445725639554
 31
0.0
  0
LINE
  5
AC
330
1F
100
AcDbEntity
  8
0
100
AcDbLine
 10
-8.455472374929904
 20
3.959445725639554
 30
0.0
 11
-8.401014034928531
 21
3.946392720830838
 31
0.0
  0
LINE
  5
AD
330
1F
100
AcDbEntity
  8
0
100
AcDbLine
 10
-8.401014034928531
 20
3.946392720830838
 30
0.0
 11
-8.36277789317197
 21
3.907233706404687
 31
0.0
  0
LINE
  5
AE
330
1F
100
AcDbEntity
  8
0
100
AcDbLine
 10
-8.36277789317197
 20
3.907233706404687
 30
0.0
 11
-8.340184111196352
 21
3.849511008639181
 31
0.0
  0
LINE
  5
AF
330
1F
100
AcDbEntity
  8
0
100
AcDbLine
 10
-8.340184111196352
 20
3.849511008639181
 30
0.0
 11
-8.332652850537814
 21
3.7807669538124
 31
0.0
  0
LINE
  5
B0
330
1F
100
AcDbEntity
  8
0
100
AcDbLine
 10
-8.332652850537814
 20
3.7807669538124
 30
0.0
 11
-8.332652850537814
 21
3.741320233278224
 31
0.0
  0
LINE
  5
B1
330
1F
100
AcDbEntity
  8
0
100
AcDbLine
 10
-7.29561839728455
 20
2.810462612629741
 30
0.0
 11
-7.337430947276257
 21
2.819746667423327
 31
0.0
  0
LINE
  5
B2
330
1F
100
AcDbEntity
  8
0
100
AcDbLine
 10
-7.337430947276257
 20
2.819746667423327
 30
0.0
 11
-7.369952803102655
 21
2.847598831804083
 31
0.0
  0
LINE
  5
B3
330
1F
100
AcDbEntity
  8
0
100
AcDbLine
 10
-7.369952803102655
 20
2.847598831804083
 30
0.0
 11
-7.397829311846398
 21
2.947410720049781
 31
0.0
  0
LINE
  5
B4
330
1F
100
AcDbEntity
  8
0
100
AcDbLine
 10
-7.397829311846398
 20
2.947410720049781
 30
0.0
 11
-7.37924792351578
 21
3.04837343272758
 31
0.0
  0
LINE
  5
B5
330
1F
100
AcDbEntity
  8
0
100
AcDbLine
 10
-7.37924792351578
 20
3.04837343272758
 30
0.0
 11
-7.311889284255336
 21
3.109889424871204
 31
0.0
  0
LINE
  5
B6
330
1F
100
AcDbEntity
  8
0
100
AcDbLine
 10
-7.311889284255336
 20
3.109889424871204
 30
0.0
 11
-7.227100081096373
 21
3.136570846704688
 31
0.0
  0
LINE
  5
B7
330
1F
100
AcDbEntity
  8
0
100
AcDbLine
 10
-7.227100081096373
 20
3.136570846704688
 30
0.0
 11
-7.170178534185522
 21
3.167908681240367
 31
0.0
  0
LINE
  5
B8
330
1F
100
AcDbEntity
  8
0
100
AcDbLine
 10
-7.170178534185522
 20
3.167908681240367
 30
0.0
 11
-7.165539826474592
 21
3.167908681240367
 31
0.0
  0
LINE
  5
B9
330
1F
100
AcDbEntity
  8
0
100
AcDbLine
 10
-7.165539826474592
 20
3.167908681240367
 30
0.0
 11
-7.165539826474592
 21
3.017044450687534
 31
0.0
  0
LINE
  5
BA
330
1F
100
AcDbEntity
  8
0
100
AcDbLine
 10
-7.165539826474592
 20
3.017044450687534
 30
0.0
 11
-7.173088792124394
 21
2.925934565647647
 31
0.0
  0
LINE
  5
BB
330
1F
100
AcDbEntity
  8
0
100
AcDbLine
 10
-7.173088792124394
 20
2.925934565647647
 30
0.0
 11
-7.195735689073801
 21
2.861523807432507
 31
0.0
  0
LINE
  5
BC
330
1F
100
AcDbEntity
  8
0
100
AcDbLine
 10
-7.195735689073801
 20
2.861523807432507
 30
0.0
 11
-7.235804297426092
 21
2.823227911330433
 31
0.0
  0
LINE
  5
BD
330
1F
100
AcDbEntity
  8
0
100
AcDbLine
 10
-7.235804297426092
 20
2.823227911330433
 30
0.0
 11
-7.29561839728455
 21
2.810462612629741
 31
0.0
  0
LINE
  5
BE
330
1F
100
AcDbEntity
  8
0
100
AcDbLine
 10
-7.140009229073208
 20
2.562309455086202
 30
0.0
 11
-6.736300018292117
 21
2.562309455086202
 31
0.0
  0
LINE
  5
BF
330
1F
100
AcDbEntity
  8
0
100
AcDbLine
 10
-6.736300018292117
 20
2.562309455086202
 30
0.0
 11
-6.768788677259897
 21
2.678374525311421
 31
0.0
  0
LINE
  5
C0
330
1F
100
AcDbEntity
  8
0
100
AcDbLine
 10
-6.768788677259897
 20
2.678374525311421
 30
0.0
 11
-6.775746738826292
 21
2.833904021062079
 31
0.0
  0
LINE
  5
C1
330
1F
100
AcDbEntity
  8
0
100
AcDbLine
 10
-6.775746738826292
 20
2.833904021062079
 30
0.0
 11
-6.775746738826292
 21
3.446744588642849
 31
0.0
  0
LINE
  5
C2
330
1F
100
AcDbEntity
  8
0
100
AcDbLine
 10
-6.775746738826292
 20
3.446744588642849
 30
0.0
 11
-6.784736448140129
 21
3.558460870389071
 31
0.0
  0
LINE
  5
C3
330
1F
100
AcDbEntity
  8
0
100
AcDbLine
 10
-6.784736448140129
 20
3.558460870389071
 30
0.0
 11
-6.811705576081639
 21
3.647545747053242
 31
0.0
  0
LINE
  5
C4
330
1F
100
AcDbEntity
  8
0
100
AcDbLine
 10
-6.811705576081639
 20
3.647545747053242
 30
0.0
 11
-6.855206739615063
 21
3.717188330186626
 31
0.0
  0
LINE
  5
C5
330
1F
100
AcDbEntity
  8
0
100
AcDbLine
 10
-6.855206739615063
 20
3.717188330186626
 30
0.0
 11
-6.913792555704645
 21
3.770577731340488
 31
0.0
  0
LINE
  5
C6
330
1F
100
AcDbEntity
  8
0
100
AcDbLine
 10
-6.913792555704645
 20
3.770577731340488
 30
0.0
 11
-6.986298921174835
 21
3.808878053690379
 31
0.0
  0
LINE
  5
C7
330
1F
100
AcDbEntity
  8
0
100
AcDbLine
 10
-6.986298921174835
 20
3.808878053690379
 30
0.0
 11
-7.071561732850084
 21
3.833253400411845
 31
0.0
  0
LINE
  5
C8
330
1F
100
AcDbEntity
  8
0
100
AcDbLine
 10
-7.071561732850084
 20
3.833253400411845
 30
0.0
 11
-7.272247808817266
 21
3.850666259319099
 31
0.0
  0
LINE
  5
C9
330
1F
100
AcDbEntity
  8
0
100
AcDbLine
 10
-7.272247808817266
 20
3.850666259319099
 30
0.0
 11
-7.427688779611608
 21
3.83557275426731
 31
0.0
  0
LINE
  5
CA
330
1F
100
AcDbEntity
  8
0
100
AcDbLine
 10
-7.427688779611608
 20
3.83557275426731
 30
0.0
 11
-7.58312975040595
 21
3.775189881564525
 31
0.0
  0
LINE
  5
CB
330
1F
100
AcDbEntity
  8
0
100
AcDbLine
 10
-7.58312975040595
 20
3.775189881564525
 30
0.0
 11
-7.649249040277979
 21
3.720614245996035
 31
0.0
  0
LINE
  5
CC
330
1F
100
AcDbEntity
  8
0
100
AcDbLine
 10
-7.649249040277979
 20
3.720614245996035
 30
0.0
 11
-7.70377156087268
 21
3.647466074592558
 31
0.0
  0
LINE
  5
CD
330
1F
100
AcDbEntity
  8
0
100
AcDbLine
 10
-7.70377156087268
 20
3.647466074592558
 30
0.0
 11
-7.740314662839708
 21
3.551385513255557
 31
0.0
  0
LINE
  5
CE
330
1F
100
AcDbEntity
  8
0
100
AcDbLine
 10
-7.740314662839708
 20
3.551385513255557
 30
0.0
 11
-7.752495696828717
 21
3.428012707886495
 31
0.0
  0
LINE
  5
CF
330
1F
100
AcDbEntity
  8
0
100
AcDbLine
 10
-7.752495696828717
 20
3.428012707886495
 30
0.0
 11
-7.39103059520137
 21
3.428012707886495
 31
0.0
  0
LINE
  5
D0
330
1F
100
AcDbEntity
  8
0
100
AcDbLine
 10
-7.39103059520137
 20
3.428012707886495
 30
0.0
 11
-7.382317526376019
 21
3.51157362727658
 31
0.0
  0
LINE
  5
D1
330
1F
100
AcDbEntity
  8
0
100
AcDbLine
 10
-7.382317526376019
 20
3.51157362727658
 30
0.0
 11
-7.360817027610898
 21
3.561942114296177
 31
0.0
  0
LINE
  5
D2
330
1F
100
AcDbEntity
  8
0
100
AcDbLine
 10
-7.360817027610898
 20
3.561942114296177
 30
0.0
 11
-7.324785157266591
 21
3.587271317421942
 31
0.0
  0
LINE
  5
D3
330
1F
100
AcDbEntity
  8
0
100
AcDbLine
 10
-7.324785157266591
 20
3.587271317421942
 30
0.0
 11
-7.272477973703686
 21
3.595714385130531
 31
0.0
  0
LINE
  5
D4
330
1F
100
AcDbEntity
  8
0
100
AcDbLine
 10
-7.272477973703686
 20
3.595714385130531
 30
0.0
 11
-7.225692534290957
 21
3.588454232150708
 31
0.0
  0
LINE
  5
D5
330
1F
100
AcDbEntity
  8
0
100
AcDbLine
 10
-7.225692534290957
 20
3.588454232150708
 30
0.0
 11
-7.192274363281865
 21
3.566673773211239
 31
0.0
  0
LINE
  5
D6
330
1F
100
AcDbEntity
  8
0
100
AcDbLine
 10
-7.192274363281865
 20
3.566673773211239
 30
0.0
 11
-7.17222346067641
 21
3.530373008312125
 31
0.0
  0
LINE
  5
D7
330
1F
100
AcDbEntity
  8
0
100
AcDbLine
 10
-7.17222346067641
 20
3.530373008312125
 30
0.0
 11
-7.165539826474592
 21
3.479551937453365
 31
0.0
  0
LINE
  5
D8
330
1F
100
AcDbEntity
  8
0
100
AcDbLine
 10
-7.165539826474592
 20
3.479551937453365
 30
0.0
 11
-7.172500101164896
 21
3.42814328219706
 31
0.0
  0
LINE
  5
D9
330
1F
100
AcDbEntity
  8
0
100
AcDbLine
 10
-7.172500101164896
 20
3.42814328219706
 30
0.0
 11
-7.193380925235808
 21
3.390097469096577
 31
0.0
  0
LINE
  5
DA
330
1F
100
AcDbEntity
  8
0
100
AcDbLine
 10
-7.193380925235808
 20
3.390097469096577
 30
0.0
 11
-7.288500990796787
 21
3.34246219010322
 31
0.0
  0
LINE
  5
DB
330
1F
100
AcDbEntity
  8
0
100
AcDbLine
 10
-7.288500990796787
 20
3.34246219010322
 30
0.0
 11
-7.453228229508623
 21
3.302962354595255
 31
0.0
  0
LINE
  5
DC
330
1F
100
AcDbEntity
  8
0
100
AcDbLine
 10
-7.453228229508623
 20
3.302962354595255
 30
0.0
 11
-7.620257117084662
 21
3.246040807684405
 31
0.0
  0
LINE
  5
DD
330
1F
100
AcDbEntity
  8
0
100
AcDbLine
 10
-7.620257117084662
 20
3.246040807684405
 30
0.0
 11
-7.726973951922965
 21
3.16472178281301
 31
0.0
  0
LINE
  5
DE
330
1F
100
AcDbEntity
  8
0
100
AcDbLine
 10
-7.726973951922965
 20
3.16472178281301
 30
0.0
 11
-7.783815826373132
 21
3.052038365919041
 31
0.0
  0
LINE
  5
DF
330
1F
100
AcDbEntity
  8
0
100
AcDbLine
 10
-7.783815826373132
 20
3.052038365919041
 30
0.0
 11
-7.801219832784756
 21
2.898704289085007
 31
0.0
  0
LINE
  5
E0
330
1F
100
AcDbEntity
  8
0
100
AcDbLine
 10
-7.801219832784756
 20
2.898704289085007
 30
0.0
 11
-7.782656149445399
 21
2.750000067466272
 31
0.0
  0
LINE
  5
E1
330
1F
100
AcDbEntity
  8
0
100
AcDbLine
 10
-7.782656149445399
 20
2.750000067466272
 30
0.0
 11
-7.722335244212035
 21
2.633828767293474
 31
0.0
  0
LINE
  5
E2
330
1F
100
AcDbEntity
  8
0
100
AcDbLine
 10
-7.722335244212035
 20
2.633828767293474
 30
0.0
 11
-7.674487505323521
 21
2.591139820234244
 31
0.0
  0
LINE
  5
E3
330
1F
100
AcDbEntity
  8
0
100
AcDbLine
 10
-7.674487505323521
 20
2.591139820234244
 30
0.0
 11
-7.614458732445997
 21
2.560645185907471
 31
0.0
  0
LINE
  5
E4
330
1F
100
AcDbEntity
  8
0
100
AcDbLine
 10
-7.614458732445997
 20
2.560645185907471
 30
0.0
 11
-7.453228229508623
 21
2.536247707946926
 31
0.0
  0
LINE
  5
E5
330
1F
100
AcDbEntity
  8
0
100
AcDbLine
 10
-7.453228229508623
 20
2.536247707946926
 30
0.0
 11
-7.361292849251093
 21
2.546717997155139
 31
0.0
  0
LINE
  5
E6
330
1F
100
AcDbEntity
  8
0
100
AcDbLine
 10
-7.361292849251093
 20
2.546717997155139
 30
0.0
 11
-7.280383252302657
 21
2.578128864779778
 31
0.0
  0
LINE
  5
E7
330
1F
100
AcDbEntity
  8
0
100
AcDbLine
 10
-7.280383252302657
 20
2.578128864779778
 30
0.0
 11
-7.215133720126429
 21
2.630480310820841
 31
0.0
  0
LINE
  5
E8
330
1F
100
AcDbEntity
  8
0
100
AcDbLine
 10
-7.215133720126429
 20
2.630480310820841
 30
0.0
 11
-7.170178534185522
 21
2.703772335278331
 31
0.0
  0
LINE
  5
E9
330
1F
100
AcDbEntity
  8
0
100
AcDbLine
 10
-7.170178534185522
 20
2.703772335278331
 30
0.0
 11
-7.165539826474592
 21
2.703772335278331
 31
0.0
  0
LINE
  5
EA
330
1F
100
AcDbEntity
  8
0
100
AcDbLine
 10
-7.165539826474592
 20
2.703772335278331
 30
0.0
 11
-7.15626241105273
 21
2.629561864399069
 31
0.0
  0
LINE
  5
EB
330
1F
100
AcDbEntity
  8
0
100
AcDbLine
 10
-7.15626241105273
 20
2.629561864399069
 30
0.0
 11
-7.140009229073208
 21
2.562309455086202
 31
0.0
  0
LINE
  5
EC
330
1F
100
AcDbEntity
  8
0
100
AcDbLine
 10
-6.680724050717262
 20
3.817805795534794
 30
0.0
 11
-6.383687412296317
 21
2.562309455086202
 31
0.0
  0
LINE
  5
ED
330
1F
100
AcDbEntity
  8
0
100
AcDbLine
 10
-6.383687412296317
 20
2.562309455086202
 30
0.0
 11
-5.891718820068696
 21
2.562309455086202
 31
0.0
  0
LINE
  5
EE
330
1F
100
AcDbEntity
  8
0
100
AcDbLine
 10
-5.891718820068696
 20
2.562309455086202
 30
0.0
 11
-5.585387061234626
 21
3.817805795534794
 31
0.0
  0
LINE
  5
EF
330
1F
100
AcDbEntity
  8
0
100
AcDbLine
 10
-5.585387061234626
 20
3.817805795534794
 30
0.0
 11
-6.017034748228882
 21
3.817805795534794
 31
0.0
  0
LINE
  5
F0
330
1F
100
AcDbEntity
  8
0
100
AcDbLine
 10
-6.017034748228882
 20
3.817805795534794
 30
0.0
 11
-6.133055555975944
 21
2.915063701012107
 31
0.0
  0
LINE
  5
F1
330
1F
100
AcDbEntity
  8
0
100
AcDbLine
 10
-6.133055555975944
 20
2.915063701012107
 30
0.0
 11
-6.137694263686876
 21
2.915063701012107
 31
0.0
  0
LINE
  5
F2
330
1F
100
AcDbEntity
  8
0
100
AcDbLine
 10
-6.137694263686876
 20
2.915063701012107
 30
0.0
 11
-6.256052130280665
 21
3.817805795534794
 31
0.0
  0
LINE
  5
F3
330
1F
100
AcDbEntity
  8
0
100
AcDbLine
 10
-6.256052130280665
 20
3.817805795534794
 30
0.0
 11
-6.680724050717262
 21
3.817805795534794
 31
0.0
  0
LINE
  5
F4
330
1F
100
AcDbEntity
  8
0
100
AcDbLine
 10
-4.906099661443461
 20
3.402340470555007
 30
0.0
 11
-4.906099661443461
 21
3.346428108146153
 31
0.0
  0
LINE
  5
F5
330
1F
100
AcDbEntity
  8
0
100
AcDbLine
 10
-4.906099661443461
 20
3.346428108146153
 30
0.0
 11
-5.134989788492753
 21
3.346428108146153
 31
0.0
  0
LINE
  5
F6
330
1F
100
AcDbEntity
  8
0
100
AcDbLine
 10
-5.134989788492753
 20
3.346428108146153
 30
0.0
 11
-5.134989788492753
 21
3.402340470555007
 31
0.0
  0
LINE
  5
F7
330
1F
100
AcDbEntity
  8
0
100
AcDbLine
 10
-5.134989788492753
 20
3.402340470555007
 30
0.0
 11
-5.11071624547105
 21
3.549114848126065
 31
0.0
  0
LINE
  5
F8
330
1F
100
AcDbEntity
  8
0
100
AcDbLine
 10
-5.11071624547105
 20
3.549114848126065
 30
0.0
 11
-5.076324299942489
 21
3.584064500879415
 31
0.0
  0
LINE
  5
F9
330
1F
100
AcDbEntity
  8
0
100
AcDbLine
 10
-5.076324299942489
 20
3.584064500879415
 30
0.0
 11
-5.021695549400208
 21
3.595714385130531
 31
0.0
  0
LINE
  5
FA
330
1F
100
AcDbEntity
  8
0
100
AcDbLine
 10
-5.021695549400208
 20
3.595714385130531
 30
0.0
 11
-4.965340562209778
 21
3.584064500879415
 31
0.0
  0
LINE
  5
FB
330
1F
100
AcDbEntity
  8
0
100
AcDbLine
 10
-4.965340562209778
 20
3.584064500879415
 30
0.0
 11
-4.930373204465164
 21
3.549114848126065
 31
0.0
  0
LINE
  5
FC
330
1F
100
AcDbEntity
  8
0
100
AcDbLine
 10
-4.930373204465164
 20
3.549114848126065
 30
0.0
 11
-4.906099661443461
 21
3.402340470555007
 31
0.0
  0
LINE
  5
FD
330
1F
100
AcDbEntity
  8
0
100
AcDbLine
 10
-5.134989788492753
 20
3.118671100537699
 30
0.0
 11
-4.516306573795163
 21
3.118671100537699
 31
0.0
  0
LINE
  5
FE
330
1F
100
AcDbEntity
  8
0
100
AcDbLine
 10
-4.516306573795163
 20
3.118671100537699
 30
0.0
 11
-4.516306573795163
 21
3.246483432465982
 31
0.0
  0
LINE
  5
FF
330
1F
100
AcDbEntity
  8
0
100
AcDbLine
 10
-4.516306573795163
 20
3.246483432465982
 30
0.0
 11
-4.524134393057358
 21
3.404203920885448
 31
0.0
  0
LINE
  5
100
330
1F
100
AcDbEntity
  8
0
100
AcDbLine
 10
-4.524134393057358
 20
3.404203920885448
 30
0.0
 11
-4.547617850843945
 21
3.533463635849489
 31
0.0
  0
LINE
  5
101
330
1F
100
AcDbEntity
  8
0
100
AcDbLine
 10
-4.547617850843945
 20
3.533463635849489
 30
0.0
 11
-4.587049079510765
 21
3.637453902033278
 31
0.0
  0
LINE
  5
102
330
1F
100
AcDbEntity
  8
0
100
AcDbLine
 10
-4.587049079510765
 20
3.637453902033278
 30
0.0
 11
-4.64272021141366
 21
3.719366044111986
 31
0.0
  0
LINE
  5
103
330
1F
100
AcDbEntity
  8
0
100
AcDbLine
 10
-4.64272021141366
 20
3.719366044111986
 30
0.0
 11
-4.714046981840945
 21
3.780074246029231
 31
0.0
  0
LINE
  5
104
330
1F
100
AcDbEntity
  8
0
100
AcDbLine
 10
-4.714046981840945
 20
3.780074246029231
 30
0.0
 11
-4.800445126080942
 21
3.820452691728627
 31
0.0
  0
LINE
  5
105
330
1F
100
AcDbEntity
  8
0
100
AcDbLine
 10
-4.800445126080942
 20
3.820452691728627
 30
0.0
 11
-4.902206776489488
 21
3.843112867421481
 31
0.0
  0
LINE
  5
106
330
1F
100
AcDbEntity
  8
0
100
AcDbLine
 10
-4.902206776489488
 20
3.843112867421481
 30
0.0
 11
-5.019624065422426
 21
3.850666259319099
 31
0.0
  0
LINE
  5
107
330
1F
100
AcDbEntity
  8
0
100
AcDbLine
 10
-5.019624065422426
 20
3.850666259319099
 30
0.0
 11
-5.150970756231604
 21
3.841667697509631
 31
0.0
  0
LINE
  5
108
330
1F
100
AcDbEntity
  8
0
100
AcDbLine
 10
-5.150970756231604
 20
3.841667697509631
 30
0.0
 11
-5.262014248309828
 21
3.814672012081226
 31
0.0
  0
LINE
  5
109
330
1F
100
AcDbEntity
  8
0
100
AcDbLine
 10
-5.262014248309828
 20
3.814672012081226
 30
0.0
 11
-5.353920857956555
 21
3.767937474518379
 31
0.0
  0
LINE
  5
10A
330
1F
100
AcDbEntity
  8
0
100
AcDbLine
 10
-5.353920857956555
 20
3.767937474518379
 30
0.0
 11
-5.427856901471239
 21
3.699722356305582
 31
0.0
  0
LINE
  5
10B
330
1F
100
AcDbEntity
  8
0
100
AcDbLine
 10
-5.427856901471239
 20
3.699722356305582
 30
0.0
 11
-5.484107871838
 21
3.609154686623128
 31
0.0
  0
LINE
  5
10C
330
1F
100
AcDbEntity
  8
0
100
AcDbLine
 10
-5.484107871838
 20
3.609154686623128
 30
0.0
 11
-5.522959262040954
 21
3.495362494651308
 31
0.0
  0
LINE
  5
10D
330
1F
100
AcDbEntity
  8
0
100
AcDbLine
 10
-5.522959262040954
 20
3.495362494651308
 30
0.0
 11
-5.545572962131742
 21
3.356024213410751
 31
0.0
  0
LINE
  5
10E
330
1F
100
AcDbEntity
  8
0
100
AcDbLine
 10
-5.545572962131742
 20
3.356024213410751
 30
0.0
 11
-5.553110862162005
 21
3.188818275922082
 31
0.0
  0
LINE
  5
10F
330
1F
100
AcDbEntity
  8
0
100
AcDbLine
 10
-5.553110862162005
 20
3.188818275922082
 30
0.0
 11
-5.526429440328521
 21
2.88459341104832
 31
0.0
  0
LINE
  5
110
330
1F
100
AcDbEntity
  8
0
100
AcDbLine
 10
-5.526429440328521
 20
2.88459341104832
 30
0.0
 11
-5.490758309181199
 21
2.771091138308434
 31
0.0
  0
LINE
  5
111
330
1F
100
AcDbEntity
  8
0
100
AcDbLine
 10
-5.490758309181199
 20
2.771091138308434
 30
0.0
 11
-5.437107759406206
 21
2.681393226321779
 31
0.0
  0
LINE
  5
112
330
1F
100
AcDbEntity
  8
0
100
AcDbLine
 10
-5.437107759406206
 20
2.681393226321779
 30
0.0
 11
-5.364605820183832
 21
2.614627704268648
 31
0.0
  0
LINE
  5
113
330
1F
100
AcDbEntity
  8
0
100
AcDbLine
 10
-5.364605820183832
 20
2.614627704268648
 30
0.0
 11
-5.272380520694369
 21
2.569922601329333
 31
0.0
  0
LINE
  5
114
330
1F
100
AcDbEntity
  8
0
100
AcDbLine
 10
-5.272380520694369
 20
2.569922601329333
 30
0.0
 11
-5.158116933330171
 21
2.544666431292528
 31
0.0
  0
LINE
  5
115
330
1F
100
AcDbEntity
  8
0
100
AcDbLine
 10
-5.158116933330171
 20
2.544666431292528
 30
0.0
 11
-5.019500130483585
 21
2.536247707946926
 31
0.0
  0
LINE
  5
116
330
1F
100
AcDbEntity
  8
0
100
AcDbLine
 10
-5.019500130483585
 20
2.536247707946926
 30
0.0
 11
-4.796187075682167
 21
2.565527337248269
 31
0.0
  0
LINE
  5
117
330
1F
100
AcDbEntity
  8
0
100
AcDbLine
 10
-4.796187075682167
 20
2.565527337248269
 30
0.0
 11
-4.711937874756729
 21
2.602126873874949
 31
0.0
  0
LINE
  5
118
330
1F
100
AcDbEntity
  8
0
100
AcDbLine
 10
-4.711937874756729
 20
2.602126873874949
 30
0.0
 11
-4.645960224814807
 21
2.6533662251523
 31
0.0
  0
LINE
  5
119
330
1F
100
AcDbEntity
  8
0
100
AcDbLine
 10
-4.645960224814807
 20
2.6533662251523
 30
0.0
 11
-4.595933665438977
 21
2.719109283959987
 31
0.0
  0
LINE
  5
11A
330
1F
100
AcDbEntity
  8
0
100
AcDbLine
 10
-4.595933665438977
 20
2.719109283959987
 30
0.0
 11
-4.559537736211825
 21
2.799219943177676
 31
0.0
  0
LINE
  5
11B
330
1F
100
AcDbEntity
  8
0
100
AcDbLine
 10
-4.559537736211825
 20
2.799219943177676
 30
0.0
 11
-4.527637768203543
 21
3.002544062843059
 31
0.0
  0
LINE
  5
11C
330
1F
100
AcDbEntity
  8
0
100
AcDbLine
 10
-4.527637768203543
 20
3.002544062843059
 30
0.0
 11
-4.903833422561784
 21
3.002544062843059
 31
0.0
  0
LINE
  5
11D
330
1F
100
AcDbEntity
  8
0
100
AcDbLine
 10
-4.903833422561784
 20
3.002544062843059
 30
0.0
 11
-4.911634684337087
 21
2.895504111914203
 31
0.0
  0
LINE
  5
11E
330
1F
100
AcDbEntity
  8
0
100
AcDbLine
 10
-4.911634684337087
 20
2.895504111914203
 30
0.0
 11
-4.93503846966299
 21
2.829654823158936
 31
0.0
  0
LINE
  5
11F
330
1F
100
AcDbEntity
  8
0
100
AcDbLine
 10
-4.93503846966299
 20
2.829654823158936
 30
0.0
 11
-4.972314115643528
 21
2.795714354907584
 31
0.0
  0
LINE
  5
120
330
1F
100
AcDbEntity
  8
0
100
AcDbLine
 10
-4.972314115643528
 20
2.795714354907584
 30
0.0
 11
-5.021730959382734
 21
2.784400865490465
 31
0.0
  0
LINE
  5
121
330
1F
100
AcDbEntity
  8
0
100
AcDbLine
 10
-5.021730959382734
 20
2.784400865490465
 30
0.0
 11
-5.063331049479284
 21
2.792815162588251
 31
0.0
  0
LINE
  5
122
330
1F
100
AcDbEntity
  8
0
100
AcDbLine
 10
-5.063331049479284
 20
2.792815162588251
 30
0.0
 11
-5.100314563103982
 21
2.818058053881609
 31
0.0
  0
LINE
  5
123
330
1F
100
AcDbEntity
  8
0
100
AcDbLine
 10
-5.100314563103982
 20
2.818058053881609
 30
0.0
 11
-5.12632098214556
 21
2.868835968824166
 31
0.0
  0
LINE
  5
124
330
1F
100
AcDbEntity
  8
0
100
AcDbLine
 10
-5.12632098214556
 20
2.868835968824166
 30
0.0
 11
-5.134989788492753
 21
2.953855336869548
 31
0.0
  0
LINE
  5
125
330
1F
100
AcDbEntity
  8
0
100
AcDbLine
 10
-5.134989788492753
 20
2.953855336869548
 30
0.0
 11
-5.134989788492753
 21
3.118671100537699
 31
0.0
  0
LINE
  5
126
330
1F
100
AcDbEntity
  8
0
100
AcDbLine
 10
-9.156441659540741
 20
5.774069850946103
 30
0.0
 11
-10.1471154257839
 21
3.382371808594626
 31
0.0
  0
LINE
  5
127
330
1F
100
AcDbEntity
  8
0
100
AcDbLine
 10
-3.38237180859463
 20
3.382371808594626
 30
0.0
 11
-4.373045574837788
 21
5.774069850946103
 31
0.0
  0
LINE
  5
128
330
1F
100
AcDbEntity
  8
0
100
AcDbLine
 10
-6.764743617189264
 20
6.764743617189261
 30
0.0
 11
-9.156441659540741
 21
5.774069850946103
 31
0.0
  0
LINE
  5
129
330
1F
100
AcDbEntity
  8
0
100
AcDbLine
 10
-4.373045574837788
 20
5.774069850946103
 30
0.0
 11
-6.764743617189264
 21
6.764743617189261
 31
0.0
  0
LINE
  5
12A
330
1F
100
AcDbEntity
  8
0
100
AcDbLine
 10
-9.156441659540741
 20
0.99067376624315
 30
0.0
 11
-6.764743617189264
 21
-0.0000000000000081
 31
0.0
  0
LINE
  5
12B
330
1F
100
AcDbEntity
  8
0
100
AcDbLine
 10
-4.373045574837788
 20
0.99067376624315
 30
0.0
 11
-3.38237180859463
 21
3.382371808594626
 31
0.0
  0
LINE
  5
12C
330
1F
100
AcDbEntity
  8
0
100
AcDbLine
 10
-6.764743617189264
 20
-0.0000000000000081
 30
0.0
 11
-4.373045574837788
 21
0.99067376624315
 31
0.0
  0
LINE
  5
12D
330
1F
100
AcDbEntity
  8
0
100
AcDbLine
 10
-10.1471154257839
 20
3.382371808594626
 30
0.0
 11
-9.156441659540741
 21
0.99067376624315
 31
0.0
  0
LINE
  5
12E
330
1F
100
AcDbEntity
  8
0
100
AcDbLine
 10
-8.444257829064576
 20
-2.53999642529236
 30
0.0
 11
-8.444257829064576
 21
-4.197444897614628
 31
0.0
  0
LINE
  5
12F
330
1F
100
AcDbEntity
  8
0
100
AcDbLine
 10
-8.444257829064576
 20
-4.197444897614628
 30
0.0
 11
-8.012323582857473
 21
-4.197444897614628
 31
0.0
  0
LINE
  5
130
330
1F
100
AcDbEntity
  8
0
100
AcDbLine
 10
-8.012323582857473
 20
-4.197444897614628
 30
0.0
 11
-8.012323582857473
 21
-3.514966114893694
 31
0.0
  0
LINE
  5
131
330
1F
100
AcDbEntity
  8
0
100
AcDbLine
 10
-8.012323582857473
 20
-3.514966114893694
 30
0.0
 11
-7.496886300371651
 21
-3.514966114893694
 31
0.0
  0
LINE
  5
132
330
1F
100
AcDbEntity
  8
0
100
AcDbLine
 10
-7.496886300371651
 20
-3.514966114893694
 30
0.0
 11
-7.496886300371651
 21
-3.175994094904393
 31
0.0
  0
LINE
  5
133
330
1F
100
AcDbEntity
  8
0
100
AcDbLine
 10
-7.496886300371651
 20
-3.175994094904393
 30
0.0
 11
-8.012323582857473
 21
-3.175994094904393
 31
0.0
  0
LINE
  5
134
330
1F
100
AcDbEntity
  8
0
100
AcDbLine
 10
-8.012323582857473
 20
-3.175994094904393
 30
0.0
 11
-8.012323582857473
 21
-2.892572673508656
 31
0.0
  0
LINE
  5
135
330
1F
100
AcDbEntity
  8
0
100
AcDbLine
 10
-8.012323582857473
 20
-2.892572673508656
 30
0.0
 11
-7.462060893217649
 21
-2.892572673508656
 31
0.0
  0
LINE
  5
136
330
1F
100
AcDbEntity
  8
0
100
AcDbLine
 10
-7.462060893217649
 20
-2.892572673508656
 30
0.0
 11
-7.462060893217649
 21
-2.53999642529236
 31
0.0
  0
LINE
  5
137
330
1F
100
AcDbEntity
  8
0
100
AcDbLine
 10
-7.462060893217649
 20
-2.53999642529236
 30
0.0
 11
-8.444257829064576
 21
-2.53999642529236
 31
0.0
  0
LINE
  5
138
330
1F
100
AcDbEntity
  8
0
100
AcDbLine
 10
-7.3457163997347
 20
-2.941321157988723
 30
0.0
 11
-7.3457163997347
 21
-3.889029249619554
 31
0.0
  0
LINE
  5
139
330
1F
100
AcDbEntity
  8
0
100
AcDbLine
 10
-7.3457163997347
 20
-3.889029249619554
 30
0.0
 11
-7.320226185647921
 21
-4.055114202557456
 31
0.0
  0
LINE
  5
13A
330
1F
100
AcDbEntity
  8
0
100
AcDbLine
 10
-7.320226185647921
 20
-4.055114202557456
 30
0.0
 11
-7.250708225131198
 21
-4.159643565535972
 31
0.0
  0
LINE
  5
13B
330
1F
100
AcDbEntity
  8
0
100
AcDbLine
 10
-7.250708225131198
 20
-4.159643565535972
 30
0.0
 11
-7.147587112340243
 21
-4.21074799058139
 31
0.0
  0
LINE
  5
13C
330
1F
100
AcDbEntity
  8
0
100
AcDbLine
 10
-7.147587112340243
 20
-4.21074799058139
 30
0.0
 11
-7.01896692854309
 21
-4.223519668383036
 31
0.0
  0
LINE
  5
13D
330
1F
100
AcDbEntity
  8
0
100
AcDbLine
 10
-7.01896692854309
 20
-4.223519668383036
 30
0.0
 11
-6.915697462351873
 21
-4.212312343973704
 31
0.0
  0
LINE
  5
13E
330
1F
100
AcDbEntity
  8
0
100
AcDbLine
 10
-6.915697462351873
 20
-4.212312343973704
 30
0.0
 11
-6.830677678622716
 21
-4.178690370745707
 31
0.0
  0
LINE
  5
13F
330
1F
100
AcDbEntity
  8
0
100
AcDbLine
 10
-6.830677678622716
 20
-4.178690370745707
 30
0.0
 11
-6.763907577355619
 21
-4.122653748699046
 31
0.0
  0
LINE
  5
140
330
1F
100
AcDbEntity
  8
0
100
AcDbLine
 10
-6.763907577355619
 20
-4.122653748699046
 30
0.0
 11
-6.715387158550581
 21
-4.04420247783372
 31
0.0
  0
LINE
  5
141
330
1F
100
AcDbEntity
  8
0
100
AcDbLine
 10
-6.715387158550581
 20
-4.04420247783372
 30
0.0
 11
-6.710515852870342
 21
-4.04420247783372
 31
0.0
  0
LINE
  5
142
330
1F
100
AcDbEntity
  8
0
100
AcDbLine
 10
-6.710515852870342
 20
-4.04420247783372
 30
0.0
 11
-6.71085241580825
 21
-4.197444897614628
 31
0.0
  0
LINE
  5
143
330
1F
100
AcDbEntity
  8
0
100
AcDbLine
 10
-6.71085241580825
 20
-4.197444897614628
 30
0.0
 11
-6.306126626055138
 21
-4.197444897614628
 31
0.0
  0
LINE
  5
144
330
1F
100
AcDbEntity
  8
0
100
AcDbLine
 10
-6.306126626055138
 20
-4.197444897614628
 30
0.0
 11
-6.306126626055138
 21
-2.941321157988723
 31
0.0
  0
LINE
  5
145
330
1F
100
AcDbEntity
  8
0
100
AcDbLine
 10
-6.306126626055138
 20
-2.941321157988723
 30
0.0
 11
-6.724456644035246
 21
-2.941321157988723
 31
0.0
  0
LINE
  5
146
330
1F
100
AcDbEntity
  8
0
100
AcDbLine
 10
-6.724456644035246
 20
-2.941321157988723
 30
0.0
 11
-6.724456644035246
 21
-3.769992252633345
 31
0.0
  0
LINE
  5
147
330
1F
100
AcDbEntity
  8
0
100
AcDbLine
 10
-6.724456644035246
 20
-3.769992252633345
 30
0.0
 11
-6.747520062201323
 21
-3.88374166872664
 31
0.0
  0
LINE
  5
148
330
1F
100
AcDbEntity
  8
0
100
AcDbLine
 10
-6.747520062201323
 20
-3.88374166872664
 30
0.0
 11
-6.778652133957761
 21
-3.909854081402577
 31
0.0
  0
LINE
  5
149
330
1F
100
AcDbEntity
  8
0
100
AcDbLine
 10
-6.778652133957761
 20
-3.909854081402577
 30
0.0
 11
-6.825921512894919
 21
-3.918558218961223
 31
0.0
  0
LINE
  5
14A
330
1F
100
AcDbEntity
  8
0
100
AcDbLine
 10
-6.825921512894919
 20
-3.918558218961223
 30
0.0
 11
-6.873190891832077
 21
-3.909854081402577
 31
0.0
  0
LINE
  5
14B
330
1F
100
AcDbEntity
  8
0
100
AcDbLine
 10
-6.873190891832077
 20
-3.909854081402577
 30
0.0
 11
-6.904322963588513
 21
-3.88374166872664
 31
0.0
  0
LINE
  5
14C
330
1F
100
AcDbEntity
  8
0
100
AcDbLine
 10
-6.904322963588513
 20
-3.88374166872664
 30
0.0
 11
-6.927386381754593
 21
-3.769992252633345
 31
0.0
  0
LINE
  5
14D
330
1F
100
AcDbEntity
  8
0
100
AcDbLine
 10
-6.927386381754593
 20
-3.769992252633345
 30
0.0
 11
-6.927386381754593
 21
-2.941321157988723
 31
0.0
  0
LINE
  5
14E
330
1F
100
AcDbEntity
  8
0
100
AcDbLine
 10
-6.927386381754593
 20
-2.941321157988723
 30
0.0
 11
-7.3457163997347
 21
-2.941321157988723
 31
0.0
  0
LINE
  5
14F
330
1F
100
AcDbEntity
  8
0
100
AcDbLine
 10
-6.138341144588861
 20
-2.941321157988723
 30
0.0
 11
-6.138341144588861
 21
-4.197444897614628
 31
0.0
  0
LINE
  5
150
330
1F
100
AcDbEntity
  8
0
100
AcDbLine
 10
-6.138341144588861
 20
-4.197444897614628
 30
0.0
 11
-5.720011126608754
 21
-4.197444897614628
 31
0.0
  0
LINE
  5
151
330
1F
100
AcDbEntity
  8
0
100
AcDbLine
 10
-5.720011126608754
 20
-4.197444897614628
 30
0.0
 11
-5.720011126608754
 21
-3.367799541833957
 31
0.0
  0
LINE
  5
152
330
1F
100
AcDbEntity
  8
0
100
AcDbLine
 10
-5.720011126608754
 20
-3.367799541833957
 30
0.0
 11
-5.696947708442676
 21
-3.25393498578822
 31
0.0
  0
LINE
  5
153
330
1F
100
AcDbEntity
  8
0
100
AcDbLine
 10
-5.696947708442676
 20
-3.25393498578822
 30
0.0
 11
-5.665815636686238
 21
-3.227789359664464
 31
0.0
  0
LINE
  5
154
330
1F
100
AcDbEntity
  8
0
100
AcDbLine
 10
-5.665815636686238
 20
-3.227789359664464
 30
0.0
 11
-5.618546257749081
 21
-3.219074150956545
 31
0.0
  0
LINE
  5
155
330
1F
100
AcDbEntity
  8
0
100
AcDbLine
 10
-5.618546257749081
 20
-3.219074150956545
 30
0.0
 11
-5.571276878811923
 21
-3.227789359664464
 31
0.0
  0
LINE
  5
156
330
1F
100
AcDbEntity
  8
0
100
AcDbLine
 10
-5.571276878811923
 20
-3.227789359664464
 30
0.0
 11
-5.540144807055484
 21
-3.25393498578822
 31
0.0
  0
LINE
  5
157
330
1F
100
AcDbEntity
  8
0
100
AcDbLine
 10
-5.540144807055484
 20
-3.25393498578822
 30
0.0
 11
-5.517081388889407
 21
-3.367799541833957
 31
0.0
  0
LINE
  5
158
330
1F
100
AcDbEntity
  8
0
100
AcDbLine
 10
-5.517081388889407
 20
-3.367799541833957
 30
0.0
 11
-5.517081388889407
 21
-4.197444897614628
 31
0.0
  0
LINE
  5
159
330
1F
100
AcDbEntity
  8
0
100
AcDbLine
 10
-5.517081388889407
 20
-4.197444897614628
 30
0.0
 11
-5.098751370909299
 21
-4.197444897614628
 31
0.0
  0
LINE
  5
15A
330
1F
100
AcDbEntity
  8
0
100
AcDbLine
 10
-5.098751370909299
 20
-4.197444897614628
 30
0.0
 11
-5.098751370909299
 21
-3.249860802855657
 31
0.0
  0
LINE
  5
15B
330
1F
100
AcDbEntity
  8
0
100
AcDbLine
 10
-5.098751370909299
 20
-3.249860802855657
 30
0.0
 11
-5.124241584996079
 21
-3.082633307312753
 31
0.0
  0
LINE
  5
15C
330
1F
100
AcDbEntity
  8
0
100
AcDbLine
 10
-5.124241584996079
 20
-3.082633307312753
 30
0.0
 11
-5.193759545512802
 21
-2.978112801253657
 31
0.0
  0
LINE
  5
15D
330
1F
100
AcDbEntity
  8
0
100
AcDbLine
 10
-5.193759545512802
 20
-2.978112801253657
 30
0.0
 11
-5.296880658303756
 21
-2.92353646379614
 31
0.0
  0
LINE
  5
15E
330
1F
100
AcDbEntity
  8
0
100
AcDbLine
 10
-5.296880658303756
 20
-2.92353646379614
 30
0.0
 11
-5.425500842100909
 21
-2.908444273106817
 31
0.0
  0
LINE
  5
15F
330
1F
100
AcDbEntity
  8
0
100
AcDbLine
 10
-5.425500842100909
 20
-2.908444273106817
 30
0.0
 11
-5.527900115959246
 21
-2.920034659281004
 31
0.0
  0
LINE
  5
160
330
1F
100
AcDbEntity
  8
0
100
AcDbLine
 10
-5.527900115959246
 20
-2.920034659281004
 30
0.0
 11
-5.612629835577445
 21
-2.954805817803567
 31
0.0
  0
LINE
  5
161
330
1F
100
AcDbEntity
  8
0
100
AcDbLine
 10
-5.612629835577445
 20
-2.954805817803567
 30
0.0
 11
-5.679690000955502
 21
-3.012757748674503
 31
0.0
  0
LINE
  5
162
330
1F
100
AcDbEntity
  8
0
100
AcDbLine
 10
-5.679690000955502
 20
-3.012757748674503
 30
0.0
 11
-5.729080612093417
 21
-3.093890451893815
 31
0.0
  0
LINE
  5
163
330
1F
100
AcDbEntity
  8
0
100
AcDbLine
 10
-5.729080612093417
 20
-3.093890451893815
 30
0.0
 11
-5.733951917773656
 21
-3.093890451893815
 31
0.0
  0
LINE
  5
164
330
1F
100
AcDbEntity
  8
0
100
AcDbLine
 10
-5.733951917773656
 20
-3.093890451893815
 30
0.0
 11
-5.733951917773656
 21
-2.941321157988723
 31
0.0
  0
LINE
  5
165
330
1F
100
AcDbEntity
  8
0
100
AcDbLine
 10
-5.733951917773656
 20
-2.941321157988723
 30
0.0
 11
-6.138341144588861
 21
-2.941321157988723
 31
0.0
  0
LINE
  5
166
330
1F
100
AcDbEntity
  8
0
100
AcDbLine
 10
-10.1471154257839
 20
-3.382371808594642
 30
0.0
 11
-9.156441659540741
 21
-5.774069850946119
 31
0.0
  0
LINE
  5
167
330
1F
100
AcDbEntity
  8
0
100
AcDbLine
 10
-9.156441659540741
 20
-0.9906737662431659
 30
0.0
 11
-10.1471154257839
 21
-3.382371808594642
 31
0.0
  0
LINE
  5
168
330
1F
100
AcDbEntity
  8
0
100
AcDbLine
 10
-4.373045574837788
 20
-5.774069850946119
 30
0.0
 11
-3.38237180859463
 21
-3.382371808594642
 31
0.0
  0
LINE
  5
169
330
1F
100
AcDbEntity
  8
0
100
AcDbLine
 10
-9.156441659540741
 20
-5.774069850946119
 30
0.0
 11
-6.764743617189264
 21
-6.764743617189277
 31
0.0
  0
LINE
  5
16A
330
1F
100
AcDbEntity
  8
0
100
AcDbLine
 10
-4.373045574837788
 20
-0.9906737662431659
 30
0.0
 11
-6.764743617189264
 21
-0.0000000000000081
 31
0.0
  0
LINE
  5
16B
330
1F
100
AcDbEntity
  8
0
100
AcDbLine
 10
-6.764743617189264
 20
-0.0000000000000081
 30
0.0
 11
-9.156441659540741
 21
-0.9906737662431659
 31
0.0
  0
LINE
  5
16C
330
1F
100
AcDbEntity
  8
0
100
AcDbLine
 10
-3.38237180859463
 20
-3.382371808594642
 30
0.0
 11
-4.373045574837788
 21
-0.9906737662431659
 31
0.0
  0
LINE
  5
16D
330
1F
100
AcDbEntity
  8
0
100
AcDbLine
 10
-6.764743617189264
 20
-6.764743617189277
 30
0.0
 11
-4.373045574837788
 21
-5.774069850946119
 31
0.0
  0
LINE
  5
16E
330
1F
100
AcDbEntity
  8
0
100
AcDbLine
 10
-2.013750670232746
 20
4.224905318316892
 30
0.0
 11
-2.013750670232746
 21
2.567456845994624
 31
0.0
  0
LINE
  5
16F
330
1F
100
AcDbEntity
  8
0
100
AcDbLine
 10
-2.013750670232746
 20
2.567456845994624
 30
0.0
 11
-1.581816424025644
 21
2.567456845994624
 31
0.0
  0
LINE
  5
170
330
1F
100
AcDbEntity
  8
0
100
AcDbLine
 10
-1.581816424025644
 20
2.567456845994624
 30
0.0
 11
-1.581816424025644
 21
3.249935628715558
 31
0.0
  0
LINE
  5
171
330
1F
100
AcDbEntity
  8
0
100
AcDbLine
 10
-1.581816424025644
 20
3.249935628715558
 30
0.0
 11
-1.066379141539822
 21
3.249935628715558
 31
0.0
  0
LINE
  5
172
330
1F
100
AcDbEntity
  8
0
100
AcDbLine
 10
-1.066379141539822
 20
3.249935628715558
 30
0.0
 11
-1.066379141539822
 21
3.588907648704859
 31
0.0
  0
LINE
  5
173
330
1F
100
AcDbEntity
  8
0
100
AcDbLine
 10
-1.066379141539822
 20
3.588907648704859
 30
0.0
 11
-1.581816424025644
 21
3.588907648704859
 31
0.0
  0
LINE
  5
174
330
1F
100
AcDbEntity
  8
0
100
AcDbLine
 10
-1.581816424025644
 20
3.588907648704859
 30
0.0
 11
-1.581816424025644
 21
3.872329070100596
 31
0.0
  0
LINE
  5
175
330
1F
100
AcDbEntity
  8
0
100
AcDbLine
 10
-1.581816424025644
 20
3.872329070100596
 30
0.0
 11
-1.031553734385821
 21
3.872329070100596
 31
0.0
  0
LINE
  5
176
330
1F
100
AcDbEntity
  8
0
100
AcDbLine
 10
-1.031553734385821
 20
3.872329070100596
 30
0.0
 11
-1.031553734385821
 21
4.224905318316892
 31
0.0
  0
LINE
  5
177
330
1F
100
AcDbEntity
  8
0
100
AcDbLine
 10
-1.031553734385821
 20
4.224905318316892
 30
0.0
 11
-2.013750670232746
 21
4.224905318316892
 31
0.0
  0
LINE
  5
178
330
1F
100
AcDbEntity
  8
0
100
AcDbLine
 10
-0.9265460977587006
 20
3.823580585620529
 30
0.0
 11
-0.9265460977587006
 21
2.567456845994624
 31
0.0
  0
LINE
  5
179
330
1F
100
AcDbEntity
  8
0
100
AcDbLine
 10
-0.9265460977587006
 20
2.567456845994624
 30
0.0
 11
-0.509349765464176
 21
2.567456845994624
 31
0.0
  0
LINE
  5
17A
330
1F
100
AcDbEntity
  8
0
100
AcDbLine
 10
-0.509349765464176
 20
2.567456845994624
 30
0.0
 11
-0.509349765464176
 21
3.252574990702306
 31
0.0
  0
LINE
  5
17B
330
1F
100
AcDbEntity
  8
0
100
AcDbLine
 10
-0.509349765464176
 20
3.252574990702306
 30
0.0
 11
-0.4939675106638932
 21
3.358829238737596
 31
0.0
  0
LINE
  5
17C
330
1F
100
AcDbEntity
  8
0
100
AcDbLine
 10
-0.4939675106638932
 20
3.358829238737596
 30
0.0
 11
-0.4478207462630454
 21
3.426764024908242
 31
0.0
  0
LINE
  5
17D
330
1F
100
AcDbEntity
  8
0
100
AcDbLine
 10
-0.4478207462630454
 20
3.426764024908242
 30
0.0
 11
-0.3738145418309385
 21
3.463345316336984
 31
0.0
  0
LINE
  5
17E
330
1F
100
AcDbEntity
  8
0
100
AcDbLine
 10
-0.3738145418309385
 20
3.463345316336984
 30
0.0
 11
-0.2748539669368785
 21
3.475539080146564
 31
0.0
  0
LINE
  5
17F
330
1F
100
AcDbEntity
  8
0
100
AcDbLine
 10
-0.2748539669368785
 20
3.475539080146564
 30
0.0
 11
-0.2237672557302969
 21
3.473271708775399
 31
0.0
  0
LINE
  5
180
330
1F
100
AcDbEntity
  8
0
100
AcDbLine
 10
-0.2237672557302969
 20
3.473271708775399
 30
0.0
 11
-0.170360031636038
 21
3.466469594661901
 31
0.0
  0
LINE
  5
181
330
1F
100
AcDbEntity
  8
0
100
AcDbLine
 10
-0.170360031636038
 20
3.466469594661901
 30
0.0
 11
-0.170360031636038
 21
3.856457470502435
 31
0.0
  0
LINE
  5
182
330
1F
100
AcDbEntity
  8
0
100
AcDbLine
 10
-0.170360031636038
 20
3.856457470502435
 30
0.0
 11
-0.2376903330563626
 21
3.856457470502435
 31
0.0
  0
LINE
  5
183
330
1F
100
AcDbEntity
  8
0
100
AcDbLine
 10
-0.2376903330563626
 20
3.856457470502435
 30
0.0
 11
-0.3265008782966878
 21
3.841650915464362
 31
0.0
  0
LINE
  5
184
330
1F
100
AcDbEntity
  8
0
100
AcDbLine
 10
-0.3265008782966878
 20
3.841650915464362
 30
0.0
 11
-0.4071851999704316
 21
3.797231250350144
 31
0.0
  0
LINE
  5
185
330
1F
100
AcDbEntity
  8
0
100
AcDbLine
 10
-0.4071851999704316
 20
3.797231250350144
 30
0.0
 11
-0.4733043176602605
 21
3.72435873160362
 31
0.0
  0
LINE
  5
186
330
1F
100
AcDbEntity
  8
0
100
AcDbLine
 10
-0.4733043176602605
 20
3.72435873160362
 30
0.0
 11
-0.5184192509488396
 21
3.624193615668629
 31
0.0
  0
LINE
  5
187
330
1F
100
AcDbEntity
  8
0
100
AcDbLine
 10
-0.5184192509488396
 20
3.624193615668629
 30
0.0
 11
-0.5229539936911713
 21
3.624193615668629
 31
0.0
  0
LINE
  5
188
330
1F
100
AcDbEntity
  8
0
100
AcDbLine
 10
-0.5229539936911713
 20
3.624193615668629
 30
0.0
 11
-0.5229539936911713
 21
3.823580585620529
 31
0.0
  0
LINE
  5
189
330
1F
100
AcDbEntity
  8
0
100
AcDbLine
 10
-0.5229539936911713
 20
3.823580585620529
 30
0.0
 11
-0.9265460977587006
 21
3.823580585620529
 31
0.0
  0
LINE
  5
18A
330
1F
100
AcDbEntity
  8
0
100
AcDbLine
 10
0.5121010372460588
 20
3.407907643466007
 30
0.0
 11
0.5121010372460588
 21
3.351967340418023
 31
0.0
  0
LINE
  5
18B
330
1F
100
AcDbEntity
  8
0
100
AcDbLine
 10
0.5121010372460588
 20
3.351967340418023
 30
0.0
 11
0.2830965287583034
 21
3.351967340418023
 31
0.0
  0
LINE
  5
18C
330
1F
100
AcDbEntity
  8
0
100
AcDbLine
 10
0.2830965287583034
 20
3.351967340418023
 30
0.0
 11
0.2830965287583034
 21
3.407907643466007
 31
0.0
  0
LINE
  5
18D
330
1F
100
AcDbEntity
  8
0
100
AcDbLine
 10
0.2830965287583034
 20
3.407907643466007
 30
0.0
 11
0.3073822018041506
 21
3.554755367426673
 31
0.0
  0
LINE
  5
18E
330
1F
100
AcDbEntity
  8
0
100
AcDbLine
 10
0.3073822018041506
 20
3.554755367426673
 30
0.0
 11
0.3417913337454766
 21
3.589722485291372
 31
0.0
  0
LINE
  5
18F
330
1F
100
AcDbEntity
  8
0
100
AcDbLine
 10
0.3417913337454766
 20
3.589722485291372
 30
0.0
 11
0.3964473834777611
 21
3.601378191246272
 31
0.0
  0
LINE
  5
190
330
1F
100
AcDbEntity
  8
0
100
AcDbLine
 10
0.3964473834777611
 20
3.601378191246272
 30
0.0
 11
0.4528305324966754
 21
3.589722485291372
 31
0.0
  0
LINE
  5
191
330
1F
100
AcDbEntity
  8
0
100
AcDbLine
 10
0.4528305324966754
 20
3.589722485291372
 30
0.0
 11
0.4878153642002117
 21
3.554755367426673
 31
0.0
  0
LINE
  5
192
330
1F
100
AcDbEntity
  8
0
100
AcDbLine
 10
0.4878153642002117
 20
3.554755367426673
 30
0.0
 11
0.5121010372460588
 21
3.407907643466007
 31
0.0
  0
LINE
  5
193
330
1F
100
AcDbEntity
  8
0
100
AcDbLine
 10
0.2830965287583034
 20
3.124096517615851
 30
0.0
 11
0.9020889130865923
 21
3.124096517615851
 31
0.0
  0
LINE
  5
194
330
1F
100
AcDbEntity
  8
0
100
AcDbLine
 10
0.9020889130865923
 20
3.124096517615851
 30
0.0
 11
0.9020889130865923
 21
3.25197272018184
 31
0.0
  0
LINE
  5
195
330
1F
100
AcDbEntity
  8
0
100
AcDbLine
 10
0.9020889130865923
 20
3.25197272018184
 30
0.0
 11
0.8942571820906804
 21
3.409772025003626
 31
0.0
  0
LINE
  5
196
330
1F
100
AcDbEntity
  8
0
100
AcDbLine
 10
0.8942571820906804
 20
3.409772025003626
 30
0.0
 11
0.8707619891029447
 21
3.539096333894558
 31
0.0
  0
LINE
  5
197
330
1F
100
AcDbEntity
  8
0
100
AcDbLine
 10
0.8707619891029447
 20
3.539096333894558
 30
0.0
 11
0.8313110557825715
 21
3.64313856630505
 31
0.0
  0
LINE
  5
198
330
1F
100
AcDbEntity
  8
0
100
AcDbLine
 10
0.8313110557825715
 20
3.64313856630505
 30
0.0
 11
0.775612103788745
 21
3.725091641685511
 31
0.0
  0
LINE
  5
199
330
1F
100
AcDbEntity
  8
0
100
AcDbLine
 10
0.775612103788745
 20
3.725091641685511
 30
0.0
 11
0.7042496898030951
 21
3.78583018082853
 31
0.0
  0
LINE
  5
19A
330
1F
100
AcDbEntity
  8
0
100
AcDbLine
 10
0.7042496898030951
 20
3.78583018082853
 30
0.0
 11
0.6178083705072499
 21
3.826228804526695
 31
0.0
  0
LINE
  5
19B
330
1F
100
AcDbEntity
  8
0
100
AcDbLine
 10
0.6178083705072499
 20
3.826228804526695
 30
0.0
 11
0.5159958675603954
 21
3.8489003040085
 31
0.0
  0
LINE
  5
19C
330
1F
100
AcDbEntity
  8
0
100
AcDbLine
 10
0.5159958675603954
 20
3.8489003040085
 30
0.0
 11
0.3985199026217174
 21
3.856457470502435
 31
0.0
  0
LINE
  5
19D
330
1F
100
AcDbEntity
  8
0
100
AcDbLine
 10
0.3985199026217174
 20
3.856457470502435
 30
0.0
 11
0.2671075749778455
 21
3.847454411913411
 31
0.0
  0
LINE
  5
19E
330
1F
100
AcDbEntity
  8
0
100
AcDbLine
 10
0.2671075749778455
 20
3.847454411913411
 30
0.0
 11
0.1560085920205713
 21
3.820445236146338
 31
0.0
  0
LINE
  5
19F
330
1F
100
AcDbEntity
  8
0
100
AcDbLine
 10
0.1560085920205713
 20
3.820445236146338
 30
0.0
 11
0.0640560546164922
 21
3.773687344305606
 31
0.0
  0
LINE
  5
1A0
330
1F
100
AcDbEntity
  8
0
100
AcDbLine
 10
0.0640560546164922
 20
3.773687344305606
 30
0.0
 11
-0.009916936367795
 21
3.7054381374956
 31
0.0
  0
LINE
  5
1A1
330
1F
100
AcDbEntity
  8
0
100
AcDbLine
 10
-0.009916936367795
 20
3.7054381374956
 30
0.0
 11
-0.066196016583541
 21
3.614825209153587
 31
0.0
  0
LINE
  5
1A2
330
1F
100
AcDbEntity
  8
0
100
AcDbLine
 10
-0.066196016583541
 20
3.614825209153587
 30
0.0
 11
-0.105066821681995
 21
3.500976152716832
 31
0.0
  0
LINE
  5
1A3
330
1F
100
AcDbEntity
  8
0
100
AcDbLine
 10
-0.105066821681995
 20
3.500976152716832
 30
0.0
 11
-0.1276918223368515
 21
3.361568241067804
 31
0.0
  0
LINE
  5
1A4
330
1F
100
AcDbEntity
  8
0
100
AcDbLine
 10
-0.1276918223368515
 20
3.361568241067804
 30
0.0
 11
-0.1352334892218039
 21
3.19427874708897
 31
0.0
  0
LINE
  5
1A5
330
1F
100
AcDbEntity
  8
0
100
AcDbLine
 10
-0.1352334892218039
 20
3.19427874708897
 30
0.0
 11
-0.1085387340940928
 21
2.889901854348786
 31
0.0
  0
LINE
  5
1A6
330
1F
100
AcDbEntity
  8
0
100
AcDbLine
 10
-0.1085387340940928
 20
2.889901854348786
 30
0.0
 11
-0.0728497772967766
 21
2.776342862022992
 31
0.0
  0
LINE
  5
1A7
330
1F
100
AcDbEntity
  8
0
100
AcDbLine
 10
-0.0728497772967766
 20
2.776342862022992
 30
0.0
 11
-0.0191724171602496
 21
2.686600126013857
 31
0.0
  0
LINE
  5
1A8
330
1F
100
AcDbEntity
  8
0
100
AcDbLine
 10
-0.0191724171602496
 20
2.686600126013857
 30
0.0
 11
0.0533657528782217
 21
2.61980123975865
 31
0.0
  0
LINE
  5
1A9
330
1F
100
AcDbEntity
  8
0
100
AcDbLine
 10
0.0533657528782217
 20
2.61980123975865
 30
0.0
 11
0.1456371393813713
 21
2.575073796694634
 31
0.0
  0
LINE
  5
1AA
330
1F
100
AcDbEntity
  8
0
100
AcDbLine
 10
0.1456371393813713
 20
2.575073796694634
 30
0.0
 11
0.2599578267771669
 21
2.549805005593321
 31
0.0
  0
LINE
  5
1AB
330
1F
100
AcDbEntity
  8
0
100
AcDbLine
 10
0.2599578267771669
 20
2.549805005593321
 30
0.0
 11
0.398643899493578
 21
2.541382075226216
 31
0.0
  0
LINE
  5
1AC
330
1F
100
AcDbEntity
  8
0
100
AcDbLine
 10
0.398643899493578
 20
2.541382075226216
 30
0.0
 11
0.6220685487476044
 21
2.570676336203291
 31
0.0
  0
LINE
  5
1AD
330
1F
100
AcDbEntity
  8
0
100
AcDbLine
 10
0.6220685487476044
 20
2.570676336203291
 30
0.0
 11
0.7063598508545804
 21
2.607294162424636
 31
0.0
  0
LINE
  5
1AE
330
1F
100
AcDbEntity
  8
0
100
AcDbLine
 10
0.7063598508545804
 20
2.607294162424636
 30
0.0
 11
0.772370471281531
 21
2.658559119134517
 31
0.0
  0
LINE
  5
1AF
330
1F
100
AcDbEntity
  8
0
100
AcDbLine
 10
0.772370471281531
 20
2.658559119134517
 30
0.0
 11
0.822422030031062
 21
2.724335031196873
 31
0.0
  0
LINE
  5
1B0
330
1F
100
AcDbEntity
  8
0
100
AcDbLine
 10
0.822422030031062
 20
2.724335031196873
 30
0.0
 11
0.8588361471057772
 21
2.804485723475646
 31
0.0
  0
LINE
  5
1B1
330
1F
100
AcDbEntity
  8
0
100
AcDbLine
 10
0.8588361471057772
 20
2.804485723475646
 30
0.0
 11
0.8907520562307627
 21
3.007911448682437
 31
0.0
  0
LINE
  5
1B2
330
1F
100
AcDbEntity
  8
0
100
AcDbLine
 10
0.8907520562307627
 20
3.007911448682437
 30
0.0
 11
0.5143684086172249
 21
3.007911448682437
 31
0.0
  0
LINE
  5
1B3
330
1F
100
AcDbEntity
  8
0
100
AcDbLine
 10
0.5143684086172249
 20
3.007911448682437
 30
0.0
 11
0.5065632483795687
 21
2.900818007532232
 31
0.0
  0
LINE
  5
1B4
330
1F
100
AcDbEntity
  8
0
100
AcDbLine
 10
0.5065632483795687
 20
2.900818007532232
 30
0.0
 11
0.4831477676666007
 21
2.83493581243685
 31
0.0
  0
LINE
  5
1B5
330
1F
100
AcDbEntity
  8
0
100
AcDbLine
 10
0.4831477676666007
 20
2.83493581243685
 30
0.0
 11
0.4458534942246601
 21
2.800978383385874
 31
0.0
  0
LINE
  5
1B6
330
1F
100
AcDbEntity
  8
0
100
AcDbLine
 10
0.4458534942246601
 20
2.800978383385874
 30
0.0
 11
0.3964119558000866
 21
2.789659240368882
 31
0.0
  0
LINE
  5
1B7
330
1F
100
AcDbEntity
  8
0
100
AcDbLine
 10
0.3964119558000866
 20
2.789659240368882
 30
0.0
 11
0.3547910772221518
 21
2.798077742276277
 31
0.0
  0
LINE
  5
1B8
330
1F
100
AcDbEntity
  8
0
100
AcDbLine
 10
0.3547910772221518
 20
2.798077742276277
 30
0.0
 11
0.3177890821210251
 21
2.823333247998463
 31
0.0
  0
LINE
  5
1B9
330
1F
100
AcDbEntity
  8
0
100
AcDbLine
 10
0.3177890821210251
 20
2.823333247998463
 30
0.0
 11
0.2917696670989839
 21
2.874136537783648
 31
0.0
  0
LINE
  5
1BA
330
1F
100
AcDbEntity
  8
0
100
AcDbLine
 10
0.2917696670989839
 20
2.874136537783648
 30
0.0
 11
0.2830965287583034
 21
2.959198391880044
 31
0.0
  0
LINE
  5
1BB
330
1F
100
AcDbEntity
  8
0
100
AcDbLine
 10
0.2830965287583034
 20
2.959198391880044
 30
0.0
 11
0.2830965287583034
 21
3.124096517615851
 31
0.0
  0
LINE
  5
1BC
330
1F
100
AcDbEntity
  8
0
100
AcDbLine
 10
1.628781437545261
 20
3.407907643466007
 30
0.0
 11
1.628781437545261
 21
3.351967340418023
 31
0.0
  0
LINE
  5
1BD
330
1F
100
AcDbEntity
  8
0
100
AcDbLine
 10
1.628781437545261
 20
3.351967340418023
 30
0.0
 11
1.399776929057506
 21
3.351967340418023
 31
0.0
  0
LINE
  5
1BE
330
1F
100
AcDbEntity
  8
0
100
AcDbLine
 10
1.399776929057506
 20
3.351967340418023
 30
0.0
 11
1.399776929057506
 21
3.407907643466007
 31
0.0
  0
LINE
  5
1BF
330
1F
100
AcDbEntity
  8
0
100
AcDbLine
 10
1.399776929057506
 20
3.407907643466007
 30
0.0
 11
1.424062602103353
 21
3.554755367426673
 31
0.0
  0
LINE
  5
1C0
330
1F
100
AcDbEntity
  8
0
100
AcDbLine
 10
1.424062602103353
 20
3.554755367426673
 30
0.0
 11
1.458471734044679
 21
3.589722485291372
 31
0.0
  0
LINE
  5
1C1
330
1F
100
AcDbEntity
  8
0
100
AcDbLine
 10
1.458471734044679
 20
3.589722485291372
 30
0.0
 11
1.513127783776963
 21
3.601378191246272
 31
0.0
  0
LINE
  5
1C2
330
1F
100
AcDbEntity
  8
0
100
AcDbLine
 10
1.513127783776963
 20
3.601378191246272
 30
0.0
 11
1.569510932795877
 21
3.589722485291372
 31
0.0
  0
LINE
  5
1C3
330
1F
100
AcDbEntity
  8
0
100
AcDbLine
 10
1.569510932795877
 20
3.589722485291372
 30
0.0
 11
1.604495764499414
 21
3.554755367426673
 31
0.0
  0
LINE
  5
1C4
330
1F
100
AcDbEntity
  8
0
100
AcDbLine
 10
1.604495764499414
 20
3.554755367426673
 30
0.0
 11
1.628781437545261
 21
3.407907643466007
 31
0.0
  0
LINE
  5
1C5
330
1F
100
AcDbEntity
  8
0
100
AcDbLine
 10
1.399776929057506
 20
3.124096517615851
 30
0.0
 11
2.018769313385795
 21
3.124096517615851
 31
0.0
  0
LINE
  5
1C6
330
1F
100
AcDbEntity
  8
0
100
AcDbLine
 10
2.018769313385795
 20
3.124096517615851
 30
0.0
 11
2.018769313385795
 21
3.25197272018184
 31
0.0
  0
LINE
  5
1C7
330
1F
100
AcDbEntity
  8
0
100
AcDbLine
 10
2.018769313385795
 20
3.25197272018184
 30
0.0
 11
2.010937582389883
 21
3.409772025003626
 31
0.0
  0
LINE
  5
1C8
330
1F
100
AcDbEntity
  8
0
100
AcDbLine
 10
2.010937582389883
 20
3.409772025003626
 30
0.0
 11
1.987442389402147
 21
3.539096333894558
 31
0.0
  0
LINE
  5
1C9
330
1F
100
AcDbEntity
  8
0
100
AcDbLine
 10
1.987442389402147
 20
3.539096333894558
 30
0.0
 11
1.947991456081773
 21
3.64313856630505
 31
0.0
  0
LINE
  5
1CA
330
1F
100
AcDbEntity
  8
0
100
AcDbLine
 10
1.947991456081773
 20
3.64313856630505
 30
0.0
 11
1.892292504087947
 21
3.725091641685511
 31
0.0
  0
LINE
  5
1CB
330
1F
100
AcDbEntity
  8
0
100
AcDbLine
 10
1.892292504087947
 20
3.725091641685511
 30
0.0
 11
1.820930090102297
 21
3.78583018082853
 31
0.0
  0
LINE
  5
1CC
330
1F
100
AcDbEntity
  8
0
100
AcDbLine
 10
1.820930090102297
 20
3.78583018082853
 30
0.0
 11
1.734488770806452
 21
3.826228804526695
 31
0.0
  0
LINE
  5
1CD
330
1F
100
AcDbEntity
  8
0
100
AcDbLine
 10
1.734488770806452
 20
3.826228804526695
 30
0.0
 11
1.632676267859598
 21
3.8489003040085
 31
0.0
  0
LINE
  5
1CE
330
1F
100
AcDbEntity
  8
0
100
AcDbLine
 10
1.632676267859598
 20
3.8489003040085
 30
0.0
 11
1.51520030292092
 21
3.856457470502435
 31
0.0
  0
LINE
  5
1CF
330
1F
100
AcDbEntity
  8
0
100
AcDbLine
 10
1.51520030292092
 20
3.856457470502435
 30
0.0
 11
1.383787975277048
 21
3.847454411913411
 31
0.0
  0
LINE
  5
1D0
330
1F
100
AcDbEntity
  8
0
100
AcDbLine
 10
1.383787975277048
 20
3.847454411913411
 30
0.0
 11
1.272688992319774
 21
3.820445236146338
 31
0.0
  0
LINE
  5
1D1
330
1F
100
AcDbEntity
  8
0
100
AcDbLine
 10
1.272688992319774
 20
3.820445236146338
 30
0.0
 11
1.180736454915694
 21
3.773687344305606
 31
0.0
  0
LINE
  5
1D2
330
1F
100
AcDbEntity
  8
0
100
AcDbLine
 10
1.180736454915694
 20
3.773687344305606
 30
0.0
 11
1.106763463931407
 21
3.7054381374956
 31
0.0
  0
LINE
  5
1D3
330
1F
100
AcDbEntity
  8
0
100
AcDbLine
 10
1.106763463931407
 20
3.7054381374956
 30
0.0
 11
1.050484383715662
 21
3.614825209153587
 31
0.0
  0
LINE
  5
1D4
330
1F
100
AcDbEntity
  8
0
100
AcDbLine
 10
1.050484383715662
 20
3.614825209153587
 30
0.0
 11
1.011613578617207
 21
3.500976152716832
 31
0.0
  0
LINE
  5
1D5
330
1F
100
AcDbEntity
  8
0
100
AcDbLine
 10
1.011613578617207
 20
3.500976152716832
 30
0.0
 11
0.9889885779623505
 21
3.361568241067804
 31
0.0
  0
LINE
  5
1D6
330
1F
100
AcDbEntity
  8
0
100
AcDbLine
 10
0.9889885779623505
 20
3.361568241067804
 30
0.0
 11
0.9814469110773987
 21
3.19427874708897
 31
0.0
  0
LINE
  5
1D7
330
1F
100
AcDbEntity
  8
0
100
AcDbLine
 10
0.9814469110773987
 20
3.19427874708897
 30
0.0
 11
1.008141666205109
 21
2.889901854348786
 31
0.0
  0
LINE
  5
1D8
330
1F
100
AcDbEntity
  8
0
100
AcDbLine
 10
1.008141666205109
 20
2.889901854348786
 30
0.0
 11
1.043830623002426
 21
2.776342862022992
 31
0.0
  0
LINE
  5
1D9
330
1F
100
AcDbEntity
  8
0
100
AcDbLine
 10
1.043830623002426
 20
2.776342862022992
 30
0.0
 11
1.097507983138953
 21
2.686600126013857
 31
0.0
  0
LINE
  5
1DA
330
1F
100
AcDbEntity
  8
0
100
AcDbLine
 10
1.097507983138953
 20
2.686600126013857
 30
0.0
 11
1.170046153177424
 21
2.61980123975865
 31
0.0
  0
LINE
  5
1DB
330
1F
100
AcDbEntity
  8
0
100
AcDbLine
 10
1.170046153177424
 20
2.61980123975865
 30
0.0
 11
1.262317539680574
 21
2.575073796694634
 31
0.0
  0
LINE
  5
1DC
330
1F
100
AcDbEntity
  8
0
100
AcDbLine
 10
1.262317539680574
 20
2.575073796694634
 30
0.0
 11
1.37663822707637
 21
2.549805005593321
 31
0.0
  0
LINE
  5
1DD
330
1F
100
AcDbEntity
  8
0
100
AcDbLine
 10
1.37663822707637
 20
2.549805005593321
 30
0.0
 11
1.51532429979278
 21
2.541382075226216
 31
0.0
  0
LINE
  5
1DE
330
1F
100
AcDbEntity
  8
0
100
AcDbLine
 10
1.51532429979278
 20
2.541382075226216
 30
0.0
 11
1.738748949046807
 21
2.570676336203291
 31
0.0
  0
LINE
  5
1DF
330
1F
100
AcDbEntity
  8
0
100
AcDbLine
 10
1.738748949046807
 20
2.570676336203291
 30
0.0
 11
1.823040251153783
 21
2.607294162424636
 31
0.0
  0
LINE
  5
1E0
330
1F
100
AcDbEntity
  8
0
100
AcDbLine
 10
1.823040251153783
 20
2.607294162424636
 30
0.0
 11
1.889050871580734
 21
2.658559119134517
 31
0.0
  0
LINE
  5
1E1
330
1F
100
AcDbEntity
  8
0
100
AcDbLine
 10
1.889050871580734
 20
2.658559119134517
 30
0.0
 11
1.939102430330264
 21
2.724335031196873
 31
0.0
  0
LINE
  5
1E2
330
1F
100
AcDbEntity
  8
0
100
AcDbLine
 10
1.939102430330264
 20
2.724335031196873
 30
0.0
 11
1.97551654740498
 21
2.804485723475646
 31
0.0
  0
LINE
  5
1E3
330
1F
100
AcDbEntity
  8
0
100
AcDbLine
 10
1.97551654740498
 20
2.804485723475646
 30
0.0
 11
2.007432456529965
 21
3.007911448682437
 31
0.0
  0
LINE
  5
1E4
330
1F
100
AcDbEntity
  8
0
100
AcDbLine
 10
2.007432456529965
 20
3.007911448682437
 30
0.0
 11
1.631048808916427
 21
3.007911448682437
 31
0.0
  0
LINE
  5
1E5
330
1F
100
AcDbEntity
  8
0
100
AcDbLine
 10
1.631048808916427
 20
3.007911448682437
 30
0.0
 11
1.623243648678771
 21
2.900818007532232
 31
0.0
  0
LINE
  5
1E6
330
1F
100
AcDbEntity
  8
0
100
AcDbLine
 10
1.623243648678771
 20
2.900818007532232
 30
0.0
 11
1.599828167965803
 21
2.83493581243685
 31
0.0
  0
LINE
  5
1E7
330
1F
100
AcDbEntity
  8
0
100
AcDbLine
 10
1.599828167965803
 20
2.83493581243685
 30
0.0
 11
1.562533894523862
 21
2.800978383385874
 31
0.0
  0
LINE
  5
1E8
330
1F
100
AcDbEntity
  8
0
100
AcDbLine
 10
1.562533894523862
 20
2.800978383385874
 30
0.0
 11
1.513092356099289
 21
2.789659240368882
 31
0.0
  0
LINE
  5
1E9
330
1F
100
AcDbEntity
  8
0
100
AcDbLine
 10
1.513092356099289
 20
2.789659240368882
 30
0.0
 11
1.471471477521354
 21
2.798077742276277
 31
0.0
  0
LINE
  5
1EA
330
1F
100
AcDbEntity
  8
0
100
AcDbLine
 10
1.471471477521354
 20
2.798077742276277
 30
0.0
 11
1.434469482420228
 21
2.823333247998463
 31
0.0
  0
LINE
  5
1EB
330
1F
100
AcDbEntity
  8
0
100
AcDbLine
 10
1.434469482420228
 20
2.823333247998463
 30
0.0
 11
1.408450067398186
 21
2.874136537783648
 31
0.0
  0
LINE
  5
1EC
330
1F
100
AcDbEntity
  8
0
100
AcDbLine
 10
1.408450067398186
 20
2.874136537783648
 30
0.0
 11
1.399776929057506
 21
2.959198391880044
 31
0.0
  0
LINE
  5
1ED
330
1F
100
AcDbEntity
  8
0
100
AcDbLine
 10
1.399776929057506
 20
2.959198391880044
 30
0.0
 11
1.399776929057506
 21
3.124096517615851
 31
0.0
  0
LINE
  5
1EE
330
1F
100
AcDbEntity
  8
0
100
AcDbLine
 10
-2.391698042351472
 20
0.99067376624315
 30
0.0
 11
0.000000000000004
 21
-0.000000000000008
 31
0.0
  0
LINE
  5
1EF
330
1F
100
AcDbEntity
  8
0
100
AcDbLine
 10
-3.38237180859463
 20
3.382371808594626
 30
0.0
 11
-2.391698042351472
 21
0.99067376624315
 31
0.0
  0
LINE
  5
1F0
330
1F
100
AcDbEntity
  8
0
100
AcDbLine
 10
0.000000000000004
 20
6.764743617189261
 30
0.0
 11
-2.391698042351472
 21
5.774069850946103
 31
0.0
  0
LINE
  5
1F1
330
1F
100
AcDbEntity
  8
0
100
AcDbLine
 10
2.39169804235148
 20
0.99067376624315
 30
0.0
 11
3.382371808594638
 21
3.382371808594626
 31
0.0
  0
LINE
  5
1F2
330
1F
100
AcDbEntity
  8
0
100
AcDbLine
 10
3.382371808594638
 20
3.382371808594626
 30
0.0
 11
2.39169804235148
 21
5.774069850946103
 31
0.0
  0
LINE
  5
1F3
330
1F
100
AcDbEntity
  8
0
100
AcDbLine
 10
0.000000000000004
 20
-0.000000000000008
 30
0.0
 11
2.39169804235148
 21
0.99067376624315
 31
0.0
  0
LINE
  5
1F4
330
1F
100
AcDbEntity
  8
0
100
AcDbLine
 10
-2.391698042351472
 20
5.774069850946103
 30
0.0
 11
-3.38237180859463
 21
3.382371808594626
 31
0.0
  0
LINE
  5
1F5
330
1F
100
AcDbEntity
  8
0
100
AcDbLine
 10
2.39169804235148
 20
5.774069850946103
 30
0.0
 11
0.000000000000004
 21
6.764743617189261
 31
0.0
  0
LINE
  5
1F6
330
1F
100
AcDbEntity
  8
0
100
AcDbLine
 10
-1.715222068766976
 20
-4.359728921918147
 30
0.0
 11
-1.455200628475225
 21
-4.134444319586211
 31
0.0
  0
LINE
  5
1F7
330
1F
100
AcDbEntity
  8
0
100
AcDbLine
 10
-1.455200628475225
 20
-4.134444319586211
 30
0.0
 11
-1.654871019848521
 21
-3.934720786696403
 31
0.0
  0
LINE
  5
1F8
330
1F
100
AcDbEntity
  8
0
100
AcDbLine
 10
-1.654871019848521
 20
-3.934720786696403
 30
0.0
 11
-1.591025916219422
 21
-3.815114732637547
 31
0.0
  0
LINE
  5
1F9
330
1F
100
AcDbEntity
  8
0
100
AcDbLine
 10
-1.591025916219422
 20
-3.815114732637547
 30
0.0
 11
-1.54807428549884
 21
-3.665319868740337
 31
0.0
  0
LINE
  5
1FA
330
1F
100
AcDbEntity
  8
0
100
AcDbLine
 10
-1.54807428549884
 20
-3.665319868740337
 30
0.0
 11
-1.523695614799098
 21
-3.481846568753835
 31
0.0
  0
LINE
  5
1FB
330
1F
100
AcDbEntity
  8
0
100
AcDbLine
 10
-1.523695614799098
 20
-3.481846568753835
 30
0.0
 11
-1.515569391232517
 21
-3.261205206427109
 31
0.0
  0
LINE
  5
1FC
330
1F
100
AcDbEntity
  8
0
100
AcDbLine
 10
-1.515569391232517
 20
-3.261205206427109
 30
0.0
 11
-1.523119915036887
 21
-3.046099418737018
 31
0.0
  0
LINE
  5
1FD
330
1F
100
AcDbEntity
  8
0
100
AcDbLine
 10
-1.523119915036887
 20
-3.046099418737018
 30
0.0
 11
-1.54577148645
 21
-2.865238909979009
 31
0.0
  0
LINE
  5
1FE
330
1F
100
AcDbEntity
  8
0
100
AcDbLine
 10
-1.54577148645
 20
-2.865238909979009
 30
0.0
 11
-1.585844618359532
 21
-2.716597659836073
 31
0.0
  0
LINE
  5
1FF
330
1F
100
AcDbEntity
  8
0
100
AcDbLine
 10
-1.585844618359532
 20
-2.716597659836073
 30
0.0
 11
-1.64565982365316
 21
-2.598149647991202
 31
0.0
  0
LINE
  5
200
330
1F
100
AcDbEntity
  8
0
100
AcDbLine
 10
-1.64565982365316
 20
-2.598149647991202
 30
0.0
 11
-1.726379573004578
 21
-2.508734618000557
 31
0.0
  0
LINE
  5
201
330
1F
100
AcDbEntity
  8
0
100
AcDbLine
 10
-1.726379573004578
 20
-2.508734618000557
 30
0.0
 11
-1.82916633708748
 21
-2.447192313420298
 31
0.0
  0
LINE
  5
202
330
1F
100
AcDbEntity
  8
0
100
AcDbLine
 10
-1.82916633708748
 20
-2.447192313420298
 30
0.0
 11
-1.955764929027334
 21
-2.411487857013999
 31
0.0
  0
LINE
  5
203
330
1F
100
AcDbEntity
  8
0
100
AcDbLine
 10
-1.955764929027334
 20
-2.411487857013999
 30
0.0
 11
-2.107920161949606
 21
-2.399586371545233
 31
0.0
  0
LINE
  5
204
330
1F
100
AcDbEntity
  8
0
100
AcDbLine
 10
-2.107920161949606
 20
-2.399586371545233
 30
0.0
 11
-2.260075394871878
 21
-2.411490071243854
 31
0.0
  0
LINE
  5
205
330
1F
100
AcDbEntity
  8
0
100
AcDbLine
 10
-2.260075394871878
 20
-2.411490071243854
 30
0.0
 11
-2.386673986811731
 21
-2.447201170339716
 31
0.0
  0
LINE
  5
206
330
1F
100
AcDbEntity
  8
0
100
AcDbLine
 10
-2.386673986811731
 20
-2.447201170339716
 30
0.0
 11
-2.489460750894634
 21
-2.508750117609539
 31
0.0
  0
LINE
  5
207
330
1F
100
AcDbEntity
  8
0
100
AcDbLine
 10
-2.489460750894634
 20
-2.508750117609539
 30
0.0
 11
-2.570180500246053
 21
-2.598167361830039
 31
0.0
  0
LINE
  5
208
330
1F
100
AcDbEntity
  8
0
100
AcDbLine
 10
-2.570180500246053
 20
-2.598167361830039
 30
0.0
 11
-2.629995705539681
 21
-2.716617587904765
 31
0.0
  0
LINE
  5
209
330
1F
100
AcDbEntity
  8
0
100
AcDbLine
 10
-2.629995705539681
 20
-2.716617587904765
 30
0.0
 11
-2.670068837449213
 21
-2.865265480737265
 31
0.0
  0
LINE
  5
20A
330
1F
100
AcDbEntity
  8
0
100
AcDbLine
 10
-2.670068837449213
 20
-2.865265480737265
 30
0.0
 11
-2.692720408862325
 21
-3.046141489104257
 31
0.0
  0
LINE
  5
20B
330
1F
100
AcDbEntity
  8
0
100
AcDbLine
 10
-2.692720408862325
 20
-3.046141489104257
 30
0.0
 11
-2.700270932666696
 21
-3.261276061782458
 31
0.0
  0
LINE
  5
20C
330
1F
100
AcDbEntity
  8
0
100
AcDbLine
 10
-2.700270932666696
 20
-3.261276061782458
 30
0.0
 11
-2.69271819463247
 21
-3.476397349081531
 31
0.0
  0
LINE
  5
20D
330
1F
100
AcDbEntity
  8
0
100
AcDbLine
 10
-2.69271819463247
 20
-3.476397349081531
 30
0.0
 11
-2.670059980529794
 21
-3.657268928988814
 31
0.0
  0
LINE
  5
20E
330
1F
100
AcDbEntity
  8
0
100
AcDbLine
 10
-2.670059980529794
 20
-3.657268928988814
 30
0.0
 11
-2.629975777470989
 21
-3.805919036051169
 31
0.0
  0
LINE
  5
20F
330
1F
100
AcDbEntity
  8
0
100
AcDbLine
 10
-2.629975777470989
 20
-3.805919036051169
 30
0.0
 11
-2.570145072568378
 21
-3.924375904815459
 31
0.0
  0
LINE
  5
210
330
1F
100
AcDbEntity
  8
0
100
AcDbLine
 10
-2.570145072568378
 20
-3.924375904815459
 30
0.0
 11
-2.489400966688559
 21
-4.012927385162788
 31
0.0
  0
LINE
  5
211
330
1F
100
AcDbEntity
  8
0
100
AcDbLine
 10
-2.489400966688559
 20
-4.012927385162788
 30
0.0
 11
-2.386576560698127
 21
-4.071861326974265
 31
0.0
  0
LINE
  5
212
330
1F
100
AcDbEntity
  8
0
100
AcDbLine
 10
-2.386576560698127
 20
-4.071861326974265
 30
0.0
 11
-2.259931469931326
 21
-4.104955206381927
 31
0.0
  0
LINE
  5
213
330
1F
100
AcDbEntity
  8
0
100
AcDbLine
 10
-2.259931469931326
 20
-4.104955206381927
 30
0.0
 11
-2.107725309722396
 21
-4.115986499517813
 31
0.0
  0
LINE
  5
214
330
1F
100
AcDbEntity
  8
0
100
AcDbLine
 10
-2.107725309722396
 20
-4.115986499517813
 30
0.0
 11
-2.065902936227688
 21
-4.115986499517813
 31
0.0
  0
LINE
  5
215
330
1F
100
AcDbEntity
  8
0
100
AcDbLine
 10
-2.065902936227688
 20
-4.115986499517813
 30
0.0
 11
-2.006641288397724
 21
-4.112248879523158
 31
0.0
  0
LINE
  5
216
330
1F
100
AcDbEntity
  8
0
100
AcDbLine
 10
-2.006641288397724
 20
-4.112248879523158
 30
0.0
 11
-1.952038380181951
 21
-4.103515956976401
 31
0.0
  0
LINE
  5
217
330
1F
100
AcDbEntity
  8
0
100
AcDbLine
 10
-1.952038380181951
 20
-4.103515956976401
 30
0.0
 11
-1.715222068766976
 21
-4.359728921918147
 31
0.0
  0
LINE
  5
218
330
1F
100
AcDbEntity
  8
0
100
AcDbLine
 10
-2.254732458232598
 20
-3.261187492588272
 30
0.0
 11
-2.250073718618405
 21
-2.983602781089404
 31
0.0
  0
LINE
  5
219
330
1F
100
AcDbEntity
  8
0
100
AcDbLine
 10
-2.250073718618405
 20
-2.983602781089404
 30
0.0
 11
-2.230269646798378
 21
-2.808226919681373
 31
0.0
  0
LINE
  5
21A
330
1F
100
AcDbEntity
  8
0
100
AcDbLine
 10
-2.230269646798378
 20
-2.808226919681373
 30
0.0
 11
-2.185993906624713
 21
-2.717629490948342
 31
0.0
  0
LINE
  5
21B
330
1F
100
AcDbEntity
  8
0
100
AcDbLine
 10
-2.185993906624713
 20
-2.717629490948342
 30
0.0
 11
-2.107920161949606
 21
-2.692077278425633
 31
0.0
  0
LINE
  5
21C
330
1F
100
AcDbEntity
  8
0
100
AcDbLine
 10
-2.107920161949606
 20
-2.692077278425633
 30
0.0
 11
-2.029846417274499
 21
-2.717629490948342
 31
0.0
  0
LINE
  5
21D
330
1F
100
AcDbEntity
  8
0
100
AcDbLine
 10
-2.029846417274499
 20
-2.717629490948342
 30
0.0
 11
-1.985570677100834
 21
-2.808226919681373
 31
0.0
  0
LINE
  5
21E
330
1F
100
AcDbEntity
  8
0
100
AcDbLine
 10
-1.985570677100834
 20
-2.808226919681373
 30
0.0
 11
-1.965766605280807
 21
-2.983602781089404
 31
0.0
  0
LINE
  5
21F
330
1F
100
AcDbEntity
  8
0
100
AcDbLine
 10
-1.965766605280807
 20
-2.983602781089404
 30
0.0
 11
-1.961107865666615
 21
-3.261187492588272
 31
0.0
  0
LINE
  5
220
330
1F
100
AcDbEntity
  8
0
100
AcDbLine
 10
-1.961107865666615
 20
-3.261187492588272
 30
0.0
 11
-1.965766605280807
 21
-3.53877220408714
 31
0.0
  0
LINE
  5
221
330
1F
100
AcDbEntity
  8
0
100
AcDbLine
 10
-1.965766605280807
 20
-3.53877220408714
 30
0.0
 11
-1.985570677100834
 21
-3.71414806549517
 31
0.0
  0
LINE
  5
222
330
1F
100
AcDbEntity
  8
0
100
AcDbLine
 10
-1.985570677100834
 20
-3.71414806549517
 30
0.0
 11
-2.029846417274499
 21
-3.804745494228202
 31
0.0
  0
LINE
  5
223
330
1F
100
AcDbEntity
  8
0
100
AcDbLine
 10
-2.029846417274499
 20
-3.804745494228202
 30
0.0
 11
-2.107920161949606
 21
-3.830297706750911
 31
0.0
  0
LINE
  5
224
330
1F
100
AcDbEntity
  8
0
100
AcDbLine
 10
-2.107920161949606
 20
-3.830297706750911
 30
0.0
 11
-2.185993906624713
 21
-3.804745494228202
 31
0.0
  0
LINE
  5
225
330
1F
100
AcDbEntity
  8
0
100
AcDbLine
 10
-2.185993906624713
 20
-3.804745494228202
 30
0.0
 11
-2.230269646798378
 21
-3.71414806549517
 31
0.0
  0
LINE
  5
226
330
1F
100
AcDbEntity
  8
0
100
AcDbLine
 10
-2.230269646798378
 20
-3.71414806549517
 30
0.0
 11
-2.250073718618405
 21
-3.53877220408714
 31
0.0
  0
LINE
  5
227
330
1F
100
AcDbEntity
  8
0
100
AcDbLine
 10
-2.250073718618405
 20
-3.53877220408714
 30
0.0
 11
-2.254732458232598
 21
-3.261187492588272
 31
0.0
  0
LINE
  5
228
330
1F
100
AcDbEntity
  8
0
100
AcDbLine
 10
-1.37839342327698
 20
-2.833787989123501
 30
0.0
 11
-1.37839342327698
 21
-3.781496080754333
 31
0.0
  0
LINE
  5
229
330
1F
100
AcDbEntity
  8
0
100
AcDbLine
 10
-1.37839342327698
 20
-3.781496080754333
 30
0.0
 11
-1.352903209190201
 21
-3.947581033692234
 31
0.0
  0
LINE
  5
22A
330
1F
100
AcDbEntity
  8
0
100
AcDbLine
 10
-1.352903209190201
 20
-3.947581033692234
 30
0.0
 11
-1.283385248673478
 21
-4.052110396670749
 31
0.0
  0
LINE
  5
22B
330
1F
100
AcDbEntity
  8
0
100
AcDbLine
 10
-1.283385248673478
 20
-4.052110396670749
 30
0.0
 11
-1.180264135882523
 21
-4.103214821716168
 31
0.0
  0
LINE
  5
22C
330
1F
100
AcDbEntity
  8
0
100
AcDbLine
 10
-1.180264135882523
 20
-4.103214821716168
 30
0.0
 11
-1.05164395208537
 21
-4.115986499517813
 31
0.0
  0
LINE
  5
22D
330
1F
100
AcDbEntity
  8
0
100
AcDbLine
 10
-1.05164395208537
 20
-4.115986499517813
 30
0.0
 11
-0.9483744858941532
 21
-4.104779175108481
 31
0.0
  0
LINE
  5
22E
330
1F
100
AcDbEntity
  8
0
100
AcDbLine
 10
-0.9483744858941532
 20
-4.104779175108481
 30
0.0
 11
-0.8633547021649964
 21
-4.071157201880485
 31
0.0
  0
LINE
  5
22F
330
1F
100
AcDbEntity
  8
0
100
AcDbLine
 10
-0.8633547021649964
 20
-4.071157201880485
 30
0.0
 11
-0.7965846008978993
 21
-4.015120579833823
 31
0.0
  0
LINE
  5
230
330
1F
100
AcDbEntity
  8
0
100
AcDbLine
 10
-0.7965846008978993
 20
-4.015120579833823
 30
0.0
 11
-0.7480641820928617
 21
-3.936669308968499
 31
0.0
  0
LINE
  5
231
330
1F
100
AcDbEntity
  8
0
100
AcDbLine
 10
-0.7480641820928617
 20
-3.936669308968499
 30
0.0
 11
-0.7431928764126227
 21
-3.936669308968499
 31
0.0
  0
LINE
  5
232
330
1F
100
AcDbEntity
  8
0
100
AcDbLine
 10
-0.7431928764126227
 20
-3.936669308968499
 30
0.0
 11
-0.74352943935053
 21
-4.089911728749406
 31
0.0
  0
LINE
  5
233
330
1F
100
AcDbEntity
  8
0
100
AcDbLine
 10
-0.74352943935053
 20
-4.089911728749406
 30
0.0
 11
-0.3388036495974183
 21
-4.089911728749406
 31
0.0
  0
LINE
  5
234
330
1F
100
AcDbEntity
  8
0
100
AcDbLine
 10
-0.3388036495974183
 20
-4.089911728749406
 30
0.0
 11
-0.3388036495974183
 21
-2.833787989123501
 31
0.0
  0
LINE
  5
235
330
1F
100
AcDbEntity
  8
0
100
AcDbLine
 10
-0.3388036495974183
 20
-2.833787989123501
 30
0.0
 11
-0.7571336675775253
 21
-2.833787989123501
 31
0.0
  0
LINE
  5
236
330
1F
100
AcDbEntity
  8
0
100
AcDbLine
 10
-0.7571336675775253
 20
-2.833787989123501
 30
0.0
 11
-0.7571336675775253
 21
-3.662459083768123
 31
0.0
  0
LINE
  5
237
330
1F
100
AcDbEntity
  8
0
100
AcDbLine
 10
-0.7571336675775253
 20
-3.662459083768123
 30
0.0
 11
-0.7801970857436035
 21
-3.776208499861418
 31
0.0
  0
LINE
  5
238
330
1F
100
AcDbEntity
  8
0
100
AcDbLine
 10
-0.7801970857436035
 20
-3.776208499861418
 30
0.0
 11
-0.8113291575000414
 21
-3.802320912537355
 31
0.0
  0
LINE
  5
239
330
1F
100
AcDbEntity
  8
0
100
AcDbLine
 10
-0.8113291575000414
 20
-3.802320912537355
 30
0.0
 11
-0.8585985364371992
 21
-3.811025050096001
 31
0.0
  0
LINE
  5
23A
330
1F
100
AcDbEntity
  8
0
100
AcDbLine
 10
-0.8585985364371992
 20
-3.811025050096001
 30
0.0
 11
-0.9058679153743568
 21
-3.802320912537355
 31
0.0
  0
LINE
  5
23B
330
1F
100
AcDbEntity
  8
0
100
AcDbLine
 10
-0.9058679153743568
 20
-3.802320912537355
 30
0.0
 11
-0.9369999871307949
 21
-3.776208499861418
 31
0.0
  0
LINE
  5
23C
330
1F
100
AcDbEntity
  8
0
100
AcDbLine
 10
-0.9369999871307949
 20
-3.776208499861418
 30
0.0
 11
-0.9600634052968727
 21
-3.662459083768123
 31
0.0
  0
LINE
  5
23D
330
1F
100
AcDbEntity
  8
0
100
AcDbLine
 10
-0.9600634052968727
 20
-3.662459083768123
 30
0.0
 11
-0.9600634052968727
 21
-2.833787989123501
 31
0.0
  0
LINE
  5
23E
330
1F
100
AcDbEntity
  8
0
100
AcDbLine
 10
-0.9600634052968727
 20
-2.833787989123501
 30
0.0
 11
-1.37839342327698
 21
-2.833787989123501
 31
0.0
  0
LINE
  5
23F
330
1F
100
AcDbEntity
  8
0
100
AcDbLine
 10
-0.1642160540176445
 20
-2.432463256427138
 30
0.0
 11
-0.1642160540176445
 21
-2.743093134276865
 31
0.0
  0
LINE
  5
240
330
1F
100
AcDbEntity
  8
0
100
AcDbLine
 10
-0.1642160540176445
 20
-2.743093134276865
 30
0.0
 11
0.2541139639624628
 21
-2.743093134276865
 31
0.0
  0
LINE
  5
241
330
1F
100
AcDbEntity
  8
0
100
AcDbLine
 10
0.2541139639624628
 20
-2.743093134276865
 30
0.0
 11
0.2541139639624628
 21
-2.432463256427138
 31
0.0
  0
LINE
  5
242
330
1F
100
AcDbEntity
  8
0
100
AcDbLine
 10
0.2541139639624628
 20
-2.432463256427138
 30
0.0
 11
-0.1642160540176445
 21
-2.432463256427138
 31
0.0
  0
LINE
  5
243
330
1F
100
AcDbEntity
  8
0
100
AcDbLine
 10
-0.1642160540176445
 20
-2.833787989123501
 30
0.0
 11
-0.1642160540176445
 21
-4.089911728749406
 31
0.0
  0
LINE
  5
244
330
1F
100
AcDbEntity
  8
0
100
AcDbLine
 10
-0.1642160540176445
 20
-4.089911728749406
 30
0.0
 11
0.2541139639624628
 21
-4.089911728749406
 31
0.0
  0
LINE
  5
245
330
1F
100
AcDbEntity
  8
0
100
AcDbLine
 10
0.2541139639624628
 20
-4.089911728749406
 30
0.0
 11
0.2541139639624628
 21
-2.833787989123501
 31
0.0
  0
LINE
  5
246
330
1F
100
AcDbEntity
  8
0
100
AcDbLine
 10
0.2541139639624628
 20
-2.833787989123501
 30
0.0
 11
-0.1642160540176445
 21
-2.833787989123501
 31
0.0
  0
LINE
  5
247
330
1F
100
AcDbEntity
  8
0
100
AcDbLine
 10
1.052228686612857
 20
-3.32612642576557
 30
0.0
 11
1.428612334226395
 21
-3.32612642576557
 31
0.0
  0
LINE
  5
248
330
1F
100
AcDbEntity
  8
0
100
AcDbLine
 10
1.428612334226395
 20
-3.32612642576557
 30
0.0
 11
1.406540891035202
 21
-3.111319559105857
 31
0.0
  0
LINE
  5
249
330
1F
100
AcDbEntity
  8
0
100
AcDbLine
 10
1.406540891035202
 20
-3.111319559105857
 30
0.0
 11
1.376338795817719
 21
-3.021858030288264
 31
0.0
  0
LINE
  5
24A
330
1F
100
AcDbEntity
  8
0
100
AcDbLine
 10
1.376338795817719
 20
-3.021858030288264
 30
0.0
 11
1.329875396547656
 21
-2.946288579578771
 31
0.0
  0
LINE
  5
24B
330
1F
100
AcDbEntity
  8
0
100
AcDbLine
 10
1.329875396547656
 20
-2.946288579578771
 30
0.0
 11
1.265988222551318
 21
-2.885226762876972
 31
0.0
  0
LINE
  5
24C
330
1F
100
AcDbEntity
  8
0
100
AcDbLine
 10
1.265988222551318
 20
-2.885226762876972
 30
0.0
 11
1.183514803155014
 21
-2.839288136082462
 31
0.0
  0
LINE
  5
24D
330
1F
100
AcDbEntity
  8
0
100
AcDbLine
 10
1.183514803155014
 20
-2.839288136082462
 30
0.0
 11
1.07984234713025
 21
-2.810505362201812
 31
0.0
  0
LINE
  5
24E
330
1F
100
AcDbEntity
  8
0
100
AcDbLine
 10
1.07984234713025
 20
-2.810505362201812
 30
0.0
 11
0.9523580632485344
 21
-2.800911104241596
 31
0.0
  0
LINE
  5
24F
330
1F
100
AcDbEntity
  8
0
100
AcDbLine
 10
0.9523580632485344
 20
-2.800911104241596
 30
0.0
 11
0.731661345175442
 21
-2.824142803876628
 31
0.0
  0
LINE
  5
250
330
1F
100
AcDbEntity
  8
0
100
AcDbLine
 10
0.731661345175442
 20
-2.824142803876628
 30
0.0
 11
0.6361173269471131
 21
-2.859574910010803
 31
0.0
  0
LINE
  5
251
330
1F
100
AcDbEntity
  8
0
100
AcDbLine
 10
0.6361173269471131
 20
-2.859574910010803
 30
0.0
 11
0.5539384001214779
 21
-2.919407829143269
 31
0.0
  0
LINE
  5
252
330
1F
100
AcDbEntity
  8
0
100
AcDbLine
 10
0.5539384001214779
 20
-2.919407829143269
 30
0.0
 11
0.4862803926826638
 21
-3.007122330605541
 31
0.0
  0
LINE
  5
253
330
1F
100
AcDbEntity
  8
0
100
AcDbLine
 10
0.4862803926826638
 20
-3.007122330605541
 30
0.0
 11
0.4342991326148026
 21
-3.126199183729133
 31
0.0
  0
LINE
  5
254
330
1F
100
AcDbEntity
  8
0
100
AcDbLine
 10
0.4342991326148026
 20
-3.126199183729133
 30
0.0
 11
0.4011919678280126
 21
-3.283030870104436
 31
0.0
  0
LINE
  5
255
330
1F
100
AcDbEntity
  8
0
100
AcDbLine
 10
0.4011919678280126
 20
-3.283030870104436
 30
0.0
 11
0.3901562462324162
 21
-3.484009871321832
 31
0.0
  0
LINE
  5
256
330
1F
100
AcDbEntity
  8
0
100
AcDbLine
 10
0.3901562462324162
 20
-3.484009871321832
 30
0.0
 11
0.4000294971543194
 21
-3.668426433226416
 31
0.0
  0
LINE
  5
257
330
1F
100
AcDbEntity
  8
0
100
AcDbLine
 10
0.4000294971543194
 20
-3.668426433226416
 30
0.0
 11
0.4296492499200287
 21
-3.812769863221469
 31
0.0
  0
LINE
  5
258
330
1F
100
AcDbEntity
  8
0
100
AcDbLine
 10
0.4296492499200287
 20
-3.812769863221469
 30
0.0
 11
0.4769828415229714
 21
-3.923135936096852
 31
0.0
  0
LINE
  5
259
330
1F
100
AcDbEntity
  8
0
100
AcDbLine
 10
0.4769828415229714
 20
-3.923135936096852
 30
0.0
 11
0.539997608956575
 21
-4.00562042664243
 31
0.0
  0
LINE
  5
25A
330
1F
100
AcDbEntity
  8
0
100
AcDbLine
 10
0.539997608956575
 20
-4.00562042664243
 30
0.0
 11
0.6181134239989202
 21
-4.062255997864775
 31
0.0
  0
LINE
  5
25B
330
1F
100
AcDbEntity
  8
0
100
AcDbLine
 10
0.6181134239989202
 20
-4.062255997864775
 30
0.0
 11
0.7107501584280876
 21
-4.095075312770459
 31
0.0
  0
LINE
  5
25C
330
1F
100
AcDbEntity
  8
0
100
AcDbLine
 10
0.7107501584280876
 20
-4.095075312770459
 30
0.0
 11
0.9314557334205988
 21
-4.115986499517813
 31
0.0
  0
LINE
  5
25D
330
1F
100
AcDbEntity
  8
0
100
AcDbLine
 10
0.9314557334205988
 20
-4.115986499517813
 30
0.0
 11
1.05574377650712
 21
-4.108164732556248
 31
0.0
  0
LINE
  5
25E
330
1F
100
AcDbEntity
  8
0
100
AcDbLine
 10
1.05574377650712
 20
-4.108164732556248
 30
0.0
 11
1.16144778842353
 21
-4.08469943167155
 31
0.0
  0
LINE
  5
25F
330
1F
100
AcDbEntity
  8
0
100
AcDbLine
 10
1.16144778842353
 20
-4.08469943167155
 30
0.0
 11
1.248567769169827
 21
-4.04559059686372
 31
0.0
  0
LINE
  5
260
330
1F
100
AcDbEntity
  8
0
100
AcDbLine
 10
1.248567769169827
 20
-4.04559059686372
 30
0.0
 11
1.31710371874601
 21
-3.990838228132759
 31
0.0
  0
LINE
  5
261
330
1F
100
AcDbEntity
  8
0
100
AcDbLine
 10
1.31710371874601
 20
-3.990838228132759
 30
0.0
 11
1.368794914702913
 21
-3.914327729735038
 31
0.0
  0
LINE
  5
262
330
1F
100
AcDbEntity
  8
0
100
AcDbLine
 10
1.368794914702913
 20
-3.914327729735038
 30
0.0
 11
1.403060121703686
 21
-3.819208843638803
 31
0.0
  0
LINE
  5
263
330
1F
100
AcDbEntity
  8
0
100
AcDbLine
 10
1.403060121703686
 20
-3.819208843638803
 30
0.0
 11
1.428612334226395
 21
-3.566202083526596
 31
0.0
  0
LINE
  5
264
330
1F
100
AcDbEntity
  8
0
100
AcDbLine
 10
1.428612334226395
 20
-3.566202083526596
 30
0.0
 11
1.052228686612857
 21
-3.566202083526596
 31
0.0
  0
LINE
  5
265
330
1F
100
AcDbEntity
  8
0
100
AcDbLine
 10
1.052228686612857
 20
-3.566202083526596
 30
0.0
 11
1.052228686612857
 21
-3.647455462272986
 31
0.0
  0
LINE
  5
266
330
1F
100
AcDbEntity
  8
0
100
AcDbLine
 10
1.052228686612857
 20
-3.647455462272986
 30
0.0
 11
1.044394741387091
 21
-3.747297300649199
 31
0.0
  0
LINE
  5
267
330
1F
100
AcDbEntity
  8
0
100
AcDbLine
 10
1.044394741387091
 20
-3.747297300649199
 30
0.0
 11
1.020892905709791
 21
-3.809988790524023
 31
0.0
  0
LINE
  5
268
330
1F
100
AcDbEntity
  8
0
100
AcDbLine
 10
1.020892905709791
 20
-3.809988790524023
 30
0.0
 11
0.9828834360247971
 21
-3.84307602724212
 31
0.0
  0
LINE
  5
269
330
1F
100
AcDbEntity
  8
0
100
AcDbLine
 10
0.9828834360247971
 20
-3.84307602724212
 30
0.0
 11
0.9315265887759479
 21
-3.854105106148153
 31
0.0
  0
LINE
  5
26A
330
1F
100
AcDbEntity
  8
0
100
AcDbLine
 10
0.9315265887759479
 20
-3.854105106148153
 30
0.0
 11
0.8723269393819135
 21
-3.836674688732315
 31
0.0
  0
LINE
  5
26B
330
1F
100
AcDbEntity
  8
0
100
AcDbLine
 10
0.8723269393819135
 20
-3.836674688732315
 30
0.0
 11
0.8340207628963962
 21
-3.775074814175836
 31
0.0
  0
LINE
  5
26C
330
1F
100
AcDbEntity
  8
0
100
AcDbLine
 10
0.8340207628963962
 20
-3.775074814175836
 30
0.0
 11
0.8142875464317175
 21
-3.655355834394392
 31
0.0
  0
LINE
  5
26D
330
1F
100
AcDbEntity
  8
0
100
AcDbLine
 10
0.8142875464317175
 20
-3.655355834394392
 30
0.0
 11
0.8084862642125236
 21
-3.463585815142503
 31
0.0
  0
LINE
  5
26E
330
1F
100
AcDbEntity
  8
0
100
AcDbLine
 10
0.8084862642125236
 20
-3.463585815142503
 30
0.0
 11
0.8142875464317175
 21
-3.271798082051775
 31
0.0
  0
LINE
  5
26F
330
1F
100
AcDbEntity
  8
0
100
AcDbLine
 10
0.8142875464317175
 20
-3.271798082051775
 30
0.0
 11
0.8340207628963962
 21
-3.150918845826493
 31
0.0
  0
LINE
  5
270
330
1F
100
AcDbEntity
  8
0
100
AcDbLine
 10
0.8340207628963962
 20
-3.150918845826493
 30
0.0
 11
0.8723269393819135
 21
-3.088158714826174
 31
0.0
  0
LINE
  5
271
330
1F
100
AcDbEntity
  8
0
100
AcDbLine
 10
0.8723269393819135
 20
-3.088158714826174
 30
0.0
 11
0.9315265887759479
 21
-3.070728297410337
 31
0.0
  0
LINE
  5
272
330
1F
100
AcDbEntity
  8
0
100
AcDbLine
 10
0.9315265887759479
 20
-3.070728297410337
 30
0.0
 11
0.988392439903177
 21
-3.084080103433902
 31
0.0
  0
LINE
  5
273
330
1F
100
AcDbEntity
  8
0
100
AcDbLine
 10
0.988392439903177
 20
-3.084080103433902
 30
0.0
 11
1.024364818121889
 21
-3.124135521504596
 31
0.0
  0
LINE
  5
274
330
1F
100
AcDbEntity
  8
0
100
AcDbLine
 10
1.024364818121889
 20
-3.124135521504596
 30
0.0
 11
1.045267147949824
 21
-3.201916987838889
 31
0.0
  0
LINE
  5
275
330
1F
100
AcDbEntity
  8
0
100
AcDbLine
 10
1.045267147949824
 20
-3.201916987838889
 30
0.0
 11
1.052228686612857
 21
-3.32612642576557
 31
0.0
  0
LINE
  5
276
330
1F
100
AcDbEntity
  8
0
100
AcDbLine
 10
1.531777731614444
 20
-2.432463256427138
 30
0.0
 11
1.531777731614444
 21
-4.089911728749406
 31
0.0
  0
LINE
  5
277
330
1F
100
AcDbEntity
  8
0
100
AcDbLine
 10
1.531777731614444
 20
-4.089911728749406
 30
0.0
 11
1.950107749594551
 21
-4.089911728749406
 31
0.0
  0
LINE
  5
278
330
1F
100
AcDbEntity
  8
0
100
AcDbLine
 10
1.950107749594551
 20
-4.089911728749406
 30
0.0
 11
1.950107749594551
 21
-3.76723644049036
 31
0.0
  0
LINE
  5
279
330
1F
100
AcDbEntity
  8
0
100
AcDbLine
 10
1.950107749594551
 20
-3.76723644049036
 30
0.0
 11
2.019758563902553
 21
-3.658136907091838
 31
0.0
  0
LINE
  5
27A
330
1F
100
AcDbEntity
  8
0
100
AcDbLine
 10
2.019758563902553
 20
-3.658136907091838
 30
0.0
 11
2.231049233553075
 21
-4.089911728749406
 31
0.0
  0
LINE
  5
27B
330
1F
100
AcDbEntity
  8
0
100
AcDbLine
 10
2.231049233553075
 20
-4.089911728749406
 30
0.0
 11
2.676835701730894
 21
-4.089911728749406
 31
0.0
  0
LINE
  5
27C
330
1F
100
AcDbEntity
  8
0
100
AcDbLine
 10
2.676835701730894
 20
-4.089911728749406
 30
0.0
 11
2.284456457647334
 21
-3.351563498335838
 31
0.0
  0
LINE
  5
27D
330
1F
100
AcDbEntity
  8
0
100
AcDbLine
 10
2.284456457647334
 20
-3.351563498335838
 30
0.0
 11
2.632710529187345
 21
-2.833787989123501
 31
0.0
  0
LINE
  5
27E
330
1F
100
AcDbEntity
  8
0
100
AcDbLine
 10
2.632710529187345
 20
-2.833787989123501
 30
0.0
 11
2.186941774848364
 21
-2.833787989123501
 31
0.0
  0
LINE
  5
27F
330
1F
100
AcDbEntity
  8
0
100
AcDbLine
 10
2.186941774848364
 20
-2.833787989123501
 30
0.0
 11
1.954748775369906
 21
-3.268149031251304
 31
0.0
  0
LINE
  5
280
330
1F
100
AcDbEntity
  8
0
100
AcDbLine
 10
1.954748775369906
 20
-3.268149031251304
 30
0.0
 11
1.950107749594551
 21
-3.268149031251304
 31
0.0
  0
LINE
  5
281
330
1F
100
AcDbEntity
  8
0
100
AcDbLine
 10
1.950107749594551
 20
-3.268149031251304
 30
0.0
 11
1.950107749594551
 21
-2.432463256427138
 31
0.0
  0
LINE
  5
282
330
1F
100
AcDbEntity
  8
0
100
AcDbLine
 10
1.950107749594551
 20
-2.432463256427138
 30
0.0
 11
1.531777731614444
 21
-2.432463256427138
 31
0.0
  0
LINE
  5
283
330
1F
100
AcDbEntity
  8
0
100
AcDbLine
 10
2.391698042351476
 20
-5.774069850946119
 30
0.0
 11
3.382371808594634
 21
-3.382371808594642
 31
0.0
  0
LINE
  5
284
330
1F
100
AcDbEntity
  8
0
100
AcDbLine
 10
-3.38237180859463
 20
-3.382371808594642
 30
0.0
 11
-2.391698042351476
 21
-5.774069850946119
 31
0.0
  0
LINE
  5
285
330
1F
100
AcDbEntity
  8
0
100
AcDbLine
 10
0.000000000000004
 20
-0.000000000000008
 30
0.0
 11
-2.391698042351476
 21
-0.9906737662431659
 31
0.0
  0
LINE
  5
286
330
1F
100
AcDbEntity
  8
0
100
AcDbLine
 10
0.0
 20
-6.764743617189277
 30
0.0
 11
2.391698042351476
 21
-5.774069850946119
 31
0.0
  0
LINE
  5
287
330
1F
100
AcDbEntity
  8
0
100
AcDbLine
 10
-2.391698042351476
 20
-5.774069850946119
 30
0.0
 11
0.0
 21
-6.764743617189277
 31
0.0
  0
LINE
  5
288
330
1F
100
AcDbEntity
  8
0
100
AcDbLine
 10
3.382371808594634
 20
-3.382371808594642
 30
0.0
 11
2.391698042351476
 21
-0.9906737662431659
 31
0.0
  0
LINE
  5
289
330
1F
100
AcDbEntity
  8
0
100
AcDbLine
 10
-2.391698042351476
 20
-0.9906737662431659
 30
0.0
 11
-3.38237180859463
 21
-3.382371808594642
 31
0.0
  0
LINE
  5
28A
330
1F
100
AcDbEntity
  8
0
100
AcDbLine
 10
2.391698042351476
 20
-0.9906737662431659
 30
0.0
 11
0.000000000000004
 21
-0.000000000000008
 31
0.0
  0
LINE
  5
28B
330
1F
100
AcDbEntity
  8
0
100
AcDbLine
 10
4.736209967761485
 20
2.598663795378513
 30
0.0
 11
4.962315630834834
 21
2.794563504007638
 31
0.0
  0
LINE
  5
28C
330
1F
100
AcDbEntity
  8
0
100
AcDbLine
 10
4.962315630834834
 20
2.794563504007638
 30
0.0
 11
4.788689155314518
 21
2.968236189555149
 31
0.0
  0
LINE
  5
28D
330
1F
100
AcDbEntity
  8
0
100
AcDbLine
 10
4.788689155314518
 20
2.968236189555149
 30
0.0
 11
4.844206652155721
 21
3.072241482850275
 31
0.0
  0
LINE
  5
28E
330
1F
100
AcDbEntity
  8
0
100
AcDbLine
 10
4.844206652155721
 20
3.072241482850275
 30
0.0
 11
4.881555906637442
 21
3.202497922428707
 31
0.0
  0
LINE
  5
28F
330
1F
100
AcDbEntity
  8
0
100
AcDbLine
 10
4.881555906637442
 20
3.202497922428707
 30
0.0
 11
4.902754756613908
 21
3.362039966743036
 31
0.0
  0
LINE
  5
290
330
1F
100
AcDbEntity
  8
0
100
AcDbLine
 10
4.902754756613908
 20
3.362039966743036
 30
0.0
 11
4.909821039939406
 21
3.553902074245846
 31
0.0
  0
LINE
  5
291
330
1F
100
AcDbEntity
  8
0
100
AcDbLine
 10
4.909821039939406
 20
3.553902074245846
 30
0.0
 11
4.903255365241874
 21
3.740950637249001
 31
0.0
  0
LINE
  5
292
330
1F
100
AcDbEntity
  8
0
100
AcDbLine
 10
4.903255365241874
 20
3.740950637249001
 30
0.0
 11
4.883558341149298
 21
3.898220688559493
 31
0.0
  0
LINE
  5
293
330
1F
100
AcDbEntity
  8
0
100
AcDbLine
 10
4.883558341149298
 20
3.898220688559493
 30
0.0
 11
4.848712129807393
 21
4.027473985464201
 31
0.0
  0
LINE
  5
294
330
1F
100
AcDbEntity
  8
0
100
AcDbLine
 10
4.848712129807393
 20
4.027473985464201
 30
0.0
 11
4.796698893361937
 21
4.130472285249993
 31
0.0
  0
LINE
  5
295
330
1F
100
AcDbEntity
  8
0
100
AcDbLine
 10
4.796698893361937
 20
4.130472285249993
 30
0.0
 11
4.726507787467984
 21
4.208224506844004
 31
0.0
  0
LINE
  5
296
330
1F
100
AcDbEntity
  8
0
100
AcDbLine
 10
4.726507787467984
 20
4.208224506844004
 30
0.0
 11
4.637127967780613
 21
4.261739569173358
 31
0.0
  0
LINE
  5
297
330
1F
100
AcDbEntity
  8
0
100
AcDbLine
 10
4.637127967780613
 20
4.261739569173358
 30
0.0
 11
4.527042205073522
 21
4.292786931196133
 31
0.0
  0
LINE
  5
298
330
1F
100
AcDbEntity
  8
0
100
AcDbLine
 10
4.527042205073522
 20
4.292786931196133
 30
0.0
 11
4.394733270120437
 21
4.303136051870379
 31
0.0
  0
LINE
  5
299
330
1F
100
AcDbEntity
  8
0
100
AcDbLine
 10
4.394733270120437
 20
4.303136051870379
 30
0.0
 11
4.262424335167345
 21
4.292785005778326
 31
0.0
  0
LINE
  5
29A
330
1F
100
AcDbEntity
  8
0
100
AcDbLine
 10
4.262424335167345
 20
4.292785005778326
 30
0.0
 11
4.15233857246026
 21
4.261731867502164
 31
0.0
  0
LINE
  5
29B
330
1F
100
AcDbEntity
  8
0
100
AcDbLine
 10
4.15233857246026
 20
4.261731867502164
 30
0.0
 11
4.062958752772883
 21
4.208211028919403
 31
0.0
  0
LINE
  5
29C
330
1F
100
AcDbEntity
  8
0
100
AcDbLine
 10
4.062958752772883
 20
4.208211028919403
 30
0.0
 11
3.992767646878936
 21
4.130456881907599
 31
0.0
  0
LINE
  5
29D
330
1F
100
AcDbEntity
  8
0
100
AcDbLine
 10
3.992767646878936
 20
4.130456881907599
 30
0.0
 11
3.940754410433473
 21
4.027456656704
 31
0.0
  0
LINE
  5
29E
330
1F
100
AcDbEntity
  8
0
100
AcDbLine
 10
3.940754410433473
 20
4.027456656704
 30
0.0
 11
3.905908199091582
 21
3.898197583545892
 31
0.0
  0
LINE
  5
29F
330
1F
100
AcDbEntity
  8
0
100
AcDbLine
 10
3.905908199091582
 20
3.898197583545892
 30
0.0
 11
3.886211174998992
 21
3.740914054310799
 31
0.0
  0
LINE
  5
2A0
330
1F
100
AcDbEntity
  8
0
100
AcDbLine
 10
3.886211174998992
 20
3.740914054310799
 30
0.0
 11
3.879645500301468
 21
3.55384046087625
 31
0.0
  0
LINE
  5
2A1
330
1F
100
AcDbEntity
  8
0
100
AcDbLine
 10
3.879645500301468
 20
3.55384046087625
 30
0.0
 11
3.886213100416793
 21
3.366778419948501
 31
0.0
  0
LINE
  5
2A2
330
1F
100
AcDbEntity
  8
0
100
AcDbLine
 10
3.886213100416793
 20
3.366778419948501
 30
0.0
 11
3.905915900762776
 21
3.209498741549001
 31
0.0
  0
LINE
  5
2A3
330
1F
100
AcDbEntity
  8
0
100
AcDbLine
 10
3.905915900762776
 20
3.209498741549001
 30
0.0
 11
3.940771739193667
 21
3.080237742973094
 31
0.0
  0
LINE
  5
2A4
330
1F
100
AcDbEntity
  8
0
100
AcDbLine
 10
3.940771739193667
 20
3.080237742973094
 30
0.0
 11
3.992798453563731
 21
2.977231741516107
 31
0.0
  0
LINE
  5
2A5
330
1F
100
AcDbEntity
  8
0
100
AcDbLine
 10
3.992798453563731
 20
2.977231741516107
 30
0.0
 11
4.063010739053486
 21
2.900230432864035
 31
0.0
  0
LINE
  5
2A6
330
1F
100
AcDbEntity
  8
0
100
AcDbLine
 10
4.063010739053486
 20
2.900230432864035
 30
0.0
 11
4.152423290843458
 21
2.848983512702925
 31
0.0
  0
LINE
  5
2A7
330
1F
100
AcDbEntity
  8
0
100
AcDbLine
 10
4.152423290843458
 20
2.848983512702925
 30
0.0
 11
4.262549487324338
 21
2.820206218266194
 31
0.0
  0
LINE
  5
2A8
330
1F
100
AcDbEntity
  8
0
100
AcDbLine
 10
4.262549487324338
 20
2.820206218266194
 30
0.0
 11
4.394902706886818
 21
2.810613786787286
 31
0.0
  0
LINE
  5
2A9
330
1F
100
AcDbEntity
  8
0
100
AcDbLine
 10
4.394902706886818
 20
2.810613786787286
 30
0.0
 11
4.431269998290608
 21
2.810613786787286
 31
0.0
  0
LINE
  5
2AA
330
1F
100
AcDbEntity
  8
0
100
AcDbLine
 10
4.431269998290608
 20
2.810613786787286
 30
0.0
 11
4.482801880286106
 21
2.813863892033454
 31
0.0
  0
LINE
  5
2AB
330
1F
100
AcDbEntity
  8
0
100
AcDbLine
 10
4.482801880286106
 20
2.813863892033454
 30
0.0
 11
4.530282683230696
 21
2.821457739836098
 31
0.0
  0
LINE
  5
2AC
330
1F
100
AcDbEntity
  8
0
100
AcDbLine
 10
4.530282683230696
 20
2.821457739836098
 30
0.0
 11
4.736209967761485
 21
2.598663795378513
 31
0.0
  0
LINE
  5
2AD
330
1F
100
AcDbEntity
  8
0
100
AcDbLine
 10
4.267070368318412
 20
3.553917477588247
 30
0.0
 11
4.271121447369321
 21
3.795295554650091
 31
0.0
  0
LINE
  5
2AE
330
1F
100
AcDbEntity
  8
0
100
AcDbLine
 10
4.271121447369321
 20
3.795295554650091
 30
0.0
 11
4.288342384171289
 21
3.947796346070331
 31
0.0
  0
LINE
  5
2AF
330
1F
100
AcDbEntity
  8
0
100
AcDbLine
 10
4.288342384171289
 20
3.947796346070331
 30
0.0
 11
4.326843038497315
 21
4.026576740769467
 31
0.0
  0
LINE
  5
2B0
330
1F
100
AcDbEntity
  8
0
100
AcDbLine
 10
4.326843038497315
 20
4.026576740769467
 30
0.0
 11
4.394733270120437
 21
4.048796062179867
 31
0.0
  0
LINE
  5
2B1
330
1F
100
AcDbEntity
  8
0
100
AcDbLine
 10
4.394733270120437
 20
4.048796062179867
 30
0.0
 11
4.462623501743558
 21
4.026576740769467
 31
0.0
  0
LINE
  5
2B2
330
1F
100
AcDbEntity
  8
0
100
AcDbLine
 10
4.462623501743558
 20
4.026576740769467
 30
0.0
 11
4.501124156069592
 21
3.947796346070331
 31
0.0
  0
LINE
  5
2B3
330
1F
100
AcDbEntity
  8
0
100
AcDbLine
 10
4.501124156069592
 20
3.947796346070331
 30
0.0
 11
4.518345092871546
 21
3.795295554650091
 31
0.0
  0
LINE
  5
2B4
330
1F
100
AcDbEntity
  8
0
100
AcDbLine
 10
4.518345092871546
 20
3.795295554650091
 30
0.0
 11
4.522396171922455
 21
3.553917477588247
 31
0.0
  0
LINE
  5
2B5
330
1F
100
AcDbEntity
  8
0
100
AcDbLine
 10
4.522396171922455
 20
3.553917477588247
 30
0.0
 11
4.518345092871546
 21
3.312539400526396
 31
0.0
  0
LINE
  5
2B6
330
1F
100
AcDbEntity
  8
0
100
AcDbLine
 10
4.518345092871546
 20
3.312539400526396
 30
0.0
 11
4.501124156069592
 21
3.160038609106163
 31
0.0
  0
LINE
  5
2B7
330
1F
100
AcDbEntity
  8
0
100
AcDbLine
 10
4.501124156069592
 20
3.160038609106163
 30
0.0
 11
4.462623501743558
 21
3.081258214407026
 31
0.0
  0
LINE
  5
2B8
330
1F
100
AcDbEntity
  8
0
100
AcDbLine
 10
4.462623501743558
 20
3.081258214407026
 30
0.0
 11
4.394733270120437
 21
3.059038892996627
 31
0.0
  0
LINE
  5
2B9
330
1F
100
AcDbEntity
  8
0
100
AcDbLine
 10
4.394733270120437
 20
3.059038892996627
 30
0.0
 11
4.326843038497315
 21
3.081258214407026
 31
0.0
  0
LINE
  5
2BA
330
1F
100
AcDbEntity
  8
0
100
AcDbLine
 10
4.326843038497315
 20
3.081258214407026
 30
0.0
 11
4.288342384171289
 21
3.160038609106163
 31
0.0
  0
LINE
  5
2BB
330
1F
100
AcDbEntity
  8
0
100
AcDbLine
 10
4.288342384171289
 20
3.160038609106163
 30
0.0
 11
4.271121447369321
 21
3.312539400526396
 31
0.0
  0
LINE
  5
2BC
330
1F
100
AcDbEntity
  8
0
100
AcDbLine
 10
4.271121447369321
 20
3.312539400526396
 30
0.0
 11
4.267070368318412
 21
3.553917477588247
 31
0.0
  0
LINE
  5
2BD
330
1F
100
AcDbEntity
  8
0
100
AcDbLine
 10
5.029104523476425
 20
3.925569322988724
 30
0.0
 11
5.029104523476425
 21
3.101475101305569
 31
0.0
  0
LINE
  5
2BE
330
1F
100
AcDbEntity
  8
0
100
AcDbLine
 10
5.029104523476425
 20
3.101475101305569
 30
0.0
 11
5.051269933188435
 21
2.957053362973553
 31
0.0
  0
LINE
  5
2BF
330
1F
100
AcDbEntity
  8
0
100
AcDbLine
 10
5.051269933188435
 20
2.957053362973553
 30
0.0
 11
5.111720350432887
 21
2.866158239477691
 31
0.0
  0
LINE
  5
2C0
330
1F
100
AcDbEntity
  8
0
100
AcDbLine
 10
5.111720350432887
 20
2.866158239477691
 30
0.0
 11
5.201390908208046
 21
2.821719596656878
 31
0.0
  0
LINE
  5
2C1
330
1F
100
AcDbEntity
  8
0
100
AcDbLine
 10
5.201390908208046
 20
2.821719596656878
 30
0.0
 11
5.313234577366402
 21
2.810613786787286
 31
0.0
  0
LINE
  5
2C2
330
1F
100
AcDbEntity
  8
0
100
AcDbLine
 10
5.313234577366402
 20
2.810613786787286
 30
0.0
 11
5.403034138134153
 21
2.820359288981278
 31
0.0
  0
LINE
  5
2C3
330
1F
100
AcDbEntity
  8
0
100
AcDbLine
 10
5.403034138134153
 20
2.820359288981278
 30
0.0
 11
5.476964405395426
 21
2.849595795563276
 31
0.0
  0
LINE
  5
2C4
330
1F
100
AcDbEntity
  8
0
100
AcDbLine
 10
5.476964405395426
 20
2.849595795563276
 30
0.0
 11
5.535025379150254
 21
2.898323306533273
 31
0.0
  0
LINE
  5
2C5
330
1F
100
AcDbEntity
  8
0
100
AcDbLine
 10
5.535025379150254
 20
2.898323306533273
 30
0.0
 11
5.577217059398625
 21
2.966541821891269
 31
0.0
  0
LINE
  5
2C6
330
1F
100
AcDbEntity
  8
0
100
AcDbLine
 10
5.577217059398625
 20
2.966541821891269
 30
0.0
 11
5.581452978558324
 21
2.966541821891269
 31
0.0
  0
LINE
  5
2C7
330
1F
100
AcDbEntity
  8
0
100
AcDbLine
 10
5.581452978558324
 20
2.966541821891269
 30
0.0
 11
5.581160315052748
 21
2.833287506798448
 31
0.0
  0
LINE
  5
2C8
330
1F
100
AcDbEntity
  8
0
100
AcDbLine
 10
5.581160315052748
 20
2.833287506798448
 30
0.0
 11
5.933095882182641
 21
2.833287506798448
 31
0.0
  0
LINE
  5
2C9
330
1F
100
AcDbEntity
  8
0
100
AcDbLine
 10
5.933095882182641
 20
2.833287506798448
 30
0.0
 11
5.933095882182641
 21
3.925569322988724
 31
0.0
  0
LINE
  5
2CA
330
1F
100
AcDbEntity
  8
0
100
AcDbLine
 10
5.933095882182641
 20
3.925569322988724
 30
0.0
 11
5.569330548090391
 21
3.925569322988724
 31
0.0
  0
LINE
  5
2CB
330
1F
100
AcDbEntity
  8
0
100
AcDbLine
 10
5.569330548090391
 20
3.925569322988724
 30
0.0
 11
5.569330548090391
 21
3.204985562226129
 31
0.0
  0
LINE
  5
2CC
330
1F
100
AcDbEntity
  8
0
100
AcDbLine
 10
5.569330548090391
 20
3.204985562226129
 30
0.0
 11
5.549275396287037
 21
3.106072999011646
 31
0.0
  0
LINE
  5
2CD
330
1F
100
AcDbEntity
  8
0
100
AcDbLine
 10
5.549275396287037
 20
3.106072999011646
 30
0.0
 11
5.522204022020981
 21
3.083366546897875
 31
0.0
  0
LINE
  5
2CE
330
1F
100
AcDbEntity
  8
0
100
AcDbLine
 10
5.522204022020981
 20
3.083366546897875
 30
0.0
 11
5.481100202829533
 21
3.075797729526617
 31
0.0
  0
LINE
  5
2CF
330
1F
100
AcDbEntity
  8
0
100
AcDbLine
 10
5.481100202829533
 20
3.075797729526617
 30
0.0
 11
5.439996383638086
 21
3.083366546897875
 31
0.0
  0
LINE
  5
2D0
330
1F
100
AcDbEntity
  8
0
100
AcDbLine
 10
5.439996383638086
 20
3.083366546897875
 30
0.0
 11
5.412925009372031
 21
3.106072999011646
 31
0.0
  0
LINE
  5
2D1
330
1F
100
AcDbEntity
  8
0
100
AcDbLine
 10
5.412925009372031
 20
3.106072999011646
 30
0.0
 11
5.392869857568683
 21
3.204985562226129
 31
0.0
  0
LINE
  5
2D2
330
1F
100
AcDbEntity
  8
0
100
AcDbLine
 10
5.392869857568683
 20
3.204985562226129
 30
0.0
 11
5.392869857568683
 21
3.925569322988724
 31
0.0
  0
LINE
  5
2D3
330
1F
100
AcDbEntity
  8
0
100
AcDbLine
 10
5.392869857568683
 20
3.925569322988724
 30
0.0
 11
5.029104523476425
 21
3.925569322988724
 31
0.0
  0
LINE
  5
2D4
330
1F
100
AcDbEntity
  8
0
100
AcDbLine
 10
6.474507964161322
 20
3.049180753861331
 30
0.0
 11
6.438131045668533
 21
3.057257881531755
 31
0.0
  0
LINE
  5
2D5
330
1F
100
AcDbEntity
  8
0
100
AcDbLine
 10
6.438131045668533
 20
3.057257881531755
 30
0.0
 11
6.409837031099567
 21
3.081489264543012
 31
0.0
  0
LINE
  5
2D6
330
1F
100
AcDbEntity
  8
0
100
AcDbLine
 10
6.409837031099567
 20
3.081489264543012
 30
0.0
 11
6.385584468492516
 21
3.168325607316771
 31
0.0
  0
LINE
  5
2D7
330
1F
100
AcDbEntity
  8
0
100
AcDbLine
 10
6.385584468492516
 20
3.168325607316771
 30
0.0
 11
6.40175027634015
 21
3.256163167346448
 31
0.0
  0
LINE
  5
2D8
330
1F
100
AcDbEntity
  8
0
100
AcDbLine
 10
6.40175027634015
 20
3.256163167346448
 30
0.0
 11
6.460352292496739
 21
3.309682080511402
 31
0.0
  0
LINE
  5
2D9
330
1F
100
AcDbEntity
  8
0
100
AcDbLine
 10
6.460352292496739
 20
3.309682080511402
 30
0.0
 11
6.534118899245031
 21
3.332894917506533
 31
0.0
  0
LINE
  5
2DA
330
1F
100
AcDbEntity
  8
0
100
AcDbLine
 10
6.534118899245031
 20
3.332894917506533
 30
0.0
 11
6.583640645057478
 21
3.360158833552579
 31
0.0
  0
LINE
  5
2DB
330
1F
100
AcDbEntity
  8
0
100
AcDbLine
 10
6.583640645057478
 20
3.360158833552579
 30
0.0
 11
6.587676320765979
 21
3.360158833552579
 31
0.0
  0
LINE
  5
2DC
330
1F
100
AcDbEntity
  8
0
100
AcDbLine
 10
6.587676320765979
 20
3.360158833552579
 30
0.0
 11
6.587676320765979
 21
3.228906952971609
 31
0.0
  0
LINE
  5
2DD
330
1F
100
AcDbEntity
  8
0
100
AcDbLine
 10
6.587676320765979
 20
3.228906952971609
 30
0.0
 11
6.581108720650654
 21
3.149641352986907
 31
0.0
  0
LINE
  5
2DE
330
1F
100
AcDbEntity
  8
0
100
AcDbLine
 10
6.581108720650654
 20
3.149641352986907
 30
0.0
 11
6.561405920304671
 21
3.093603993339743
 31
0.0
  0
LINE
  5
2DF
330
1F
100
AcDbEntity
  8
0
100
AcDbLine
 10
6.561405920304671
 20
3.093603993339743
 30
0.0
 11
6.526546231038173
 21
3.060286563730931
 31
0.0
  0
LINE
  5
2E0
330
1F
100
AcDbEntity
  8
0
100
AcDbLine
 10
6.526546231038173
 20
3.060286563730931
 30
0.0
 11
6.474507964161322
 21
3.049180753861331
 31
0.0
  0
LINE
  5
2E1
330
1F
100
AcDbEntity
  8
0
100
AcDbLine
 10
6.609887940505185
 20
2.833287506798448
 30
0.0
 11
6.961114953884736
 21
2.833287506798448
 31
0.0
  0
LINE
  5
2E2
330
1F
100
AcDbEntity
  8
0
100
AcDbLine
 10
6.961114953884736
 20
2.833287506798448
 30
0.0
 11
6.932849820582771
 21
2.93426411789439
 31
0.0
  0
LINE
  5
2E3
330
1F
100
AcDbEntity
  8
0
100
AcDbLine
 10
6.932849820582771
 20
2.93426411789439
 30
0.0
 11
6.926796307019999
 21
3.069574779197464
 31
0.0
  0
LINE
  5
2E4
330
1F
100
AcDbEntity
  8
0
100
AcDbLine
 10
6.926796307019999
 20
3.069574779197464
 30
0.0
 11
6.926796307019999
 21
3.602746072992732
 31
0.0
  0
LINE
  5
2E5
330
1F
100
AcDbEntity
  8
0
100
AcDbLine
 10
6.926796307019999
 20
3.602746072992732
 30
0.0
 11
6.918975259916968
 21
3.699939238111952
 31
0.0
  0
LINE
  5
2E6
330
1F
100
AcDbEntity
  8
0
100
AcDbLine
 10
6.918975259916968
 20
3.699939238111952
 30
0.0
 11
6.895512118607852
 21
3.777443080809777
 31
0.0
  0
LINE
  5
2E7
330
1F
100
AcDbEntity
  8
0
100
AcDbLine
 10
6.895512118607852
 20
3.777443080809777
 30
0.0
 11
6.857666106333773
 21
3.838032128135822
 31
0.0
  0
LINE
  5
2E8
330
1F
100
AcDbEntity
  8
0
100
AcDbLine
 10
6.857666106333773
 20
3.838032128135822
 30
0.0
 11
6.806696446335836
 21
3.884480907139678
 31
0.0
  0
LINE
  5
2E9
330
1F
100
AcDbEntity
  8
0
100
AcDbLine
 10
6.806696446335836
 20
3.884480907139678
 30
0.0
 11
6.743615908376769
 21
3.917802187584083
 31
0.0
  0
LINE
  5
2EA
330
1F
100
AcDbEntity
  8
0
100
AcDbLine
 10
6.743615908376769
 20
3.917802187584083
 30
0.0
 11
6.669437262219303
 21
3.939008739231757
 31
0.0
  0
LINE
  5
2EB
330
1F
100
AcDbEntity
  8
0
100
AcDbLine
 10
6.669437262219303
 20
3.939008739231757
 30
0.0
 11
6.494840376127857
 21
3.954157926481072
 31
0.0
  0
LINE
  5
2EC
330
1F
100
AcDbEntity
  8
0
100
AcDbLine
 10
6.494840376127857
 20
3.954157926481072
 30
0.0
 11
6.359606731536775
 21
3.941026577086014
 31
0.0
  0
LINE
  5
2ED
330
1F
100
AcDbEntity
  8
0
100
AcDbLine
 10
6.359606731536775
 20
3.941026577086014
 30
0.0
 11
6.224373086945707
 21
3.888493477834591
 31
0.0
  0
LINE
  5
2EE
330
1F
100
AcDbEntity
  8
0
100
AcDbLine
 10
6.224373086945707
 20
3.888493477834591
 30
0.0
 11
6.166849304757039
 21
3.841012674890009
 31
0.0
  0
LINE
  5
2EF
330
1F
100
AcDbEntity
  8
0
100
AcDbLine
 10
6.166849304757039
 20
3.841012674890009
 30
0.0
 11
6.119414711839646
 21
3.777373765768987
 31
0.0
  0
LINE
  5
2F0
330
1F
100
AcDbEntity
  8
0
100
AcDbLine
 10
6.119414711839646
 20
3.777373765768987
 30
0.0
 11
6.087622213128332
 21
3.693783677405795
 31
0.0
  0
LINE
  5
2F1
330
1F
100
AcDbEntity
  8
0
100
AcDbLine
 10
6.087622213128332
 20
3.693783677405795
 30
0.0
 11
6.077024713557893
 21
3.586449336734705
 31
0.0
  0
LINE
  5
2F2
330
1F
100
AcDbEntity
  8
0
100
AcDbLine
 10
6.077024713557893
 20
3.586449336734705
 30
0.0
 11
6.391499351973687
 21
3.586449336734705
 31
0.0
  0
LINE
  5
2F3
330
1F
100
AcDbEntity
  8
0
100
AcDbLine
 10
6.391499351973687
 20
3.586449336734705
 30
0.0
 11
6.399079721851745
 21
3.659147336604081
 31
0.0
  0
LINE
  5
2F4
330
1F
100
AcDbEntity
  8
0
100
AcDbLine
 10
6.399079721851745
 20
3.659147336604081
 30
0.0
 11
6.417785155777397
 21
3.702967920311128
 31
0.0
  0
LINE
  5
2F5
330
1F
100
AcDbEntity
  8
0
100
AcDbLine
 10
6.417785155777397
 20
3.702967920311128
 30
0.0
 11
6.449132882976946
 21
3.725004327030545
 31
0.0
  0
LINE
  5
2F6
330
1F
100
AcDbEntity
  8
0
100
AcDbLine
 10
6.449132882976946
 20
3.725004327030545
 30
0.0
 11
6.494640132676674
 21
3.732349795937017
 31
0.0
  0
LINE
  5
2F7
330
1F
100
AcDbEntity
  8
0
100
AcDbLine
 10
6.494640132676674
 20
3.732349795937017
 30
0.0
 11
6.535343464965747
 21
3.726033462844568
 31
0.0
  0
LINE
  5
2F8
330
1F
100
AcDbEntity
  8
0
100
AcDbLine
 10
6.535343464965747
 20
3.726033462844568
 30
0.0
 11
6.564417273743652
 21
3.707084463567227
 31
0.0
  0
LINE
  5
2F9
330
1F
100
AcDbEntity
  8
0
100
AcDbLine
 10
6.564417273743652
 20
3.707084463567227
 30
0.0
 11
6.5818615590104
 21
3.675502798105009
 31
0.0
  0
LINE
  5
2FA
330
1F
100
AcDbEntity
  8
0
100
AcDbLine
 10
6.5818615590104
 20
3.675502798105009
 30
0.0
 11
6.587676320765979
 21
3.631288466457884
 31
0.0
  0
LINE
  5
2FB
330
1F
100
AcDbEntity
  8
0
100
AcDbLine
 10
6.587676320765979
 20
3.631288466457884
 30
0.0
 11
6.581620881785413
 21
3.586562936384898
 31
0.0
  0
LINE
  5
2FC
330
1F
100
AcDbEntity
  8
0
100
AcDbLine
 10
6.581620881785413
 20
3.586562936384898
 30
0.0
 11
6.563454564843724
 21
3.553463078987477
 31
0.0
  0
LINE
  5
2FD
330
1F
100
AcDbEntity
  8
0
100
AcDbLine
 10
6.563454564843724
 20
3.553463078987477
 30
0.0
 11
6.480700107805674
 21
3.512020386263252
 31
0.0
  0
LINE
  5
2FE
330
1F
100
AcDbEntity
  8
0
100
AcDbLine
 10
6.480700107805674
 20
3.512020386263252
 30
0.0
 11
6.337387410126376
 21
3.477655529371333
 31
0.0
  0
LINE
  5
2FF
330
1F
100
AcDbEntity
  8
0
100
AcDbLine
 10
6.337387410126376
 20
3.477655529371333
 30
0.0
 11
6.192072277935221
 21
3.428133783558885
 31
0.0
  0
LINE
  5
300
330
1F
100
AcDbEntity
  8
0
100
AcDbLine
 10
6.192072277935221
 20
3.428133783558885
 30
0.0
 11
6.099228631625898
 21
3.357386231920769
 31
0.0
  0
LINE
  5
301
330
1F
100
AcDbEntity
  8
0
100
AcDbLine
 10
6.099228631625898
 20
3.357386231920769
 30
0.0
 11
6.049776200854254
 21
3.259351659223026
 31
0.0
  0
LINE
  5
302
330
1F
100
AcDbEntity
  8
0
100
AcDbLine
 10
6.049776200854254
 20
3.259351659223026
 30
0.0
 11
6.034634715276139
 21
3.125951012377412
 31
0.0
  0
LINE
  5
303
330
1F
100
AcDbEntity
  8
0
100
AcDbLine
 10
6.034634715276139
 20
3.125951012377412
 30
0.0
 11
6.050785119781379
 21
2.996578339569111
 31
0.0
  0
LINE
  5
304
330
1F
100
AcDbEntity
  8
0
100
AcDbLine
 10
6.050785119781379
 20
2.996578339569111
 30
0.0
 11
6.103264307334406
 21
2.895509308418778
 31
0.0
  0
LINE
  5
305
330
1F
100
AcDbEntity
  8
0
100
AcDbLine
 10
6.103264307334406
 20
2.895509308418778
 30
0.0
 11
6.144891840167413
 21
2.858369924477249
 31
0.0
  0
LINE
  5
306
330
1F
100
AcDbEntity
  8
0
100
AcDbLine
 10
6.144891840167413
 20
2.858369924477249
 30
0.0
 11
6.19711687257086
 21
2.831839592612961
 31
0.0
  0
LINE
  5
307
330
1F
100
AcDbEntity
  8
0
100
AcDbLine
 10
6.19711687257086
 20
2.831839592612961
 30
0.0
 11
6.337387410126376
 21
2.810613786787286
 31
0.0
  0
LINE
  5
308
330
1F
100
AcDbEntity
  8
0
100
AcDbLine
 10
6.337387410126376
 20
2.810613786787286
 30
0.0
 11
6.417371190950422
 21
2.819722938398422
 31
0.0
  0
LINE
  5
309
330
1F
100
AcDbEntity
  8
0
100
AcDbLine
 10
6.417371190950422
 20
2.819722938398422
 30
0.0
 11
6.487762540295567
 21
2.847050393231865
 31
0.0
  0
LINE
  5
30A
330
1F
100
AcDbEntity
  8
0
100
AcDbLine
 10
6.487762540295567
 20
2.847050393231865
 30
0.0
 11
6.544529633288887
 21
2.892596151287588
 31
0.0
  0
LINE
  5
30B
330
1F
100
AcDbEntity
  8
0
100
AcDbLine
 10
6.544529633288887
 20
2.892596151287588
 30
0.0
 11
6.583640645057478
 21
2.956360212565604
 31
0.0
  0
LINE
  5
30C
330
1F
100
AcDbEntity
  8
0
100
AcDbLine
 10
6.583640645057478
 20
2.956360212565604
 30
0.0
 11
6.587676320765979
 21
2.956360212565604
 31
0.0
  0
LINE
  5
30D
330
1F
100
AcDbEntity
  8
0
100
AcDbLine
 10
6.587676320765979
 20
2.956360212565604
 30
0.0
 11
6.595747672183002
 21
2.891797102900647
 31
0.0
  0
LINE
  5
30E
330
1F
100
AcDbEntity
  8
0
100
AcDbLine
 10
6.595747672183002
 20
2.891797102900647
 30
0.0
 11
6.609887940505185
 21
2.833287506798448
 31
0.0
  0
LINE
  5
30F
330
1F
100
AcDbEntity
  8
0
100
AcDbLine
 10
7.09438467231995
 20
4.274547448378038
 30
0.0
 11
7.09438467231995
 21
2.833287506798448
 31
0.0
  0
LINE
  5
310
330
1F
100
AcDbEntity
  8
0
100
AcDbLine
 10
7.09438467231995
 20
2.833287506798448
 30
0.0
 11
7.458150006412207
 21
2.833287506798448
 31
0.0
  0
LINE
  5
311
330
1F
100
AcDbEntity
  8
0
100
AcDbLine
 10
7.458150006412207
 20
2.833287506798448
 30
0.0
 11
7.458150006412207
 21
4.274547448378038
 31
0.0
  0
LINE
  5
312
330
1F
100
AcDbEntity
  8
0
100
AcDbLine
 10
7.458150006412207
 20
4.274547448378038
 30
0.0
 11
7.09438467231995
 21
4.274547448378038
 31
0.0
  0
LINE
  5
313
330
1F
100
AcDbEntity
  8
0
100
AcDbLine
 10
7.61489441866334
 20
4.274547448378038
 30
0.0
 11
7.61489441866334
 21
4.004434436071059
 31
0.0
  0
LINE
  5
314
330
1F
100
AcDbEntity
  8
0
100
AcDbLine
 10
7.61489441866334
 20
4.004434436071059
 30
0.0
 11
7.978659752755583
 21
4.004434436071059
 31
0.0
  0
LINE
  5
315
330
1F
100
AcDbEntity
  8
0
100
AcDbLine
 10
7.978659752755583
 20
4.004434436071059
 30
0.0
 11
7.978659752755583
 21
4.274547448378038
 31
0.0
  0
LINE
  5
316
330
1F
100
AcDbEntity
  8
0
100
AcDbLine
 10
7.978659752755583
 20
4.274547448378038
 30
0.0
 11
7.61489441866334
 21
4.274547448378038
 31
0.0
  0
LINE
  5
317
330
1F
100
AcDbEntity
  8
0
100
AcDbLine
 10
7.61489441866334
 20
3.925569322988724
 30
0.0
 11
7.61489441866334
 21
2.833287506798448
 31
0.0
  0
LINE
  5
318
330
1F
100
AcDbEntity
  8
0
100
AcDbLine
 10
7.61489441866334
 20
2.833287506798448
 30
0.0
 11
7.978659752755583
 21
2.833287506798448
 31
0.0
  0
LINE
  5
319
330
1F
100
AcDbEntity
  8
0
100
AcDbLine
 10
7.978659752755583
 20
2.833287506798448
 30
0.0
 11
7.978659752755583
 21
3.925569322988724
 31
0.0
  0
LINE
  5
31A
330
1F
100
AcDbEntity
  8
0
100
AcDbLine
 10
7.978659752755583
 20
3.925569322988724
 30
0.0
 11
7.61489441866334
 21
3.925569322988724
 31
0.0
  0
LINE
  5
31B
330
1F
100
AcDbEntity
  8
0
100
AcDbLine
 10
8.060605534317697
 20
3.925569322988724
 30
0.0
 11
8.060605534317697
 21
3.6810874724335
 31
0.0
  0
LINE
  5
31C
330
1F
100
AcDbEntity
  8
0
100
AcDbLine
 10
8.060605534317697
 20
3.6810874724335
 30
0.0
 11
8.181737418942584
 21
3.6810874724335
 31
0.0
  0
LINE
  5
31D
330
1F
100
AcDbEntity
  8
0
100
AcDbLine
 10
8.181737418942584
 20
3.6810874724335
 30
0.0
 11
8.181737418942584
 21
3.099842347011284
 31
0.0
  0
LINE
  5
31E
330
1F
100
AcDbEntity
  8
0
100
AcDbLine
 10
8.181737418942584
 20
3.099842347011284
 30
0.0
 11
8.198912145717351
 21
2.95351059422181
 31
0.0
  0
LINE
  5
31F
330
1F
100
AcDbEntity
  8
0
100
AcDbLine
 10
8.198912145717351
 20
2.95351059422181
 30
0.0
 11
8.22114109421675
 21
2.904822554316712
 31
0.0
  0
LINE
  5
320
330
1F
100
AcDbEntity
  8
0
100
AcDbLine
 10
8.22114109421675
 20
2.904822554316712
 30
0.0
 11
8.253478486165426
 21
2.869754919927829
 31
0.0
  0
LINE
  5
321
330
1F
100
AcDbEntity
  8
0
100
AcDbLine
 10
8.253478486165426
 20
2.869754919927829
 30
0.0
 11
8.34947211599533
 21
2.834435055807168
 31
0.0
  0
LINE
  5
322
330
1F
100
AcDbEntity
  8
0
100
AcDbLine
 10
8.34947211599533
 20
2.834435055807168
 30
0.0
 11
8.490944114257953
 21
2.827372623317276
 31
0.0
  0
LINE
  5
323
330
1F
100
AcDbEntity
  8
0
100
AcDbLine
 10
8.68886166074133
 20
2.833287506798448
 30
0.0
 11
8.68886166074133
 21
3.075520469363437
 31
0.0
  0
LINE
  5
324
330
1F
100
AcDbEntity
  8
0
100
AcDbLine
 10
8.68886166074133
 20
3.075520469363437
 30
0.0
 11
8.632331394137394
 21
3.075520469363437
 31
0.0
  0
LINE
  5
325
330
1F
100
AcDbEntity
  8
0
100
AcDbLine
 10
8.632331394137394
 20
3.075520469363437
 30
0.0
 11
8.566705453846915
 21
3.094697630650059
 31
0.0
  0
LINE
  5
326
330
1F
100
AcDbEntity
  8
0
100
AcDbLine
 10
8.566705453846915
 20
3.094697630650059
 30
0.0
 11
8.545502753034835
 21
3.160300465926944
 31
0.0
  0
LINE
  5
327
330
1F
100
AcDbEntity
  8
0
100
AcDbLine
 10
8.545502753034835
 20
3.160300465926944
 30
0.0
 11
8.545502753034835
 21
3.6810874724335
 31
0.0
  0
LINE
  5
328
330
1F
100
AcDbEntity
  8
0
100
AcDbLine
 10
8.545502753034835
 20
3.6810874724335
 30
0.0
 11
8.68886166074133
 21
3.6810874724335
 31
0.0
  0
LINE
  5
329
330
1F
100
AcDbEntity
  8
0
100
AcDbLine
 10
8.68886166074133
 20
3.6810874724335
 30
0.0
 11
8.68886166074133
 21
3.925569322988724
 31
0.0
  0
LINE
  5
32A
330
1F
100
AcDbEntity
  8
0
100
AcDbLine
 10
8.68886166074133
 20
3.925569322988724
 30
0.0
 11
8.545502753034835
 21
3.925569322988724
 31
0.0
  0
LINE
  5
32B
330
1F
100
AcDbEntity
  8
0
100
AcDbLine
 10
8.545502753034835
 20
3.925569322988724
 30
0.0
 11
8.545502753034835
 21
4.246944658799228
 31
0.0
  0
LINE
  5
32C
330
1F
100
AcDbEntity
  8
0
100
AcDbLine
 10
8.545502753034835
 20
4.246944658799228
 30
0.0
 11
8.181737418942584
 21
4.246944658799228
 31
0.0
  0
LINE
  5
32D
330
1F
100
AcDbEntity
  8
0
100
AcDbLine
 10
8.181737418942584
 20
4.246944658799228
 30
0.0
 11
8.181737418942584
 21
3.925569322988724
 31
0.0
  0
LINE
  5
32E
330
1F
100
AcDbEntity
  8
0
100
AcDbLine
 10
8.181737418942584
 20
3.925569322988724
 30
0.0
 11
8.060605534317697
 21
3.925569322988724
 31
0.0
  0
LINE
  5
32F
330
1F
100
AcDbEntity
  8
0
100
AcDbLine
 10
8.79334253223302
 20
2.74672072251667
 30
0.0
 11
8.79334253223302
 21
2.492195892717367
 31
0.0
  0
LINE
  5
330
330
1F
100
AcDbEntity
  8
0
100
AcDbLine
 10
8.79334253223302
 20
2.492195892717367
 30
0.0
 11
8.88923604033732
 21
2.486281009236196
 31
0.0
  0
LINE
  5
331
330
1F
100
AcDbEntity
  8
0
100
AcDbLine
 10
8.88923604033732
 20
2.486281009236196
 30
0.0
 11
8.997251978909558
 21
2.484309381409141
 31
0.0
  0
LINE
  5
332
330
1F
100
AcDbEntity
  8
0
100
AcDbLine
 10
8.997251978909558
 20
2.484309381409141
 30
0.0
 11
9.126455214951468
 21
2.498441948060116
 31
0.0
  0
LINE
  5
333
330
1F
100
AcDbEntity
  8
0
100
AcDbLine
 10
9.126455214951468
 20
2.498441948060116
 30
0.0
 11
9.226399802106682
 21
2.548903297758893
 31
0.0
  0
LINE
  5
334
330
1F
100
AcDbEntity
  8
0
100
AcDbLine
 10
9.226399802106682
 20
2.548903297758893
 30
0.0
 11
9.30110601274131
 21
2.646799240375063
 31
0.0
  0
LINE
  5
335
330
1F
100
AcDbEntity
  8
0
100
AcDbLine
 10
9.30110601274131
 20
2.646799240375063
 30
0.0
 11
9.356627360418122
 21
2.803250989120612
 31
0.0
  0
LINE
  5
336
330
1F
100
AcDbEntity
  8
0
100
AcDbLine
 10
9.356627360418122
 20
2.803250989120612
 30
0.0
 11
9.649367882709075
 21
3.925569322988724
 31
0.0
  0
LINE
  5
337
330
1F
100
AcDbEntity
  8
0
100
AcDbLine
 10
9.649367882709075
 20
3.925569322988724
 30
0.0
 11
9.285956825491995
 21
3.925569322988724
 31
0.0
  0
LINE
  5
338
330
1F
100
AcDbEntity
  8
0
100
AcDbLine
 10
9.285956825491995
 20
3.925569322988724
 30
0.0
 11
9.180967643701146
 21
3.188796649364893
 31
0.0
  0
LINE
  5
339
330
1F
100
AcDbEntity
  8
0
100
AcDbLine
 10
9.180967643701146
 20
3.188796649364893
 30
0.0
 11
9.176931967992639
 21
3.188796649364893
 31
0.0
  0
LINE
  5
33A
330
1F
100
AcDbEntity
  8
0
100
AcDbLine
 10
9.176931967992639
 20
3.188796649364893
 30
0.0
 11
9.065889272639025
 21
3.925569322988724
 31
0.0
  0
LINE
  5
33B
330
1F
100
AcDbEntity
  8
0
100
AcDbLine
 10
9.065889272639025
 20
3.925569322988724
 30
0.0
 11
8.692389026150671
 21
3.925569322988724
 31
0.0
  0
LINE
  5
33C
330
1F
100
AcDbEntity
  8
0
100
AcDbLine
 10
8.692389026150671
 20
3.925569322988724
 30
0.0
 11
8.97907603487886
 21
2.896102337101135
 31
0.0
  0
LINE
  5
33D
330
1F
100
AcDbEntity
  8
0
100
AcDbLine
 10
8.97907603487886
 20
2.896102337101135
 30
0.0
 11
8.990181844748466
 21
2.853704637148189
 31
0.0
  0
LINE
  5
33E
330
1F
100
AcDbEntity
  8
0
100
AcDbLine
 10
8.990181844748466
 20
2.853704637148189
 30
0.0
 11
8.995234141055306
 21
2.82141152980891
 31
0.0
  0
LINE
  5
33F
330
1F
100
AcDbEntity
  8
0
100
AcDbLine
 10
8.995234141055306
 20
2.82141152980891
 30
0.0
 11
8.989172925821334
 21
2.799207611740897
 31
0.0
  0
LINE
  5
340
330
1F
100
AcDbEntity
  8
0
100
AcDbLine
 10
8.989172925821334
 20
2.799207611740897
 30
0.0
 11
8.968979143936386
 21
2.771951397366058
 31
0.0
  0
LINE
  5
341
330
1F
100
AcDbEntity
  8
0
100
AcDbLine
 10
8.968979143936386
 20
2.771951397366058
 30
0.0
 11
8.931633740290273
 21
2.748738560370927
 31
0.0
  0
LINE
  5
342
330
1F
100
AcDbEntity
  8
0
100
AcDbLine
 10
8.931633740290273
 20
2.748738560370927
 30
0.0
 11
8.874086853088011
 21
2.738649371099654
 31
0.0
  0
LINE
  5
343
330
1F
100
AcDbEntity
  8
0
100
AcDbLine
 10
8.874086853088011
 20
2.738649371099654
 30
0.0
 11
8.833714692660514
 21
2.740667208953911
 31
0.0
  0
LINE
  5
344
330
1F
100
AcDbEntity
  8
0
100
AcDbLine
 10
8.833714692660514
 20
2.740667208953911
 30
0.0
 11
8.79334253223302
 21
2.74672072251667
 31
0.0
  0
LINE
  5
345
330
1F
100
AcDbEntity
  8
0
100
AcDbLine
 10
6.764743617189269
 20
-0.000000000000008
 30
0.0
 11
9.156441659540745
 21
0.99067376624315
 31
0.0
  0
LINE
  5
346
330
1F
100
AcDbEntity
  8
0
100
AcDbLine
 10
4.373045574837792
 20
5.774069850946103
 30
0.0
 11
3.382371808594638
 21
3.382371808594626
 31
0.0
  0
LINE
  5
347
330
1F
100
AcDbEntity
  8
0
100
AcDbLine
 10
4.373045574837792
 20
0.99067376624315
 30
0.0
 11
6.764743617189269
 21
-0.000000000000008
 31
0.0
  0
LINE
  5
348
330
1F
100
AcDbEntity
  8
0
100
AcDbLine
 10
9.156441659540745
 20
0.99067376624315
 30
0.0
 11
10.1471154257839
 21
3.382371808594626
 31
0.0
  0
LINE
  5
349
330
1F
100
AcDbEntity
  8
0
100
AcDbLine
 10
3.382371808594638
 20
3.382371808594626
 30
0.0
 11
4.373045574837792
 21
0.99067376624315
 31
0.0
  0
LINE
  5
34A
330
1F
100
AcDbEntity
  8
0
100
AcDbLine
 10
10.1471154257839
 20
3.382371808594626
 30
0.0
 11
9.156441659540745
 21
5.774069850946103
 31
0.0
  0
LINE
  5
34B
330
1F
100
AcDbEntity
  8
0
100
AcDbLine
 10
6.764743617189269
 20
6.764743617189261
 30
0.0
 11
4.373045574837792
 21
5.774069850946103
 31
0.0
  0
LINE
  5
34C
330
1F
100
AcDbEntity
  8
0
100
AcDbLine
 10
9.156441659540745
 20
5.774069850946103
 30
0.0
 11
6.764743617189269
 21
6.764743617189261
 31
0.0
  0
LINE
  5
34D
330
1F
100
AcDbEntity
  8
0
100
AcDbLine
 10
4.499037487807205
 20
-2.905220163871753
 30
0.0
 11
4.858055051442341
 21
-2.905220163871753
 31
0.0
  0
LINE
  5
34E
330
1F
100
AcDbEntity
  8
0
100
AcDbLine
 10
4.858055051442341
 20
-2.905220163871753
 30
0.0
 11
4.851022308009675
 21
-2.794539889689286
 31
0.0
  0
LINE
  5
34F
330
1F
100
AcDbEntity
  8
0
100
AcDbLine
 10
4.851022308009675
 20
-2.794539889689286
 30
0.0
 11
4.829924077711682
 21
-2.699995236344368
 31
0.0
  0
LINE
  5
350
330
1F
100
AcDbEntity
  8
0
100
AcDbLine
 10
4.829924077711682
 20
-2.699995236344368
 30
0.0
 11
4.794760360548342
 21
-2.621586203836971
 31
0.0
  0
LINE
  5
351
330
1F
100
AcDbEntity
  8
0
100
AcDbLine
 10
4.794760360548342
 20
-2.621586203836971
 30
0.0
 11
4.74553115651966
 21
-2.559312792167116
 31
0.0
  0
LINE
  5
352
330
1F
100
AcDbEntity
  8
0
100
AcDbLine
 10
4.74553115651966
 20
-2.559312792167116
 30
0.0
 11
4.680559282868912
 21
-2.511882891072406
 31
0.0
  0
LINE
  5
353
330
1F
100
AcDbEntity
  8
0
100
AcDbLine
 10
4.680559282868912
 20
-2.511882891072406
 30
0.0
 11
4.598167556839367
 21
-2.478004390290471
 31
0.0
  0
LINE
  5
354
330
1F
100
AcDbEntity
  8
0
100
AcDbLine
 10
4.598167556839367
 20
-2.478004390290471
 30
0.0
 11
4.498355978431015
 21
-2.457677289821319
 31
0.0
  0
LINE
  5
355
330
1F
100
AcDbEntity
  8
0
100
AcDbLine
 10
4.498355978431015
 20
-2.457677289821319
 30
0.0
 11
4.381124547643858
 21
-2.450901589664927
 31
0.0
  0
LINE
  5
356
330
1F
100
AcDbEntity
  8
0
100
AcDbLine
 10
4.381124547643858
 20
-2.450901589664927
 30
0.0
 11
4.267047067401886
 21
-2.458261792443812
 31
0.0
  0
LINE
  5
357
330
1F
100
AcDbEntity
  8
0
100
AcDbLine
 10
4.267047067401886
 20
-2.458261792443812
 30
0.0
 11
4.168456198345839
 21
-2.48034240078049
 31
0.0
  0
LINE
  5
358
330
1F
100
AcDbEntity
  8
0
100
AcDbLine
 10
4.168456198345839
 20
-2.48034240078049
 30
0.0
 11
4.085351940475719
 21
-2.517143414674929
 31
0.0
  0
LINE
  5
359
330
1F
100
AcDbEntity
  8
0
100
AcDbLine
 10
4.085351940475719
 20
-2.517143414674929
 30
0.0
 11
4.017734293791525
 21
-2.568664834127154
 31
0.0
  0
LINE
  5
35A
330
1F
100
AcDbEntity
  8
0
100
AcDbLine
 10
4.017734293791525
 20
-2.568664834127154
 30
0.0
 11
3.965344245336696
 21
-2.634261588846089
 31
0.0
  0
LINE
  5
35B
330
1F
100
AcDbEntity
  8
0
100
AcDbLine
 10
3.965344245336696
 20
-2.634261588846089
 30
0.0
 11
3.927922782154678
 21
-2.713288608540711
 31
0.0
  0
LINE
  5
35C
330
1F
100
AcDbEntity
  8
0
100
AcDbLine
 10
3.927922782154678
 20
-2.713288608540711
 30
0.0
 11
3.905469904245465
 21
-2.805745893211012
 31
0.0
  0
LINE
  5
35D
330
1F
100
AcDbEntity
  8
0
100
AcDbLine
 10
3.905469904245465
 20
-2.805745893211012
 30
0.0
 11
3.897985611609055
 21
-2.911633442856985
 31
0.0
  0
LINE
  5
35E
330
1F
100
AcDbEntity
  8
0
100
AcDbLine
 10
3.897985611609055
 20
-2.911633442856985
 30
0.0
 11
3.909086729655979
 21
-3.029396687319204
 31
0.0
  0
LINE
  5
35F
330
1F
100
AcDbEntity
  8
0
100
AcDbLine
 10
3.909086729655979
 20
-3.029396687319204
 30
0.0
 11
3.94239008379673
 21
-3.122373475162823
 31
0.0
  0
LINE
  5
360
330
1F
100
AcDbEntity
  8
0
100
AcDbLine
 10
3.94239008379673
 20
-3.122373475162823
 30
0.0
 11
3.992473144225925
 21
-3.195206342803148
 31
0.0
  0
LINE
  5
361
330
1F
100
AcDbEntity
  8
0
100
AcDbLine
 10
3.992473144225925
 20
-3.195206342803148
 30
0.0
 11
4.053913381138177
 21
-3.252537826655456
 31
0.0
  0
LINE
  5
362
330
1F
100
AcDbEntity
  8
0
100
AcDbLine
 10
4.053913381138177
 20
-3.252537826655456
 30
0.0
 11
4.199520026010478
 21
-3.333113507468669
 31
0.0
  0
LINE
  5
363
330
1F
100
AcDbEntity
  8
0
100
AcDbLine
 10
4.199520026010478
 20
-3.333113507468669
 30
0.0
 11
4.345126670882779
 21
-3.394063293991695
 31
0.0
  0
LINE
  5
364
330
1F
100
AcDbEntity
  8
0
100
AcDbLine
 10
4.345126670882779
 20
-3.394063293991695
 30
0.0
 11
4.456649968224234
 21
-3.466374196358349
 31
0.0
  0
LINE
  5
365
330
1F
100
AcDbEntity
  8
0
100
AcDbLine
 10
4.456649968224234
 20
-3.466374196358349
 30
0.0
 11
4.489953322364983
 21
-3.516218925473901
 31
0.0
  0
LINE
  5
366
330
1F
100
AcDbEntity
  8
0
100
AcDbLine
 10
4.489953322364983
 20
-3.516218925473901
 30
0.0
 11
4.501054440411908
 21
-3.581041103423521
 31
0.0
  0
LINE
  5
367
330
1F
100
AcDbEntity
  8
0
100
AcDbLine
 10
4.501054440411908
 20
-3.581041103423521
 30
0.0
 11
4.493045720401474
 21
-3.636304422983906
 31
0.0
  0
LINE
  5
368
330
1F
100
AcDbEntity
  8
0
100
AcDbLine
 10
4.493045720401474
 20
-3.636304422983906
 30
0.0
 11
4.469019560370201
 21
-3.682274790992593
 31
0.0
  0
LINE
  5
369
330
1F
100
AcDbEntity
  8
0
100
AcDbLine
 10
4.469019560370201
 20
-3.682274790992593
 30
0.0
 11
4.430008072783749
 21
-3.713267710167229
 31
0.0
  0
LINE
  5
36A
330
1F
100
AcDbEntity
  8
0
100
AcDbLine
 10
4.430008072783749
 20
-3.713267710167229
 30
0.0
 11
4.377043370107804
 21
-3.72359868322544
 31
0.0
  0
LINE
  5
36B
330
1F
100
AcDbEntity
  8
0
100
AcDbLine
 10
4.377043370107804
 20
-3.72359868322544
 30
0.0
 11
4.326398950799371
 21
-3.714045733877046
 31
0.0
  0
LINE
  5
36C
330
1F
100
AcDbEntity
  8
0
100
AcDbLine
 10
4.326398950799371
 20
-3.714045733877046
 30
0.0
 11
4.286091413589985
 21
-3.685386885831873
 31
0.0
  0
LINE
  5
36D
330
1F
100
AcDbEntity
  8
0
100
AcDbLine
 10
4.286091413589985
 20
-3.685386885831873
 30
0.0
 11
4.259737091470086
 21
-3.63297763299433
 31
0.0
  0
LINE
  5
36E
330
1F
100
AcDbEntity
  8
0
100
AcDbLine
 10
4.259737091470086
 20
-3.63297763299433
 30
0.0
 11
4.250952317430119
 21
-3.552173469268865
 31
0.0
  0
LINE
  5
36F
330
1F
100
AcDbEntity
  8
0
100
AcDbLine
 10
4.250952317430119
 20
-3.552173469268865
 30
0.0
 11
4.250952317430119
 21
-3.517065887993452
 31
0.0
  0
LINE
  5
370
330
1F
100
AcDbEntity
  8
0
100
AcDbLine
 10
4.250952317430119
 20
-3.517065887993452
 30
0.0
 11
3.878824561864484
 21
-3.517065887993452
 31
0.0
  0
LINE
  5
371
330
1F
100
AcDbEntity
  8
0
100
AcDbLine
 10
3.878824561864484
 20
-3.517065887993452
 30
0.0
 11
3.878824561864484
 21
-3.568703026162005
 31
0.0
  0
LINE
  5
372
330
1F
100
AcDbEntity
  8
0
100
AcDbLine
 10
3.878824561864484
 20
-3.568703026162005
 30
0.0
 11
3.887089340311058
 21
-3.675073639896159
 31
0.0
  0
LINE
  5
373
330
1F
100
AcDbEntity
  8
0
100
AcDbLine
 10
3.887089340311058
 20
-3.675073639896159
 30
0.0
 11
3.911883675650764
 21
-3.762866229248032
 31
0.0
  0
LINE
  5
374
330
1F
100
AcDbEntity
  8
0
100
AcDbLine
 10
3.911883675650764
 20
-3.762866229248032
 30
0.0
 11
3.952431513854071
 21
-3.833883051672025
 31
0.0
  0
LINE
  5
375
330
1F
100
AcDbEntity
  8
0
100
AcDbLine
 10
3.952431513854071
 20
-3.833883051672025
 30
0.0
 11
4.007956800891437
 21
-3.889926364622505
 31
0.0
  0
LINE
  5
376
330
1F
100
AcDbEntity
  8
0
100
AcDbLine
 10
4.007956800891437
 20
-3.889926364622505
 30
0.0
 11
4.078201508646438
 21
-3.931250256855352
 31
0.0
  0
LINE
  5
377
330
1F
100
AcDbEntity
  8
0
100
AcDbLine
 10
4.078201508646438
 20
-3.931250256855352
 30
0.0
 11
4.162907609002656
 21
-3.958108817126425
 31
0.0
  0
LINE
  5
378
330
1F
100
AcDbEntity
  8
0
100
AcDbLine
 10
4.162907609002656
 20
-3.958108817126425
 30
0.0
 11
4.374679753774181
 21
-3.977734711416612
 31
0.0
  0
LINE
  5
379
330
1F
100
AcDbEntity
  8
0
100
AcDbLine
 10
4.374679753774181
 20
-3.977734711416612
 30
0.0
 11
4.598843157174722
 21
-3.9511302399014
 31
0.0
  0
LINE
  5
37A
330
1F
100
AcDbEntity
  8
0
100
AcDbLine
 10
4.598843157174722
 20
-3.9511302399014
 30
0.0
 11
4.688457208363702
 21
-3.917874650507396
 31
0.0
  0
LINE
  5
37B
330
1F
100
AcDbEntity
  8
0
100
AcDbLine
 10
4.688457208363702
 20
-3.917874650507396
 30
0.0
 11
4.76309282587848
 21
-3.871316825355779
 31
0.0
  0
LINE
  5
37C
330
1F
100
AcDbEntity
  8
0
100
AcDbLine
 10
4.76309282587848
 20
-3.871316825355779
 30
0.0
 11
4.821845926471448
 21
-3.810036624966107
 31
0.0
  0
LINE
  5
37D
330
1F
100
AcDbEntity
  8
0
100
AcDbLine
 10
4.821845926471448
 20
-3.810036624966107
 30
0.0
 11
4.863812426895001
 21
-3.732613909857936
 31
0.0
  0
LINE
  5
37E
330
1F
100
AcDbEntity
  8
0
100
AcDbLine
 10
4.863812426895001
 20
-3.732613909857936
 30
0.0
 11
4.888992327149124
 21
-3.639048680031252
 31
0.0
  0
LINE
  5
37F
330
1F
100
AcDbEntity
  8
0
100
AcDbLine
 10
4.888992327149124
 20
-3.639048680031252
 30
0.0
 11
4.897385627233838
 21
-3.52934093548607
 31
0.0
  0
LINE
  5
380
330
1F
100
AcDbEntity
  8
0
100
AcDbLine
 10
4.897385627233838
 20
-3.52934093548607
 30
0.0
 11
4.885778301355463
 21
-3.407693481515595
 31
0.0
  0
LINE
  5
381
330
1F
100
AcDbEntity
  8
0
100
AcDbLine
 10
4.885778301355463
 20
-3.407693481515595
 30
0.0
 11
4.850956323720363
 21
-3.311352479757112
 31
0.0
  0
LINE
  5
382
330
1F
100
AcDbEntity
  8
0
100
AcDbLine
 10
4.850956323720363
 20
-3.311352479757112
 30
0.0
 11
4.798596312889775
 21
-3.235671454434774
 31
0.0
  0
LINE
  5
383
330
1F
100
AcDbEntity
  8
0
100
AcDbLine
 10
4.798596312889775
 20
-3.235671454434774
 30
0.0
 11
4.734374887424958
 21
-3.176003929772733
 31
0.0
  0
LINE
  5
384
330
1F
100
AcDbEntity
  8
0
100
AcDbLine
 10
4.734374887424958
 20
-3.176003929772733
 30
0.0
 11
4.583749497204265
 21
-3.092316154120255
 31
0.0
  0
LINE
  5
385
330
1F
100
AcDbEntity
  8
0
100
AcDbLine
 10
4.583749497204265
 20
-3.092316154120255
 30
0.0
 11
4.433124106983572
 21
-3.029294263944748
 31
0.0
  0
LINE
  5
386
330
1F
100
AcDbEntity
  8
0
100
AcDbLine
 10
4.433124106983572
 20
-3.029294263944748
 30
0.0
 11
4.316542670688159
 21
-2.955943370391302
 31
0.0
  0
LINE
  5
387
330
1F
100
AcDbEntity
  8
0
100
AcDbLine
 10
4.316542670688159
 20
-2.955943370391302
 30
0.0
 11
4.281720693053059
 21
-2.906094701915193
 31
0.0
  0
LINE
  5
388
330
1F
100
AcDbEntity
  8
0
100
AcDbLine
 10
4.281720693053059
 20
-2.906094701915193
 30
0.0
 11
4.270113367174691
 21
-2.84126070588391
 31
0.0
  0
LINE
  5
389
330
1F
100
AcDbEntity
  8
0
100
AcDbLine
 10
4.270113367174691
 20
-2.84126070588391
 30
0.0
 11
4.277332245393636
 21
-2.793996257932561
 31
0.0
  0
LINE
  5
38A
330
1F
100
AcDbEntity
  8
0
100
AcDbLine
 10
4.277332245393636
 20
-2.793996257932561
 30
0.0
 11
4.29898888005046
 21
-2.751380255437331
 31
0.0
  0
LINE
  5
38B
330
1F
100
AcDbEntity
  8
0
100
AcDbLine
 10
4.29898888005046
 20
-2.751380255437331
 30
0.0
 11
4.336111444250283
 21
-2.721161420611965
 31
0.0
  0
LINE
  5
38C
330
1F
100
AcDbEntity
  8
0
100
AcDbLine
 10
4.336111444250283
 20
-2.721161420611965
 30
0.0
 11
4.389728111098252
 21
-2.711088475670171
 31
0.0
  0
LINE
  5
38D
330
1F
100
AcDbEntity
  8
0
100
AcDbLine
 10
4.389728111098252
 20
-2.711088475670171
 30
0.0
 11
4.43819603369947
 21
-2.722705649949925
 31
0.0
  0
LINE
  5
38E
330
1F
100
AcDbEntity
  8
0
100
AcDbLine
 10
4.43819603369947
 20
-2.722705649949925
 30
0.0
 11
4.47222619986281
 21
-2.757557172789198
 31
0.0
  0
LINE
  5
38F
330
1F
100
AcDbEntity
  8
0
100
AcDbLine
 10
4.47222619986281
 20
-2.757557172789198
 30
0.0
 11
4.492334665821117
 21
-2.808930373800499
 31
0.0
  0
LINE
  5
390
330
1F
100
AcDbEntity
  8
0
100
AcDbLine
 10
4.492334665821117
 20
-2.808930373800499
 30
0.0
 11
4.499037487807205
 21
-2.870112582596333
 31
0.0
  0
LINE
  5
391
330
1F
100
AcDbEntity
  8
0
100
AcDbLine
 10
4.499037487807205
 20
-2.870112582596333
 30
0.0
 11
4.499037487807205
 21
-2.905220163871753
 31
0.0
  0
LINE
  5
392
330
1F
100
AcDbEntity
  8
0
100
AcDbLine
 10
5.023445165027078
 20
-2.480147402432955
 30
0.0
 11
5.023445165027078
 21
-2.756469909275734
 31
0.0
  0
LINE
  5
393
330
1F
100
AcDbEntity
  8
0
100
AcDbLine
 10
5.023445165027078
 20
-2.756469909275734
 30
0.0
 11
5.395572920592706
 21
-2.756469909275734
 31
0.0
  0
LINE
  5
394
330
1F
100
AcDbEntity
  8
0
100
AcDbLine
 10
5.395572920592706
 20
-2.756469909275734
 30
0.0
 11
5.395572920592706
 21
-2.480147402432955
 31
0.0
  0
LINE
  5
395
330
1F
100
AcDbEntity
  8
0
100
AcDbLine
 10
5.395572920592706
 20
-2.480147402432955
 30
0.0
 11
5.023445165027078
 21
-2.480147402432955
 31
0.0
  0
LINE
  5
396
330
1F
100
AcDbEntity
  8
0
100
AcDbLine
 10
5.023445165027078
 20
-2.837148013463403
 30
0.0
 11
5.023445165027078
 21
-3.95453975646265
 31
0.0
  0
LINE
  5
397
330
1F
100
AcDbEntity
  8
0
100
AcDbLine
 10
5.023445165027078
 20
-3.95453975646265
 30
0.0
 11
5.395572920592706
 21
-3.95453975646265
 31
0.0
  0
LINE
  5
398
330
1F
100
AcDbEntity
  8
0
100
AcDbLine
 10
5.395572920592706
 20
-3.95453975646265
 30
0.0
 11
5.395572920592706
 21
-2.837148013463403
 31
0.0
  0
LINE
  5
399
330
1F
100
AcDbEntity
  8
0
100
AcDbLine
 10
5.395572920592706
 20
-2.837148013463403
 30
0.0
 11
5.023445165027078
 21
-2.837148013463403
 31
0.0
  0
LINE
  5
39A
330
1F
100
AcDbEntity
  8
0
100
AcDbLine
 10
6.092430045513712
 20
-3.216524192452151
 30
0.0
 11
6.092430045513712
 21
-3.95453975646265
 31
0.0
  0
LINE
  5
39B
330
1F
100
AcDbEntity
  8
0
100
AcDbLine
 10
6.092430045513712
 20
-3.95453975646265
 30
0.0
 11
6.464557801079346
 21
-3.95453975646265
 31
0.0
  0
LINE
  5
39C
330
1F
100
AcDbEntity
  8
0
100
AcDbLine
 10
6.464557801079346
 20
-3.95453975646265
 30
0.0
 11
6.464557801079346
 21
-3.216524192452151
 31
0.0
  0
LINE
  5
39D
330
1F
100
AcDbEntity
  8
0
100
AcDbLine
 10
6.464557801079346
 20
-3.216524192452151
 30
0.0
 11
6.485184292950768
 21
-3.115235353835287
 31
0.0
  0
LINE
  5
39E
330
1F
100
AcDbEntity
  8
0
100
AcDbLine
 10
6.485184292950768
 20
-3.115235353835287
 30
0.0
 11
6.513031632721407
 21
-3.091977369112434
 31
0.0
  0
LINE
  5
39F
330
1F
100
AcDbEntity
  8
0
100
AcDbLine
 10
6.513031632721407
 20
-3.091977369112434
 30
0.0
 11
6.555320668290486
 21
-3.084224707538155
 31
0.0
  0
LINE
  5
3A0
330
1F
100
AcDbEntity
  8
0
100
AcDbLine
 10
6.555320668290486
 20
-3.084224707538155
 30
0.0
 11
6.597609703859558
 21
-3.091977369112434
 31
0.0
  0
LINE
  5
3A1
330
1F
100
AcDbEntity
  8
0
100
AcDbLine
 10
6.597609703859558
 20
-3.091977369112434
 30
0.0
 11
6.62545704363019
 21
-3.115235353835287
 31
0.0
  0
LINE
  5
3A2
330
1F
100
AcDbEntity
  8
0
100
AcDbLine
 10
6.62545704363019
 20
-3.115235353835287
 30
0.0
 11
6.64608353550161
 21
-3.216524192452151
 31
0.0
  0
LINE
  5
3A3
330
1F
100
AcDbEntity
  8
0
100
AcDbLine
 10
6.64608353550161
 20
-3.216524192452151
 30
0.0
 11
6.64608353550161
 21
-3.95453975646265
 31
0.0
  0
LINE
  5
3A4
330
1F
100
AcDbEntity
  8
0
100
AcDbLine
 10
6.64608353550161
 20
-3.95453975646265
 30
0.0
 11
7.018211291067246
 21
-3.95453975646265
 31
0.0
  0
LINE
  5
3A5
330
1F
100
AcDbEntity
  8
0
100
AcDbLine
 10
7.018211291067246
 20
-3.95453975646265
 30
0.0
 11
7.018211291067246
 21
-3.111611142123734
 31
0.0
  0
LINE
  5
3A6
330
1F
100
AcDbEntity
  8
0
100
AcDbLine
 10
7.018211291067246
 20
-3.111611142123734
 30
0.0
 11
6.995489059380011
 21
-2.962853008806595
 31
0.0
  0
LINE
  5
3A7
330
1F
100
AcDbEntity
  8
0
100
AcDbLine
 10
6.995489059380011
 20
-2.962853008806595
 30
0.0
 11
6.933515039112419
 21
-2.869876220962976
 31
0.0
  0
LINE
  5
3A8
330
1F
100
AcDbEntity
  8
0
100
AcDbLine
 10
6.933515039112419
 20
-2.869876220962976
 30
0.0
 11
6.841578242455586
 21
-2.821327541470356
 31
0.0
  0
LINE
  5
3A9
330
1F
100
AcDbEntity
  8
0
100
AcDbLine
 10
6.841578242455586
 20
-2.821327541470356
 30
0.0
 11
6.726919214111527
 21
-2.807902200695376
 31
0.0
  0
LINE
  5
3AA
330
1F
100
AcDbEntity
  8
0
100
AcDbLine
 10
6.726919214111527
 20
-2.807902200695376
 30
0.0
 11
6.642985228424286
 21
-2.817439392601543
 31
0.0
  0
LINE
  5
3AB
330
1F
100
AcDbEntity
  8
0
100
AcDbLine
 10
6.642985228424286
 20
-2.817439392601543
 30
0.0
 11
6.564735740019414
 21
-2.846050968320052
 31
0.0
  0
LINE
  5
3AC
330
1F
100
AcDbEntity
  8
0
100
AcDbLine
 10
6.564735740019414
 20
-2.846050968320052
 30
0.0
 11
6.497335250585869
 21
-2.898377494585915
 31
0.0
  0
LINE
  5
3AD
330
1F
100
AcDbEntity
  8
0
100
AcDbLine
 10
6.497335250585869
 20
-2.898377494585915
 30
0.0
 11
6.445948261812628
 21
-2.97905953813414
 31
0.0
  0
LINE
  5
3AE
330
1F
100
AcDbEntity
  8
0
100
AcDbLine
 10
6.445948261812628
 20
-2.97905953813414
 30
0.0
 11
6.404388007946417
 21
-2.903538056914322
 31
0.0
  0
LINE
  5
3AF
330
1F
100
AcDbEntity
  8
0
100
AcDbLine
 10
6.404388007946417
 20
-2.903538056914322
 30
0.0
 11
6.349922408898627
 21
-2.850179418182778
 31
0.0
  0
LINE
  5
3B0
330
1F
100
AcDbEntity
  8
0
100
AcDbLine
 10
6.349922408898627
 20
-2.850179418182778
 30
0.0
 11
6.275322738048918
 21
-2.818471505067222
 31
0.0
  0
LINE
  5
3B1
330
1F
100
AcDbEntity
  8
0
100
AcDbLine
 10
6.275322738048918
 20
-2.818471505067222
 30
0.0
 11
6.173360268776977
 21
-2.807902200695376
 31
0.0
  0
LINE
  5
3B2
330
1F
100
AcDbEntity
  8
0
100
AcDbLine
 10
6.173360268776977
 20
-2.807902200695376
 30
0.0
 11
6.082110890537177
 21
-2.818212492110669
 31
0.0
  0
LINE
  5
3B3
330
1F
100
AcDbEntity
  8
0
100
AcDbLine
 10
6.082110890537177
 20
-2.818212492110669
 30
0.0
 11
6.006607136439855
 21
-2.849143366356542
 31
0.0
  0
LINE
  5
3B4
330
1F
100
AcDbEntity
  8
0
100
AcDbLine
 10
6.006607136439855
 20
-2.849143366356542
 30
0.0
 11
5.946849006485028
 21
-2.900694823433001
 31
0.0
  0
LINE
  5
3B5
330
1F
100
AcDbEntity
  8
0
100
AcDbLine
 10
5.946849006485028
 20
-2.900694823433001
 30
0.0
 11
5.902836500672687
 21
-2.972866863340047
 31
0.0
  0
LINE
  5
3B6
330
1F
100
AcDbEntity
  8
0
100
AcDbLine
 10
5.902836500672687
 20
-2.972866863340047
 30
0.0
 11
5.898503204061049
 21
-2.972866863340047
 31
0.0
  0
LINE
  5
3B7
330
1F
100
AcDbEntity
  8
0
100
AcDbLine
 10
5.898503204061049
 20
-2.972866863340047
 30
0.0
 11
5.898503204061049
 21
-2.837148013463403
 31
0.0
  0
LINE
  5
3B8
330
1F
100
AcDbEntity
  8
0
100
AcDbLine
 10
5.898503204061049
 20
-2.837148013463403
 30
0.0
 11
5.538776555525827
 21
-2.837148013463403
 31
0.0
  0
LINE
  5
3B9
330
1F
100
AcDbEntity
  8
0
100
AcDbLine
 10
5.538776555525827
 20
-2.837148013463403
 30
0.0
 11
5.538776555525827
 21
-3.95453975646265
 31
0.0
  0
LINE
  5
3BA
330
1F
100
AcDbEntity
  8
0
100
AcDbLine
 10
5.538776555525827
 20
-3.95453975646265
 30
0.0
 11
5.910904311091462
 21
-3.95453975646265
 31
0.0
  0
LINE
  5
3BB
330
1F
100
AcDbEntity
  8
0
100
AcDbLine
 10
5.910904311091462
 20
-3.95453975646265
 30
0.0
 11
5.910904311091462
 21
-3.216524192452151
 31
0.0
  0
LINE
  5
3BC
330
1F
100
AcDbEntity
  8
0
100
AcDbLine
 10
5.910904311091462
 20
-3.216524192452151
 30
0.0
 11
5.931530802962877
 21
-3.115235353835287
 31
0.0
  0
LINE
  5
3BD
330
1F
100
AcDbEntity
  8
0
100
AcDbLine
 10
5.931530802962877
 20
-3.115235353835287
 30
0.0
 11
5.959378142733514
 21
-3.091977369112434
 31
0.0
  0
LINE
  5
3BE
330
1F
100
AcDbEntity
  8
0
100
AcDbLine
 10
5.959378142733514
 20
-3.091977369112434
 30
0.0
 11
6.001667178302586
 21
-3.084224707538155
 31
0.0
  0
LINE
  5
3BF
330
1F
100
AcDbEntity
  8
0
100
AcDbLine
 10
6.001667178302586
 20
-3.084224707538155
 30
0.0
 11
6.043956213871659
 21
-3.091977369112434
 31
0.0
  0
LINE
  5
3C0
330
1F
100
AcDbEntity
  8
0
100
AcDbLine
 10
6.043956213871659
 20
-3.091977369112434
 30
0.0
 11
6.071803553642297
 21
-3.115235353835287
 31
0.0
  0
LINE
  5
3C1
330
1F
100
AcDbEntity
  8
0
100
AcDbLine
 10
6.071803553642297
 20
-3.115235353835287
 30
0.0
 11
6.092430045513712
 21
-3.216524192452151
 31
0.0
  0
LINE
  5
3C2
330
1F
100
AcDbEntity
  8
0
100
AcDbLine
 10
7.533542681565994
 20
-3.394803893776233
 30
0.0
 11
7.537679010149835
 21
-3.24469849914894
 31
0.0
  0
LINE
  5
3C3
330
1F
100
AcDbEntity
  8
0
100
AcDbLine
 10
7.537679010149835
 20
-3.24469849914894
 30
0.0
 11
7.553184333298401
 21
-3.149452639625034
 31
0.0
  0
LINE
  5
3C4
330
1F
100
AcDbEntity
  8
0
100
AcDbLine
 10
7.553184333298401
 20
-3.149452639625034
 30
0.0
 11
7.585219213340108
 21
-3.098721554384373
 31
0.0
  0
LINE
  5
3C5
330
1F
100
AcDbEntity
  8
0
100
AcDbLine
 10
7.585219213340108
 20
-3.098721554384373
 30
0.0
 11
7.636879987672001
 21
-3.084224707538155
 31
0.0
  0
LINE
  5
3C6
330
1F
100
AcDbEntity
  8
0
100
AcDbLine
 10
7.636879987672001
 20
-3.084224707538155
 30
0.0
 11
7.69062074437748
 21
-3.098721554384373
 31
0.0
  0
LINE
  5
3C7
330
1F
100
AcDbEntity
  8
0
100
AcDbLine
 10
7.69062074437748
 20
-3.098721554384373
 30
0.0
 11
7.722655624419184
 21
-3.149452639625034
 31
0.0
  0
LINE
  5
3C8
330
1F
100
AcDbEntity
  8
0
100
AcDbLine
 10
7.722655624419184
 20
-3.149452639625034
 30
0.0
 11
7.738160947567751
 21
-3.24469849914894
 31
0.0
  0
LINE
  5
3C9
330
1F
100
AcDbEntity
  8
0
100
AcDbLine
 10
7.738160947567751
 20
-3.24469849914894
 30
0.0
 11
7.742297276151591
 21
-3.394803893776233
 31
0.0
  0
LINE
  5
3CA
330
1F
100
AcDbEntity
  8
0
100
AcDbLine
 10
7.742297276151591
 20
-3.394803893776233
 30
0.0
 11
7.738160947567751
 21
-3.54595715831144
 31
0.0
  0
LINE
  5
3CB
330
1F
100
AcDbEntity
  8
0
100
AcDbLine
 10
7.738160947567751
 20
-3.54595715831144
 30
0.0
 11
7.722655624419184
 21
-3.642235130301017
 31
0.0
  0
LINE
  5
3CC
330
1F
100
AcDbEntity
  8
0
100
AcDbLine
 10
7.722655624419184
 20
-3.642235130301017
 30
0.0
 11
7.69062074437748
 21
-3.692966215541687
 31
0.0
  0
LINE
  5
3CD
330
1F
100
AcDbEntity
  8
0
100
AcDbLine
 10
7.69062074437748
 20
-3.692966215541687
 30
0.0
 11
7.636879987672001
 21
-3.707463062387912
 31
0.0
  0
LINE
  5
3CE
330
1F
100
AcDbEntity
  8
0
100
AcDbLine
 10
7.636879987672001
 20
-3.707463062387912
 30
0.0
 11
7.585219213340108
 21
-3.692966215541687
 31
0.0
  0
LINE
  5
3CF
330
1F
100
AcDbEntity
  8
0
100
AcDbLine
 10
7.585219213340108
 20
-3.692966215541687
 30
0.0
 11
7.553184333298401
 21
-3.642235130301017
 31
0.0
  0
LINE
  5
3D0
330
1F
100
AcDbEntity
  8
0
100
AcDbLine
 10
7.553184333298401
 20
-3.642235130301017
 30
0.0
 11
7.537679010149835
 21
-3.54595715831144
 31
0.0
  0
LINE
  5
3D1
330
1F
100
AcDbEntity
  8
0
100
AcDbLine
 10
7.537679010149835
 20
-3.54595715831144
 30
0.0
 11
7.533542681565994
 21
-3.394803893776233
 31
0.0
  0
LINE
  5
3D2
330
1F
100
AcDbEntity
  8
0
100
AcDbLine
 10
7.162423402302708
 20
-2.837148013463403
 30
0.0
 11
7.162423402302708
 21
-4.311540367493098
 31
0.0
  0
LINE
  5
3D3
330
1F
100
AcDbEntity
  8
0
100
AcDbLine
 10
7.162423402302708
 20
-4.311540367493098
 30
0.0
 11
7.533542681565994
 21
-4.311540367493098
 31
0.0
  0
LINE
  5
3D4
330
1F
100
AcDbEntity
  8
0
100
AcDbLine
 10
7.533542681565994
 20
-4.311540367493098
 30
0.0
 11
7.533542681565994
 21
-3.829189303569504
 31
0.0
  0
LINE
  5
3D5
330
1F
100
AcDbEntity
  8
0
100
AcDbLine
 10
7.533542681565994
 20
-3.829189303569504
 30
0.0
 11
7.538269914233246
 21
-3.829189303569504
 31
0.0
  0
LINE
  5
3D6
330
1F
100
AcDbEntity
  8
0
100
AcDbLine
 10
7.538269914233246
 20
-3.829189303569504
 30
0.0
 11
7.575701718236723
 21
-3.901913838794531
 31
0.0
  0
LINE
  5
3D7
330
1F
100
AcDbEntity
  8
0
100
AcDbLine
 10
7.575701718236723
 20
-3.901913838794531
 30
0.0
 11
7.630167317284513
 21
-3.94678709488837
 31
0.0
  0
LINE
  5
3D8
330
1F
100
AcDbEntity
  8
0
100
AcDbLine
 10
7.630167317284513
 20
-3.94678709488837
 30
0.0
 11
7.697022205281042
 21
-3.969997807284544
 31
0.0
  0
LINE
  5
3D9
330
1F
100
AcDbEntity
  8
0
100
AcDbLine
 10
7.697022205281042
 20
-3.969997807284544
 30
0.0
 11
7.771621876130742
 21
-3.977734711416612
 31
0.0
  0
LINE
  5
3DA
330
1F
100
AcDbEntity
  8
0
100
AcDbLine
 10
7.771621876130742
 20
-3.977734711416612
 30
0.0
 11
7.913076434976984
 21
-3.951900384890105
 31
0.0
  0
LINE
  5
3DB
330
1F
100
AcDbEntity
  8
0
100
AcDbLine
 10
7.913076434976984
 20
-3.951900384890105
 30
0.0
 11
7.971414425451362
 21
-3.916247202177674
 31
0.0
  0
LINE
  5
3DC
330
1F
100
AcDbEntity
  8
0
100
AcDbLine
 10
7.971414425451362
 20
-3.916247202177674
 30
0.0
 11
8.020463403734597
 21
-3.860956307093401
 31
0.0
  0
LINE
  5
3DD
330
1F
100
AcDbEntity
  8
0
100
AcDbLine
 10
8.020463403734597
 20
-3.860956307093401
 30
0.0
 11
8.059961402349721
 21
-3.785255584968281
 31
0.0
  0
LINE
  5
3DE
330
1F
100
AcDbEntity
  8
0
100
AcDbLine
 10
8.059961402349721
 20
-3.785255584968281
 30
0.0
 11
8.089646453819745
 21
-3.688372921133344
 31
0.0
  0
LINE
  5
3DF
330
1F
100
AcDbEntity
  8
0
100
AcDbLine
 10
8.089646453819745
 20
-3.688372921133344
 30
0.0
 11
8.114425031717227
 21
-3.419684895048169
 31
0.0
  0
LINE
  5
3E0
330
1F
100
AcDbEntity
  8
0
100
AcDbLine
 10
8.114425031717227
 20
-3.419684895048169
 30
0.0
 11
8.095829280212449
 21
-3.149444760903922
 31
0.0
  0
LINE
  5
3E1
330
1F
100
AcDbEntity
  8
0
100
AcDbLine
 10
8.095829280212449
 20
-3.149444760903922
 30
0.0
 11
8.040042025698106
 21
-2.958779709991652
 31
0.0
  0
LINE
  5
3E2
330
1F
100
AcDbEntity
  8
0
100
AcDbLine
 10
8.040042025698106
 20
-2.958779709991652
 30
0.0
 11
7.995877362084285
 21
-2.892770799674533
 31
0.0
  0
LINE
  5
3E3
330
1F
100
AcDbEntity
  8
0
100
AcDbLine
 10
7.995877362084285
 20
-2.892770799674533
 30
0.0
 11
7.93776637726195
 21
-2.845621578019445
 31
0.0
  0
LINE
  5
3E4
330
1F
100
AcDbEntity
  8
0
100
AcDbLine
 10
7.93776637726195
 20
-2.845621578019445
 30
0.0
 11
7.865709071231103
 21
-2.817332045026387
 31
0.0
  0
LINE
  5
3E5
330
1F
100
AcDbEntity
  8
0
100
AcDbLine
 10
7.865709071231103
 20
-2.817332045026387
 30
0.0
 11
7.779705443991742
 21
-2.807902200695376
 31
0.0
  0
LINE
  5
3E6
330
1F
100
AcDbEntity
  8
0
100
AcDbLine
 10
7.779705443991742
 20
-2.807902200695376
 30
0.0
 11
7.692541182648553
 21
-2.819243619736213
 31
0.0
  0
LINE
  5
3E7
330
1F
100
AcDbEntity
  8
0
100
AcDbLine
 10
7.692541182648553
 20
-2.819243619736213
 30
0.0
 11
7.621130424168957
 21
-2.853267876858719
 31
0.0
  0
LINE
  5
3E8
330
1F
100
AcDbEntity
  8
0
100
AcDbLine
 10
7.621130424168957
 20
-2.853267876858719
 30
0.0
 11
7.565473168552967
 21
-2.909974972062892
 31
0.0
  0
LINE
  5
3E9
330
1F
100
AcDbEntity
  8
0
100
AcDbLine
 10
7.565473168552967
 20
-2.909974972062892
 30
0.0
 11
7.525569415800571
 21
-2.989364905348734
 31
0.0
  0
LINE
  5
3EA
330
1F
100
AcDbEntity
  8
0
100
AcDbLine
 10
7.525569415800571
 20
-2.989364905348734
 30
0.0
 11
7.521440965937844
 21
-2.989364905348734
 31
0.0
  0
LINE
  5
3EB
330
1F
100
AcDbEntity
  8
0
100
AcDbLine
 10
7.521440965937844
 20
-2.989364905348734
 30
0.0
 11
7.521440965937844
 21
-2.837148013463403
 31
0.0
  0
LINE
  5
3EC
330
1F
100
AcDbEntity
  8
0
100
AcDbLine
 10
7.521440965937844
 20
-2.837148013463403
 30
0.0
 11
7.162423402302708
 21
-2.837148013463403
 31
0.0
  0
LINE
  5
3ED
330
1F
100
AcDbEntity
  8
0
100
AcDbLine
 10
8.236450664301081
 20
-2.480147402432955
 30
0.0
 11
8.236450664301081
 21
-3.95453975646265
 31
0.0
  0
LINE
  5
3EE
330
1F
100
AcDbEntity
  8
0
100
AcDbLine
 10
8.236450664301081
 20
-3.95453975646265
 30
0.0
 11
8.608578419866717
 21
-3.95453975646265
 31
0.0
  0
LINE
  5
3EF
330
1F
100
AcDbEntity
  8
0
100
AcDbLine
 10
8.608578419866717
 20
-3.95453975646265
 30
0.0
 11
8.608578419866717
 21
-2.480147402432955
 31
0.0
  0
LINE
  5
3F0
330
1F
100
AcDbEntity
  8
0
100
AcDbLine
 10
8.608578419866717
 20
-2.480147402432955
 30
0.0
 11
8.236450664301081
 21
-2.480147402432955
 31
0.0
  0
LINE
  5
3F1
330
1F
100
AcDbEntity
  8
0
100
AcDbLine
 10
9.305435544787724
 20
-3.206912152695417
 30
0.0
 11
9.305435544787724
 21
-3.256674155239296
 31
0.0
  0
LINE
  5
3F2
330
1F
100
AcDbEntity
  8
0
100
AcDbLine
 10
9.305435544787724
 20
-3.256674155239296
 30
0.0
 11
9.10172333171386
 21
-3.256674155239296
 31
0.0
  0
LINE
  5
3F3
330
1F
100
AcDbEntity
  8
0
100
AcDbLine
 10
9.10172333171386
 20
-3.256674155239296
 30
0.0
 11
9.10172333171386
 21
-3.206912152695417
 31
0.0
  0
LINE
  5
3F4
330
1F
100
AcDbEntity
  8
0
100
AcDbLine
 10
9.10172333171386
 20
-3.206912152695417
 30
0.0
 11
9.123326785003167
 21
-3.076282956657175
 31
0.0
  0
LINE
  5
3F5
330
1F
100
AcDbEntity
  8
0
100
AcDbLine
 10
9.123326785003167
 20
-3.076282956657175
 30
0.0
 11
9.15393561652359
 21
-3.045177765706693
 31
0.0
  0
LINE
  5
3F6
330
1F
100
AcDbEntity
  8
0
100
AcDbLine
 10
9.15393561652359
 20
-3.045177765706693
 30
0.0
 11
9.20255520450622
 21
-3.034809368723201
 31
0.0
  0
LINE
  5
3F7
330
1F
100
AcDbEntity
  8
0
100
AcDbLine
 10
9.20255520450622
 20
-3.034809368723201
 30
0.0
 11
9.252711143105703
 21
-3.045177765706693
 31
0.0
  0
LINE
  5
3F8
330
1F
100
AcDbEntity
  8
0
100
AcDbLine
 10
9.252711143105703
 20
-3.045177765706693
 30
0.0
 11
9.283832091498413
 21
-3.076282956657175
 31
0.0
  0
LINE
  5
3F9
330
1F
100
AcDbEntity
  8
0
100
AcDbLine
 10
9.283832091498413
 20
-3.076282956657175
 30
0.0
 11
9.305435544787724
 21
-3.206912152695417
 31
0.0
  0
LINE
  5
3FA
330
1F
100
AcDbEntity
  8
0
100
AcDbLine
 10
9.10172333171386
 20
-3.459377892010819
 30
0.0
 11
9.652351392794708
 21
-3.459377892010819
 31
0.0
  0
LINE
  5
3FB
330
1F
100
AcDbEntity
  8
0
100
AcDbLine
 10
9.652351392794708
 20
-3.459377892010819
 30
0.0
 11
9.652351392794708
 21
-3.345624916594652
 31
0.0
  0
LINE
  5
3FC
330
1F
100
AcDbEntity
  8
0
100
AcDbLine
 10
9.652351392794708
 20
-3.345624916594652
 30
0.0
 11
9.645384633651359
 21
-3.205253681901317
 31
0.0
  0
LINE
  5
3FD
330
1F
100
AcDbEntity
  8
0
100
AcDbLine
 10
9.645384633651359
 20
-3.205253681901317
 30
0.0
 11
9.624484356221293
 21
-3.090212535583322
 31
0.0
  0
LINE
  5
3FE
330
1F
100
AcDbEntity
  8
0
100
AcDbLine
 10
9.624484356221293
 20
-3.090212535583322
 30
0.0
 11
9.58939056270782
 21
-2.997661198679753
 31
0.0
  0
LINE
  5
3FF
330
1F
100
AcDbEntity
  8
0
100
AcDbLine
 10
9.58939056270782
 20
-2.997661198679753
 30
0.0
 11
9.539843255314251
 21
-2.924759392229704
 31
0.0
  0
LINE
  5
400
330
1F
100
AcDbEntity
  8
0
100
AcDbLine
 10
9.539843255314251
 20
-2.924759392229704
 30
0.0
 11
9.476362429633966
 21
-2.870729092523354
 31
0.0
  0
LINE
  5
401
330
1F
100
AcDbEntity
  8
0
100
AcDbLine
 10
9.476362429633966
 20
-2.870729092523354
 30
0.0
 11
9.399468081260368
 21
-2.834792275850894
 31
0.0
  0
LINE
  5
402
330
1F
100
AcDbEntity
  8
0
100
AcDbLine
 10
9.399468081260368
 20
-2.834792275850894
 30
0.0
 11
9.308900212396756
 21
-2.814624719484254
 31
0.0
  0
LINE
  5
403
330
1F
100
AcDbEntity
  8
0
100
AcDbLine
 10
9.308900212396756
 20
-2.814624719484254
 30
0.0
 11
9.204398825246448
 21
-2.807902200695376
 31
0.0
  0
LINE
  5
404
330
1F
100
AcDbEntity
  8
0
100
AcDbLine
 10
9.204398825246448
 20
-2.807902200695376
 30
0.0
 11
9.087500270426279
 21
-2.815910920705795
 31
0.0
  0
LINE
  5
405
330
1F
100
AcDbEntity
  8
0
100
AcDbLine
 10
9.087500270426279
 20
-2.815910920705795
 30
0.0
 11
8.988671562476656
 21
-2.839937080737082
 31
0.0
  0
LINE
  5
406
330
1F
100
AcDbEntity
  8
0
100
AcDbLine
 10
8.988671562476656
 20
-2.839937080737082
 30
0.0
 11
8.90687467989107
 21
-2.881530819168009
 31
0.0
  0
LINE
  5
407
330
1F
100
AcDbEntity
  8
0
100
AcDbLine
 10
8.90687467989107
 20
-2.881530819168009
 30
0.0
 11
8.841071601162998
 21
-2.942242274377407
 31
0.0
  0
LINE
  5
408
330
1F
100
AcDbEntity
  8
0
100
AcDbLine
 10
8.841071601162998
 20
-2.942242274377407
 30
0.0
 11
8.791008237536586
 21
-3.022847500394787
 31
0.0
  0
LINE
  5
409
330
1F
100
AcDbEntity
  8
0
100
AcDbLine
 10
8.791008237536586
 20
-3.022847500394787
 30
0.0
 11
8.756430500255957
 21
-3.12412255124971
 31
0.0
  0
LINE
  5
40A
330
1F
100
AcDbEntity
  8
0
100
AcDbLine
 10
8.756430500255957
 20
-3.12412255124971
 30
0.0
 11
8.73630430717516
 21
-3.2481336215538
 31
0.0
  0
LINE
  5
40B
330
1F
100
AcDbEntity
  8
0
100
AcDbLine
 10
8.73630430717516
 20
-3.2481336215538
 30
0.0
 11
8.729595576148222
 21
-3.396946905918717
 31
0.0
  0
LINE
  5
40C
330
1F
100
AcDbEntity
  8
0
100
AcDbLine
 10
8.729595576148222
 20
-3.396946905918717
 30
0.0
 11
8.753342041580023
 21
-3.667707035656365
 31
0.0
  0
LINE
  5
40D
330
1F
100
AcDbEntity
  8
0
100
AcDbLine
 10
8.753342041580023
 20
-3.667707035656365
 30
0.0
 11
8.785089348301137
 21
-3.768724058394862
 31
0.0
  0
LINE
  5
40E
330
1F
100
AcDbEntity
  8
0
100
AcDbLine
 10
8.785089348301137
 20
-3.768724058394862
 30
0.0
 11
8.832838337600878
 21
-3.848555200062988
 31
0.0
  0
LINE
  5
40F
330
1F
100
AcDbEntity
  8
0
100
AcDbLine
 10
8.832838337600878
 20
-3.848555200062988
 30
0.0
 11
8.897365063508792
 21
-3.907976514690273
 31
0.0
  0
LINE
  5
410
330
1F
100
AcDbEntity
  8
0
100
AcDbLine
 10
8.897365063508792
 20
-3.907976514690273
 30
0.0
 11
8.97944558005442
 21
-3.947764056306266
 31
0.0
  0
LINE
  5
411
330
1F
100
AcDbEntity
  8
0
100
AcDbLine
 10
8.97944558005442
 20
-3.947764056306266
 30
0.0
 11
9.081140172808551
 21
-3.970242047639021
 31
0.0
  0
LINE
  5
412
330
1F
100
AcDbEntity
  8
0
100
AcDbLine
 10
9.081140172808551
 20
-3.970242047639021
 30
0.0
 11
9.20450912734202
 21
-3.977734711416612
 31
0.0
  0
LINE
  5
413
330
1F
100
AcDbEntity
  8
0
100
AcDbLine
 10
9.20450912734202
 20
-3.977734711416612
 30
0.0
 11
9.403257746115273
 21
-3.951675841338411
 31
0.0
  0
LINE
  5
414
330
1F
100
AcDbEntity
  8
0
100
AcDbLine
 10
9.403257746115273
 20
-3.951675841338411
 30
0.0
 11
9.478239534938917
 21
-3.919102253740672
 31
0.0
  0
LINE
  5
415
330
1F
100
AcDbEntity
  8
0
100
AcDbLine
 10
9.478239534938917
 20
-3.919102253740672
 30
0.0
 11
9.536959643387222
 21
-3.873499231103821
 31
0.0
  0
LINE
  5
416
330
1F
100
AcDbEntity
  8
0
100
AcDbLine
 10
9.536959643387222
 20
-3.873499231103821
 30
0.0
 11
9.581483281231714
 21
-3.814987908764984
 31
0.0
  0
LINE
  5
417
330
1F
100
AcDbEntity
  8
0
100
AcDbLine
 10
9.581483281231714
 20
-3.814987908764984
 30
0.0
 11
9.613875658243881
 21
-3.743689422061235
 31
0.0
  0
LINE
  5
418
330
1F
100
AcDbEntity
  8
0
100
AcDbLine
 10
9.613875658243881
 20
-3.743689422061235
 30
0.0
 11
9.642266629771258
 21
-3.56273095555905
 31
0.0
  0
LINE
  5
419
330
1F
100
AcDbEntity
  8
0
100
AcDbLine
 10
9.642266629771258
 20
-3.56273095555905
 30
0.0
 11
9.307452497392418
 21
-3.56273095555905
 31
0.0
  0
LINE
  5
41A
330
1F
100
AcDbEntity
  8
0
100
AcDbLine
 10
9.307452497392418
 20
-3.56273095555905
 30
0.0
 11
9.300509374412403
 21
-3.65799651188573
 31
0.0
  0
LINE
  5
41B
330
1F
100
AcDbEntity
  8
0
100
AcDbLine
 10
9.300509374412403
 20
-3.65799651188573
 30
0.0
 11
9.279680005472345
 21
-3.716602378877918
 31
0.0
  0
LINE
  5
41C
330
1F
100
AcDbEntity
  8
0
100
AcDbLine
 10
9.279680005472345
 20
-3.716602378877918
 30
0.0
 11
9.246504680549664
 21
-3.746809395621622
 31
0.0
  0
LINE
  5
41D
330
1F
100
AcDbEntity
  8
0
100
AcDbLine
 10
9.246504680549664
 20
-3.746809395621622
 30
0.0
 11
9.202523689621767
 21
-3.756878401202858
 31
0.0
  0
LINE
  5
41E
330
1F
100
AcDbEntity
  8
0
100
AcDbLine
 10
9.202523689621767
 20
-3.756878401202858
 30
0.0
 11
9.165499609435836
 21
-3.749389676785831
 31
0.0
  0
LINE
  5
41F
330
1F
100
AcDbEntity
  8
0
100
AcDbLine
 10
9.165499609435836
 20
-3.749389676785831
 30
0.0
 11
9.132584282309864
 21
-3.726923503534738
 31
0.0
  0
LINE
  5
420
330
1F
100
AcDbEntity
  8
0
100
AcDbLine
 10
9.132584282309864
 20
-3.726923503534738
 30
0.0
 11
9.109438569362856
 21
-3.681731159235861
 31
0.0
  0
LINE
  5
421
330
1F
100
AcDbEntity
  8
0
100
AcDbLine
 10
9.109438569362856
 20
-3.681731159235861
 30
0.0
 11
9.10172333171386
 21
-3.606063921675472
 31
0.0
  0
LINE
  5
422
330
1F
100
AcDbEntity
  8
0
100
AcDbLine
 10
9.10172333171386
 20
-3.606063921675472
 30
0.0
 11
9.10172333171386
 21
-3.459377892010819
 31
0.0
  0
LINE
  5
423
330
1F
100
AcDbEntity
  8
0
100
AcDbLine
 10
10.1471154257839
 20
-3.382371808594642
 30
0.0
 11
9.156441659540745
 21
-0.9906737662431659
 31
0.0
  0
LINE
  5
424
330
1F
100
AcDbEntity
  8
0
100
AcDbLine
 10
4.373045574837792
 20
-5.774069850946119
 30
0.0
 11
6.764743617189269
 21
-6.764743617189277
 31
0.0
  0
LINE
  5
425
330
1F
100
AcDbEntity
  8
0
100
AcDbLine
 10
9.156441659540745
 20
-5.774069850946119
 30
0.0
 11
10.1471154257839
 21
-3.382371808594642
 31
0.0
  0
LINE
  5
426
330
1F
100
AcDbEntity
  8
0
100
AcDbLine
 10
6.764743617189269
 20
-6.764743617189277
 30
0.0
 11
9.156441659540745
 21
-5.774069850946119
 31
0.0
  0
LINE
  5
427
330
1F
100
AcDbEntity
  8
0
100
AcDbLine
 10
3.382371808594634
 20
-3.382371808594642
 30
0.0
 11
4.373045574837792
 21
-5.774069850946119
 31
0.0
  0
LINE
  5
428
330
1F
100
AcDbEntity
  8
0
100
AcDbLine
 10
9.156441659540745
 20
-0.9906737662431659
 30
0.0
 11
6.764743617189269
 21
-0.000000000000008
 31
0.0
  0
LINE
  5
429
330
1F
100
AcDbEntity
  8
0
100
AcDbLine
 10
6.764743617189269
 20
-0.000000000000008
 30
0.0
 11
4.373045574837792
 21
-0.990673766243166
 31
0.0
  0
LINE
  5
42A
330
1F
100
AcDbEntity
  8
0
100
AcDbLine
 10
4.373045574837792
 20
-0.990673766243166
 30
0.0
 11
3.382371808594634
 21
-3.382371808594642
 31
0.0
  0
LINE
  5
42B
330
1F
100
AcDbEntity
  8
0
100
AcDbLine
 10
8.490944114257953
 20
2.827372623317276
 30
0.0
 11
8.68886166074133
 21
2.833287506798448
 31
0.0
  0
ENDSEC
  0
SECTION
  2
OBJECTS
  0
DICTIONARY
  5
C
330
0
100
AcDbDictionary
  3
ACAD_GROUP
350
D
  3
ACAD_LAYOUT
350
1A
  3
ACAD_MATERIAL
350
43
  3
ACAD_MLEADERSTYLE
350
44E
  3
ACAD_MLINESTYLE
350
17
  3
ACAD_PLOTSETTINGS
350
19
  3
ACAD_SCALELIST
350
47
  3
ACAD_VISUALSTYLE
350
2A
  3
ACDBHEADERROUNDTRIPXREC
350
42C
  3
ACDBVARIABLEDICTIONARY
350
44C
  0
DICTIONARY
  5
453
330
8
100
AcDbDictionary
280
     1
  3
ACAD_XREC_ROUNDTRIP
360
454
  0
DICTIONARY
  5
D
102
{ACAD_REACTORS
330
C
102
}
330
C
100
AcDbDictionary
  0
DICTIONARY
  5
1A
102
{ACAD_REACTORS
330
C
102
}
330
C
100
AcDbDictionary
  0
DICTIONARY
  5
43
102
{ACAD_REACTORS
330
C
102
}
330
C
100
AcDbDictionary
  3
BYBLOCK
350
45
  3
BYLAYER
350
44
  3
GLOBAL
350
46
  0
DICTIONARY
  5
44E
102
{ACAD_REACTORS
330
C
102
}
330
C
100
AcDbDictionary
  0
DICTIONARY
  5
17
102
{ACAD_REACTORS
330
C
102
}
330
C
100
AcDbDictionary
  3
STANDARD
350
18
  0
DICTIONARY
  5
19
102
{ACAD_REACTORS
330
C
102
}
330
C
100
AcDbDictionary
  0
DICTIONARY
  5
47
102
{ACAD_REACTORS
330
C
102
}
330
C
100
AcDbDictionary
  3
A0
350
48
  3
A1
350
49
  3
A2
350
4A
  3
A3
350
4B
  3
A4
350
4C
  3
A5
350
4D
  3
A6
350
4E
  3
A7
350
4F
  3
A8
350
50
  3
A9
350
51
  3
B0
350
52
  3
B1
350
53
  3
B2
350
54
  3
B3
350
55
  3
B4
350
56
  3
B5
350
57
  3
B6
350
58
  3
B7
350
59
  3
B8
350
5A
  3
B9
350
5B
  3
C0
350
5C
  3
C1
350
5D
  3
C2
350
5E
  3
C3
350
5F
  3
C4
350
60
  3
C5
350
61
  3
C6
350
62
  3
C7
350
63
  3
C8
350
64
  3
C9
350
65
  3
D0
350
66
  3
D1
350
67
  3
D2
350
68
  0
DICTIONARY
  5
2A
102
{ACAD_REACTORS
330
C
102
}
330
C
100
AcDbDictionary
  3
2DWIREFRAME
350
2F
  3
BASIC
350
32
  3
BRIGHTEN
350
36
  3
COLORCHANGE
350
3A
  3
CONCEPTUAL
350
34
  3
DIM
350
35
  3
EDGECOLOROFF
350
3D
  3
FACEPATTERN
350
39
  3
FLAT
350
2B
  3
FLATWITHEDGES
350
2C
  3
GOURAUD
350
2D
  3
GOURAUDWITHEDGES
350
2E
  3
HIDDEN
350
31
  3
JITTEROFF
350
3B
  3
LINEPATTERN
350
38
  3
OVERHANGOFF
350
3C
  3
REALISTIC
350
33
  3
SHADED
350
42
  3
SHADED_WITH_EDGES
350
41
  3
SHADES_OF_GRAY
350
3E
  3
SKETCHY
350
3F
  3
THICKEN
350
37
  3
WIREFRAME
350
30
  3
X-RAY
350
40
  0
DICTIONARY
  5
42C
102
{ACAD_REACTORS
330
C
102
}
330
C
100
AcDbDictionary
  3
CEPSNTYPE
350
435
  3
DIMSTYLEDATA
350
44B
  3
FINGERPRINTGUID
350
436
  3
HYPERLINKBASE
350
42F
  3
INSUNITS
350
434
  3
LAYOUTDICT
350
431
  3
LWETCUNION
350
433
  3
PLOTSETDICT
350
432
  3
PSVPSCALE
350
438
  3
PUCSBASE
350
43B
  3
PUCSORGBACK
350
441
  3
PUCSORGBOTTOM
350
43D
  3
PUCSORGFRONT
350
440
  3
PUCSORGLEFT
350
43E
  3
PUCSORGRIGHT
350
43F
  3
PUCSORGTOP
350
43C
  3
PUCSORTHOREF
350
439
  3
PUCSORTHOVIEW
350
43A
  3
STYLESHEET
350
430
  3
TSTACKALIGN
350
42D
  3
TSTACKSIZE
350
42E
  3
UCSBASE
350
444
  3
UCSORGBACK
350
44A
  3
UCSORGBOTTOM
350
446
  3
UCSORGFRONT
350
449
  3
UCSORGLEFT
350
447
  3
UCSORGRIGHT
350
448
  3
UCSORGTOP
350
445
  3
UCSORTHOREF
350
442
  3
UCSORTHOVIEW
350
443
  3
VERSIONGUID
350
437
  0
DICTIONARY
  5
44C
102
{ACAD_REACTORS
330
C
102
}
330
C
100
AcDbDictionary
  3
CANNOSCALE
350
455
  3
DIMASSOC
350
451
  3
HIDETEXT
350
452
  3
MSLTSCALE
350
456
  0
XRECORD
  5
454
102
{ACAD_REACTORS
330
453
102
}
330
453
100
AcDbXrecord
102
VTR_0.000_0.000_1.000_1.000_GRIDDISPLAY
 70
     3
102
VTR_0.000_0.000_1.000_1.000_GRIDMAJOR
 70
     5
102
VTR_0.000_0.000_1.000_1.000_DEFAULTLIGHTING
280
     1
102
VTR_0.000_0.000_1.000_1.000_DEFAULTLIGHTINGTYPE
 70
     1
102
VTR_0.000_0.000_1.000_1.000_BRIGHTNESS
141
0.0
102
VTR_0.000_0.000_1.000_1.000_CONTRAST
142
0.0
  0
MATERIAL
  5
45
102
{ACAD_REACTORS
330
43
102
}
102
{ACAD_XDICTIONARY
360
459
102
}
330
43
100
AcDbMaterial
  1
BYBLOCK
  0
MATERIAL
  5
44
102
{ACAD_REACTORS
330
43
102
}
102
{ACAD_XDICTIONARY
360
457
102
}
330
43
100
AcDbMaterial
  1
BYLAYER
  0
MATERIAL
  5
46
102
{ACAD_REACTORS
330
43
102
}
102
{ACAD_XDICTIONARY
360
45B
102
}
330
43
100
AcDbMaterial
  1
GLOBAL
  0
MLINESTYLE
  5
18
102
{ACAD_REACTORS
330
17
102
}
330
17
100
AcDbMlineStyle
  2
Standard
 70
     0
  3

 62
   256
 51
90.0
 52
90.0
 71
     2
 49
0.5
 62
   256
  6
BYLAYER
 49
-0.5
 62
   256
  6
BYLAYER
  0
ACAD_PROXY_OBJECT
  5
48
102
{ACAD_REACTORS
330
47
102
}
330
47
100
AcDbProxyObject
 90
      499
 91
      503
 93
       41
310
903313A31580
  0
ACAD_PROXY_OBJECT
  5
49
102
{ACAD_REACTORS
330
47
102
}
330
47
100
AcDbProxyObject
 90
      499
 91
      503
 93
      105
310
903313A324000000000000004000
  0
ACAD_PROXY_OBJECT
  5
4A
102
{ACAD_REACTORS
330
47
102
}
330
47
100
AcDbProxyObject
 90
      499
 91
      503
 93
      105
310
903313A344000000000000104000
  0
ACAD_PROXY_OBJECT
  5
4B
102
{ACAD_REACTORS
330
47
102
}
330
47
100
AcDbProxyObject
 90
      499
 91
      503
 93
      105
310
903313A354000000000000144000
  0
ACAD_PROXY_OBJECT
  5
4C
102
{ACAD_REACTORS
330
47
102
}
330
47
100
AcDbProxyObject
 90
      499
 91
      503
 93
      105
310
903313A384000000000000204000
  0
ACAD_PROXY_OBJECT
  5
4D
102
{ACAD_REACTORS
330
47
102
}
330
47
100
AcDbProxyObject
 90
      499
 91
      503
 93
      113
310
904313A31304000000000000244000
  0
ACAD_PROXY_OBJECT
  5
4E
102
{ACAD_REACTORS
330
47
102
}
330
47
100
AcDbProxyObject
 90
      499
 91
      503
 93
      113
310
904313A31364000000000000304000
  0
ACAD_PROXY_OBJECT
  5
4F
102
{ACAD_REACTORS
330
47
102
}
330
47
100
AcDbProxyObject
 90
      499
 91
      503
 93
      113
310
904313A32304000000000000344000
  0
ACAD_PROXY_OBJECT
  5
50
102
{ACAD_REACTORS
330
47
102
}
330
47
100
AcDbProxyObject
 90
      499
 91
      503
 93
      113
310
904313A333040000000000003E4000
  0
ACAD_PROXY_OBJECT
  5
51
102
{ACAD_REACTORS
330
47
102
}
330
47
100
AcDbProxyObject
 90
      499
 91
      503
 93
      113
310
904313A34304000000000000444000
  0
ACAD_PROXY_OBJECT
  5
52
102
{ACAD_REACTORS
330
47
102
}
330
47
100
AcDbProxyObject
 90
      499
 91
      503
 93
      113
310
904313A35304000000000000494000
  0
ACAD_PROXY_OBJECT
  5
53
102
{ACAD_REACTORS
330
47
102
}
330
47
100
AcDbProxyObject
 90
      499
 91
      503
 93
      121
310
905313A3130304000000000000594000
  0
ACAD_PROXY_OBJECT
  5
54
102
{ACAD_REACTORS
330
47
102
}
330
47
100
AcDbProxyObject
 90
      499
 91
      503
 93
      105
310
903323A310000000000000010100
  0
ACAD_PROXY_OBJECT
  5
55
102
{ACAD_REACTORS
330
47
102
}
330
47
100
AcDbProxyObject
 90
      499
 91
      503
 93
      105
310
903343A310000000000000410100
  0
ACAD_PROXY_OBJECT
  5
56
102
{ACAD_REACTORS
330
47
102
}
330
47
100
AcDbProxyObject
 90
      499
 91
      503
 93
      105
310
903383A310000000000000810100
  0
ACAD_PROXY_OBJECT
  5
57
102
{ACAD_REACTORS
330
47
102
}
330
47
100
AcDbProxyObject
 90
      499
 91
      503
 93
      113
310
90431303A310000000000000910100
  0
ACAD_PROXY_OBJECT
  5
58
102
{ACAD_REACTORS
330
47
102
}
330
47
100
AcDbProxyObject
 90
      499
 91
      503
 93
      121
310
9053130303A310000000000001650100
  0
ACAD_PROXY_OBJECT
  5
59
102
{ACAD_REACTORS
330
47
102
}
330
47
100
AcDbProxyObject
 90
      499
 91
      503
 93
      257
310
90E312F31323822203D2031272D3022000000000000200FC000000000000284000
  0
ACAD_PROXY_OBJECT
  5
5A
102
{ACAD_REACTORS
330
47
102
}
330
47
100
AcDbProxyObject
 90
      499
 91
      503
 93
      249
310
90D312F363422203D2031272D3022000000000000240FC000000000000284000
  0
ACAD_PROXY_OBJECT
  5
5B
102
{ACAD_REACTORS
330
47
102
}
330
47
100
AcDbProxyObject
 90
      499
 91
      503
 93
      249
310
90D312F333222203D2031272D3022000000000000280FC000000000000284000
  0
ACAD_PROXY_OBJECT
  5
5C
102
{ACAD_REACTORS
330
47
102
}
330
47
100
AcDbProxyObject
 90
      499
 91
      503
 93
      249
310
90D312F313622203D2031272D30220000000000002C0FC000000000000284000
  0
ACAD_PROXY_OBJECT
  5
5D
102
{ACAD_REACTORS
330
47
102
}
330
47
100
AcDbProxyObject
 90
      499
 91
      503
 93
      249
310
90D332F333222203D2031272D30220000000000002E0FC000000000000284000
  0
ACAD_PROXY_OBJECT
  5
5E
102
{ACAD_REACTORS
330
47
102
}
330
47
100
AcDbProxyObject
 90
      499
 91
      503
 93
      241
310
90C312F3822203D2031272D3022000000000000300FC000000000000284000
  0
ACAD_PROXY_OBJECT
  5
5F
102
{ACAD_REACTORS
330
47
102
}
330
47
100
AcDbProxyObject
 90
      499
 91
      503
 93
      249
310
90D332F313622203D2031272D3022000000000000320FC000000000000284000
  0
ACAD_PROXY_OBJECT
  5
60
102
{ACAD_REACTORS
330
47
102
}
330
47
100
AcDbProxyObject
 90
      499
 91
      503
 93
      241
310
90C312F3422203D2031272D3022000000000000340FC000000000000284000
  0
ACAD_PROXY_OBJECT
  5
61
102
{ACAD_REACTORS
330
47
102
}
330
47
100
AcDbProxyObject
 90
      499
 91
      503
 93
      241
310
90C332F3822203D2031272D3022000000000000360FC000000000000284000
  0
ACAD_PROXY_OBJECT
  5
62
102
{ACAD_REACTORS
330
47
102
}
330
47
100
AcDbProxyObject
 90
      499
 91
      503
 93
      241
310
90C312F3222203D2031272D3022000000000000380FC000000000000284000
  0
ACAD_PROXY_OBJECT
  5
63
102
{ACAD_REACTORS
330
47
102
}
330
47
100
AcDbProxyObject
 90
      499
 91
      503
 93
      241
310
90C332F3422203D2031272D30220000000000003A0FC000000000000284000
  0
ACAD_PROXY_OBJECT
  5
64
102
{ACAD_REACTORS
330
47
102
}
330
47
100
AcDbProxyObject
 90
      499
 91
      503
 93
      161
310
90A3122203D2031272D30224000000000000284000
  0
ACAD_PROXY_OBJECT
  5
65
102
{ACAD_REACTORS
330
47
102
}
330
47
100
AcDbProxyObject
 90
      499
 91
      503
 93
      257
310
90E312D312F3222203D2031272D30220000000000003E0FC000000000000284000
  0
ACAD_PROXY_OBJECT
  5
66
102
{ACAD_REACTORS
330
47
102
}
330
47
100
AcDbProxyObject
 90
      499
 91
      503
 93
      225
310
90A3322203D2031272D302200000000000002100000000000000284000
  0
ACAD_PROXY_OBJECT
  5
67
102
{ACAD_REACTORS
330
47
102
}
330
47
100
AcDbProxyObject
 90
      499
 91
      503
 93
      225
310
90A3622203D2031272D302200000000000006100000000000000284000
  0
ACAD_PROXY_OBJECT
  5
68
102
{ACAD_REACTORS
330
47
102
}
330
47
100
AcDbProxyObject
 90
      499
 91
      503
 93
      249
310
90D31272D3022203D2031272D30220000000000000A100000000000000284000
  0
ACAD_PROXY_OBJECT
  5
2F
102
{ACAD_REACTORS
330
2A
102
}
330
2A
100
AcDbProxyObject
 90
      499
 91
      501
 93
      436
310
42CC9915DA5C99599C985B595049028333333333333E33F0000000000000F90107901411070040501600405405064090741402480A0340
1001
ACAD
1000
AcDbSavedByObjectVersion
1070
     0
  0
ACAD_PROXY_OBJECT
  5
32
102
{ACAD_REACTORS
330
2A
102
}
330
2A
100
AcDbProxyObject
 90
      499
 91
      501
 93
      388
310
4150985CDA58D07406404333333333333E33F0000000000000F90107A41107004050150841D405064090741402480A0350
1001
ACAD
1000
AcDbSavedByObjectVersion
1070
     0
  0
ACAD_PROXY_OBJECT
  5
36
102
{ACAD_REACTORS
330
2A
102
}
330
2A
100
AcDbProxyObject
 90
      499
 91
      501
 93
      428
310
42109C9A59DA1D195B90C409028333333333333E33F0000000000000F9010790141107004050150841D405064090741402480A029950
1001
ACAD
1000
AcDbSavedByObjectVersion
1070
     0
  0
ACAD_PROXY_OBJECT
  5
3A
102
{ACAD_REACTORS
330
2A
102
}
330
2A
100
AcDbProxyObject
 90
      499
 91
      501
 93
      452
310
42D0DBDB1BDC90DA185B99D95104090240C333333333333E33F0000000000000F90108901411070040501508421405064090741402480A0350
1001
ACAD
1000
AcDbSavedByObjectVersion
1070
     0
  0
ACAD_PROXY_OBJECT
  5
34
102
{ACAD_REACTORS
330
2A
102
}
330
2A
100
AcDbProxyObject
 90
      499
 91
      501
 93
      500
310
4290DBDB98D95C1D1D585B10940D028333333333333E33F0000000000000F90107902409070040501000000000018199010841D405064090740C02480A0340
1001
ACAD
1000
AcDbSavedByObjectVersion
1070
     0
  0
ACAD_PROXY_OBJECT
  5
35
102
{ACAD_REACTORS
330
2A
102
}
330
2A
100
AcDbProxyObject
 90
      499
 91
      501
 93
      412
310
40D11A5B50B409028333333333333E33F0000000000000F9010790141107004050150841D405064090741402480A02677FFFFFD0
1001
ACAD
1000
AcDbSavedByObjectVersion
1070
     0
  0
ACAD_PROXY_OBJECT
  5
3D
102
{ACAD_REACTORS
330
2A
102
}
330
2A
100
AcDbProxyObject
 90
      499
 91
      501
 93
      452
310
43115919D950DBDB1BDC93D999916409028333333333333E33F0000000000000F9010790141107004050150841D405064090741402480A0350
1001
ACAD
1000
AcDbSavedByObjectVersion
1070
     0
  0
ACAD_PROXY_OBJECT
  5
39
102
{ACAD_REACTORS
330
2A
102
}
330
2A
100
AcDbProxyObject
 90
      499
 91
      501
 93
      444
310
42D19858D95C185D1D195C9B90F409028333333333333E33F0000000000000F9010790141107004050150841D405064090741402480A0350
1001
ACAD
1000
AcDbSavedByObjectVersion
1070
     0
  0
ACAD_PROXY_OBJECT
  5
2B
102
{ACAD_REACTORS
330
2A
102
}
330
2A
100
AcDbProxyObject
 90
      499
 91
      501
 93
      380
310
41119B185D240901404333333333333E33F0000000000000F9010740A907004050150841D405064090741402480A1B50
1001
ACAD
1000
AcDbSavedByObjectVersion
1070
     0
  0
ACAD_PROXY_OBJECT
  5
2C
102
{ACAD_REACTORS
330
2A
102
}
330
2A
100
AcDbProxyObject
 90
      499
 91
      501
 93
      468
310
43519B185D15DA5D1A115919D95CD0140901404333333333333E33F0000000000000F90107409019070040501600405405064090741402480A1B50
1001
ACAD
1000
AcDbSavedByObjectVersion
1070
     0
  0
ACAD_PROXY_OBJECT
  5
2D
102
{ACAD_REACTORS
330
2A
102
}
330
2A
100
AcDbProxyObject
 90
      499
 91
      501
 93
      404
310
41D1DBDD5C985D5910240902404333333333333E33F0000000000000F9010740A9070040501641D405064090741402480A1B50
1001
ACAD
1000
AcDbSavedByObjectVersion
1070
     0
  0
ACAD_PROXY_OBJECT
  5
2E
102
{ACAD_REACTORS
330
2A
102
}
330
2A
100
AcDbProxyObject
 90
      499
 91
      501
 93
      492
310
4411DBDD5C985D5915DA5D1A115919D95CD0340902404333333333333E33F0000000000000F90107409019070040501600405405064090741402480A1B50
1001
ACAD
1000
AcDbSavedByObjectVersion
1070
     0
  0
ACAD_PROXY_OBJECT
  5
31
102
{ACAD_REACTORS
330
2A
102
}
330
2A
100
AcDbProxyObject
 90
      499
 91
      501
 93
      476
310
41921A5919195B90640502408333333333333E33F0000000000000F901079024090700405020000000000001110200405405064090740C02480A0340
1001
ACAD
1000
AcDbSavedByObjectVersion
1070
     0
  0
ACAD_PROXY_OBJECT
  5
3B
102
{ACAD_REACTORS
330
2A
102
}
330
2A
100
AcDbProxyObject
 90
      499
 91
      501
 93
      428
310
42529A5D1D195C93D999914409028333333333333E33F0000000000000F9010790141107004050150A41D405064090741402480A0350
1001
ACAD
1000
AcDbSavedByObjectVersion
1070
     0
  0
ACAD_PROXY_OBJECT
  5
38
102
{ACAD_REACTORS
330
2A
102
}
330
2A
100
AcDbProxyObject
 90
      499
 91
      501
 93
      444
310
42D31A5B995C185D1D195C9B90E409028333333333333E33F0000000000000F9010790141107004050750841D405064090741402483A0350
1001
ACAD
1000
AcDbSavedByObjectVersion
1070
     0
  0
ACAD_PROXY_OBJECT
  5
3C
102
{ACAD_REACTORS
330
2A
102
}
330
2A
100
AcDbProxyObject
 90
      499
 91
      501
 93
      444
310
42D3DD995C9A185B99D3D999915409028333333333333E33F0000000000000F9010790141107004050150941D405064090741402480A0350
1001
ACAD
1000
AcDbSavedByObjectVersion
1070
     0
  0
ACAD_PROXY_OBJECT
  5
33
102
{ACAD_REACTORS
330
2A
102
}
330
2A
100
AcDbProxyObject
 90
      499
 91
      501
 93
      428
310
425499585B1A5CDD1A58D08409038333333333333E33F0000000000000F9010740A907004050150800405405064090740C02480A1B40
1001
ACAD
1000
AcDbSavedByObjectVersion
1070
     0
  0
ACAD_PROXY_OBJECT
  5
42
102
{ACAD_REACTORS
330
2A
102
}
330
2A
100
AcDbProxyObject
 90
      499
 91
      501
 93
      420
310
4194DA1859195911B40902404333333333333E33F0000000000000F9010740A41107004050150800405405064090840C02480A0B40
1001
ACAD
1000
AcDbSavedByObjectVersion
1070
     0
  0
ACAD_PROXY_OBJECT
  5
41
102
{ACAD_REACTORS
330
2A
102
}
330
2A
100
AcDbProxyObject
 90
      499
 91
      501
 93
      516
310
4454DA18591959081DDA5D1A08195919D95CD1A40902404333333333333E33F0000000000000F901074090142907004050250800405405064090740C02480A0B40
1001
ACAD
1000
AcDbSavedByObjectVersion
1070
     0
  0
ACAD_PROXY_OBJECT
  5
3E
102
{ACAD_REACTORS
330
2A
102
}
330
2A
100
AcDbProxyObject
 90
      499
 91
      501
 93
      532
310
4394DA1859195CC81BD98811DC985E5174090240C333333333333E33F0000000000000F901079024090741D01000000000000111010841D405064090740C02480A0340
1001
ACAD
1000
AcDbSavedByObjectVersion
1070
     0
  0
ACAD_PROXY_OBJECT
  5
3F
102
{ACAD_REACTORS
330
2A
102
}
330
2A
100
AcDbProxyObject
 90
      499
 91
      501
 93
      476
310
41D4DAD95D18DA1E51840502408333333333333E33F0000000000000F901079024090741D01000000000000111010B41D405064090741802480A0340
1001
ACAD
1000
AcDbSavedByObjectVersion
1070
     0
  0
ACAD_PROXY_OBJECT
  5
37
102
{ACAD_REACTORS
330
2A
102
}
330
2A
100
AcDbProxyObject
 90
      499
 91
      501
 93
      412
310
41D51A1A58DAD95B90D409028333333333333E33F0000000000000F9010790141107004050150C41D405064090741402480A0350
1001
ACAD
1000
AcDbSavedByObjectVersion
1070
     0
  0
ACAD_PROXY_OBJECT
  5
30
102
{ACAD_REACTORS
330
2A
102
}
330
2A
100
AcDbProxyObject
 90
      499
 91
      501
 93
      420
310
4255DA5C99599C985B595059028333333333333E33F0000000000000F90107901411070040501600405405064090740C02480A0340
1001
ACAD
1000
AcDbSavedByObjectVersion
1070
     0
  0
ACAD_PROXY_OBJECT
  5
40
102
{ACAD_REACTORS
330
2A
102
}
330
2A
100
AcDbProxyObject
 90
      499
 91
      501
 93
      404
310
41560B54985E51940902404000000000000E03F0000000000000F9010740501907004050150841D405064090740C02480A1B40
1001
ACAD
1000
AcDbSavedByObjectVersion
1070
     0
  0
XRECORD
  5
435
102
{ACAD_REACTORS
330
42C
102
}
330
42C
100
AcDbXrecord
 90
        0
  0
XRECORD
  5
44B
102
{ACAD_REACTORS
330
42C
102
}
330
42C
100
AcDbXrecord
1000
DSTYLE
1002
{
1070
   340
340
11
1002
}
  0
XRECORD
  5
436
102
{ACAD_REACTORS
330
42C
102
}
330
42C
100
AcDbXrecord
  1
{0B1FFB91-18C7-4BF6-A41D-172B0AB83AB7}
  0
XRECORD
  5
42F
102
{ACAD_REACTORS
330
42C
102
}
330
42C
100
AcDbXrecord
  1

  0
XRECORD
  5
434
102
{ACAD_REACTORS
330
42C
102
}
330
42C
100
AcDbXrecord
 90
        1
  0
XRECORD
  5
431
102
{ACAD_REACTORS
330
42C
102
}
330
42C
100
AcDbXrecord
340
1A
  0
XRECORD
  5
433
102
{ACAD_REACTORS
330
42C
102
}
330
42C
100
AcDbXrecord
 90
    10781
  0
XRECORD
  5
432
102
{ACAD_REACTORS
330
42C
102
}
330
42C
100
AcDbXrecord
340
19
  0
XRECORD
  5
438
102
{ACAD_REACTORS
330
42C
102
}
330
42C
100
AcDbXrecord
 40
0.0
  0
XRECORD
  5
43B
102
{ACAD_REACTORS
330
42C
102
}
330
42C
100
AcDbXrecord
340
0
  0
XRECORD
  5
441
102
{ACAD_REACTORS
330
42C
102
}
330
42C
100
AcDbXrecord
 10
0.0
 20
0.0
 30
0.0
  0
XRECORD
  5
43D
102
{ACAD_REACTORS
330
42C
102
}
330
42C
100
AcDbXrecord
 10
0.0
 20
0.0
 30
0.0
  0
XRECORD
  5
440
102
{ACAD_REACTORS
330
42C
102
}
330
42C
100
AcDbXrecord
 10
0.0
 20
0.0
 30
0.0
  0
XRECORD
  5
43E
102
{ACAD_REACTORS
330
42C
102
}
330
42C
100
AcDbXrecord
 10
0.0
 20
0.0
 30
0.0
  0
XRECORD
  5
43F
102
{ACAD_REACTORS
330
42C
102
}
330
42C
100
AcDbXrecord
 10
0.0
 20
0.0
 30
0.0
  0
XRECORD
  5
43C
102
{ACAD_REACTORS
330
42C
102
}
330
42C
100
AcDbXrecord
 10
0.0
 20
0.0
 30
0.0
  0
XRECORD
  5
439
102
{ACAD_REACTORS
330
42C
102
}
330
42C
100
AcDbXrecord
340
0
  0
XRECORD
  5
43A
102
{ACAD_REACTORS
330
42C
102
}
330
42C
100
AcDbXrecord
 70
     0
  0
XRECORD
  5
430
102
{ACAD_REACTORS
330
42C
102
}
330
42C
100
AcDbXrecord
  1

  0
XRECORD
  5
42D
102
{ACAD_REACTORS
330
42C
102
}
330
42C
100
AcDbXrecord
 90
        1
  0
XRECORD
  5
42E
102
{ACAD_REACTORS
330
42C
102
}
330
42C
100
AcDbXrecord
 90
       70
  0
XRECORD
  5
444
102
{ACAD_REACTORS
330
42C
102
}
330
42C
100
AcDbXrecord
340
0
  0
XRECORD
  5
44A
102
{ACAD_REACTORS
330
42C
102
}
330
42C
100
AcDbXrecord
 10
0.0
 20
0.0
 30
0.0
  0
XRECORD
  5
446
102
{ACAD_REACTORS
330
42C
102
}
330
42C
100
AcDbXrecord
 10
0.0
 20
0.0
 30
0.0
  0
XRECORD
  5
449
102
{ACAD_REACTORS
330
42C
102
}
330
42C
100
AcDbXrecord
 10
0.0
 20
0.0
 30
0.0
  0
XRECORD
  5
447
102
{ACAD_REACTORS
330
42C
102
}
330
42C
100
AcDbXrecord
 10
0.0
 20
0.0
 30
0.0
  0
XRECORD
  5
448
102
{ACAD_REACTORS
330
42C
102
}
330
42C
100
AcDbXrecord
 10
0.0
 20
0.0
 30
0.0
  0
XRECORD
  5
445
102
{ACAD_REACTORS
330
42C
102
}
330
42C
100
AcDbXrecord
 10
0.0
 20
0.0
 30
0.0
  0
XRECORD
  5
442
102
{ACAD_REACTORS
330
42C
102
}
330
42C
100
AcDbXrecord
340
0
  0
XRECORD
  5
443
102
{ACAD_REACTORS
330
42C
102
}
330
42C
100
AcDbXrecord
 70
     0
  0
XRECORD
  5
437
102
{ACAD_REACTORS
330
42C
102
}
330
42C
100
AcDbXrecord
  1
{FAEB1C32-E019-11D5-929B-00C0DF256EC4}
  0
DICTIONARYVAR
  5
455
102
{ACAD_REACTORS
330
44C
102
}
330
44C
100
DictionaryVariables
280
     0
  1
1:1
  0
DICTIONARYVAR
  5
451
102
{ACAD_REACTORS
330
44C
102
}
330
44C
100
DictionaryVariables
280
     0
  1
2
  0
DICTIONARYVAR
  5
452
102
{ACAD_REACTORS
330
44C
102
}
330
44C
100
DictionaryVariables
280
     0
  1
1
  0
DICTIONARYVAR
  5
456
102
{ACAD_REACTORS
330
44C
102
}
330
44C
100
DictionaryVariables
280
     0
  1
1
  0
DICTIONARY
  5
459
330
45
100
AcDbDictionary
280
     1
  3
ACAD_XREC_ROUNDTRIP
360
45A
  0
DICTIONARY
  5
457
330
44
100
AcDbDictionary
280
     1
  3
ACAD_XREC_ROUNDTRIP
360
458
  0
DICTIONARY
  5
45B
330
46
100
AcDbDictionary
280
     1
  3
ACAD_XREC_ROUNDTRIP
360
45C
  0
XRECORD
  5
45A
102
{ACAD_REACTORS
330
459
102
}
330
459
100
AcDbXrecord
102
MATERIAL
148
0.0
149
0.0
149
0.0
 93
        0
 94
      127
282
     0
 72
     1
 77
     1
171
     1
175
     1
179
     1
273
     0
  0
XRECORD
  5
458
102
{ACAD_REACTORS
330
457
102
}
330
457
100
AcDbXrecord
102
MATERIAL
148
0.0
149
0.0
149
0.0
 93
        0
 94
      127
282
     0
 72
     1
 77
     1
171
     1
175
     1
179
     1
273
     0
  0
XRECORD
  5
45C
102
{ACAD_REACTORS
330
45B
102
}
330
45B
100
AcDbXrecord
102
MATERIAL
148
0.0
149
0.0
149
0.0
 93
        0
 94
      127
282
     0
 72
     1
 77
     1
171
     1
175
     1
179
     1
273
     0
  0
ENDSEC
  0
EOF
